<svg width="120" height="86" viewBox="0 0 120 86" fill="none" xmlns="http://www.w3.org/2000/svg">
<path d="M4.42256 39.2795C4.23734 39.7752 3.82329 39.8313 3.50459 39.9333C3.77333 39.7441 4.08932 39.5207 4.42256 39.2795C4.63127 38.7209 4.54939 37.6042 3.71305 35.2345C2.73698 32.4689 0.622118 24.9043 3.71305 24.7416C6.80399 24.5789 5.4212 26.2871 5.90924 29.4593C6.39728 32.6316 6.51798 35.9752 7.25004 36.4632C7.7282 36.782 5.90485 38.2065 4.42256 39.2795Z" fill="#FAB91C"/>
<circle cx="12.1436" cy="47.1436" r="10.4929" stroke="#FAB91C" stroke-width="1.30145"/>
<path d="M9.81369 21.9762C6.88543 21.9762 6.69564 25.1214 6.39739 26.7753C6.28425 27.4027 5.99069 30.8423 6.88543 38.4883C8.18688 43.8568 9.00028 44.9955 9.81369 44.9142L9.40698 36.4548C9.19008 35.9668 8.96775 34.9907 9.81369 34.9907C21.7707 33.6892 25.2684 47.7611 26.7325 50.9334C28.1966 54.1057 30.3115 54.5124 29.7421 50.9334C26.5698 35.6414 22.7468 36.5361 19.2492 34.9907C15.7515 33.4452 14.9381 32.0624 13.5553 26.7753C12.1726 21.4882 11.9285 21.9762 9.81369 21.9762Z" fill="white"/>
<circle cx="8.67489" cy="16.9327" r="4.47372" fill="white"/>
<circle cx="11.9289" cy="47.029" r="2.84691" fill="#FAB91C"/>
<rect x="47.5977" y="23.6489" width="2.37277" height="16.1499" rx="1.18638" transform="rotate(-14.729 47.5977 23.6489)" fill="white"/>
<path fill-rule="evenodd" clip-rule="evenodd" d="M50.5573 23.9514L54.2632 37.4181C54.5072 38.3048 53.9862 39.2214 53.0995 39.4654C52.2128 39.7094 51.2961 39.1884 51.0521 38.3017L47.3463 24.835C47.1022 23.9483 47.6232 23.0317 48.51 22.7877C49.3967 22.5436 50.3133 23.0647 50.5573 23.9514ZM46.0915 25.1803C45.6567 23.6006 46.5849 21.9676 48.1647 21.5329C49.7444 21.0981 51.3774 22.0263 51.8121 23.6061L55.518 37.0728C55.8287 38.2017 55.4433 39.3579 54.6214 40.0844C54.3938 40.596 54.2914 41.4514 54.7133 42.7172C55.364 44.6693 57.1535 50.797 57.9669 53.6168C57.9669 53.8879 57.853 54.4302 57.3975 54.4302C56.8281 54.4302 56.6654 54.4302 56.3401 53.6168C56.0798 52.9661 53.9541 45.4285 52.9238 41.7411C52.9018 41.5875 52.6917 41.2138 52.0608 40.7665C51.0035 40.5485 50.1034 39.7592 49.7973 38.647L46.0915 25.1803Z" fill="#FAB91C"/>
<path fill-rule="evenodd" clip-rule="evenodd" d="M52.842 14.6554C52.842 17.1261 50.8391 19.1291 48.3683 19.1291C45.8975 19.1291 43.8946 17.1261 43.8946 14.6554C43.8946 12.1846 45.8975 10.1816 48.3683 10.1816C50.8391 10.1816 52.842 12.1846 52.842 14.6554ZM49.7512 20.675C47.9075 20.5665 44.4315 21.3908 45.2775 25.5554C45.6171 27.2273 46.158 29.1089 46.7252 31.0817L46.7252 31.0817C47.924 35.2517 49.24 39.8291 49.0191 43.6943C49.0191 45.0415 49.1306 46.6674 49.2406 48.2705V48.2706C49.4559 51.4106 49.6653 54.4633 49.0191 55.1633C48.043 56.2207 46.6603 54.7566 46.6603 53.2111C46.6603 51.6657 46.1722 42.5555 45.4402 43.9383C44.4641 44.9958 38.2822 50.9336 37.7128 48.3307C37.4688 48.0054 37.0647 47.6774 36.4953 47.9215C36.4139 47.8401 37.021 46.219 38.0382 45.5651C38.1413 45.4989 38.2744 45.4232 38.4294 45.3352C39.9861 44.4509 43.7477 42.3141 41.4545 35.8043C41.4545 35.3163 42.1865 14.8998 49.7512 20.675ZM34.621 48.4116C34.621 48.4137 34.6227 48.4141 34.626 48.4129L34.621 48.4116ZM34.626 48.4129C34.8897 48.4865 35.5448 49.2545 35.8411 49.6317C37.2239 50.7705 38.1187 48.981 37.8747 49.0623C37.6306 49.1437 37.2239 49.225 36.8172 48.6556C36.4105 48.0862 35.9225 47.5982 35.3531 47.9236C35.064 48.0888 34.8469 48.2518 34.727 48.3419C34.6727 48.3827 34.6383 48.4086 34.626 48.4129ZM31.8964 50.7424C31.5255 51.0277 31.2436 51.2445 31.1814 51.3067C30.9887 51.4994 30.3918 53.6168 32.3439 53.2101C32.832 52.8034 33.9382 51.99 34.4588 51.99C35.1095 51.99 36.0856 50.6885 35.9229 50.2818C35.8958 50.2547 35.744 50.168 35.3535 50.0378C35.1033 49.9544 34.9814 49.7214 34.8672 49.5031C34.7586 49.2956 34.657 49.1014 34.4588 49.0617C34.1334 48.9967 33.9436 49.0888 33.8894 49.1431C33.381 49.6007 32.5149 50.2668 31.8964 50.7424Z" fill="white"/>
<circle cx="73.7472" cy="12.5406" r="4.47372" fill="white"/>
<path d="M76.0242 18.7223C68.2806 13.2562 61.8981 22.8978 59.6748 28.4018C59.2681 30.0286 59.9188 29.9473 60.4068 29.8659C60.8949 29.7846 66.1006 23.2774 66.3447 22.6266C67.6461 20.1539 67.4275 21.5963 67.2106 22.6266C67.0483 23.0511 64.0671 35.1531 64.1485 36.1291C64.2298 37.1052 64.6915 43.8055 62.115 49.3876C59.8053 54.3917 60.7322 54.5121 61.7083 54.5934C62.6843 54.6747 64.0671 51.7465 65.2872 48.6556C67.1581 45.5646 68.0528 38.1626 68.2968 37.8373C70.8997 35.9665 75.0481 50.9331 75.2921 51.7465C75.5361 52.5599 76.4309 55.7322 77.651 55.0001C78.8711 54.268 77.5696 52.1532 77.2443 49.3876C75.9428 46.134 74.56 37.5119 74.56 37.2679C74.56 37.0239 73.6653 33.2009 73.9907 28.8898C74.8854 22.2199 76.9189 23.6841 77.2443 23.8467C77.5696 24.0094 78.0577 26.531 78.5457 27.5884C79.0338 28.6458 79.1151 29.2965 79.8472 31.4927C80.5792 33.6889 81.5553 33.1858 81.5553 32.7128C81.5553 31.4825 81.2299 30.7607 81.2299 30.2726C81.0673 28.6458 80.2539 21.1625 76.0242 18.7223Z" fill="white"/>
<circle cx="96.3585" cy="12.2154" r="4.47372" fill="white"/>
<path d="M82.1593 18.5596C103.226 24.0907 107.185 9.39526 107.537 0.664725C111.035 -2.67023 110.384 7.33464 107.537 13.1098C104.691 18.885 105.574 24.8392 106.399 27.019C107.537 30.0286 108.839 39.4099 109.49 44.5885C109.679 47.4626 110.026 53.4546 109.896 54.4307C109.734 55.6508 109.639 56.6269 108.351 56.6269C107.063 56.6269 107.293 55.6508 107.049 55.0001C107.049 47.6795 105.097 42.3923 104.04 40.2775C102.982 38.1626 102.413 38.488 102.006 38.8134C101.193 38.732 93.7096 50.8517 91.3507 54.4307C89.5896 55.8238 88.6665 53.78 89.3172 52.7226C89.968 51.6651 94.3603 42.311 94.6044 40.4402C100.298 23.1147 89.8053 23.44 83.6234 21.0812C80.0106 19.7026 81.2724 18.3268 82.1593 18.5596Z" fill="white"/>
<path d="M101.031 23.1348C100.831 23.3154 100.674 23.5379 100.557 23.7584C100.556 23.7574 100.554 23.7565 100.553 23.7555C100.349 23.6003 100.071 23.4648 99.7729 23.393C99.475 23.3212 99.1321 23.3074 98.8104 23.4265C98.4789 23.5493 98.1981 23.8032 98.0245 24.2104C97.7357 24.8872 97.934 25.5005 98.2544 25.9639C98.5698 26.4204 99.0207 26.7621 99.3242 26.95L99.3331 26.9555L99.3424 26.9604C99.6891 27.1429 99.9967 27.2773 100.279 27.4005C100.338 27.4264 100.396 27.4518 100.453 27.4771C100.784 27.6232 101.089 27.7675 101.423 27.9834L101.687 28.1545L101.845 27.8823C102.203 27.266 102.38 26.9975 102.804 26.4465C103.044 26.1358 103.415 25.4673 103.541 24.7809C103.605 24.4353 103.611 24.059 103.482 23.7149C103.348 23.3596 103.08 23.066 102.653 22.8853C102.326 22.747 102.018 22.7145 101.735 22.7704C101.454 22.826 101.22 22.9645 101.031 23.1348Z" fill="#FAB91C" stroke="white" stroke-width="0.6"/>
<path d="M0 64.8683C17.324 59.7214 63.8497 52.6782 110.94 65.0309C96.7547 63.4778 54.7073 61.2709 0 64.8683Z" fill="#E8E8E8"/>
<path d="M13.4543 84.7539C13.2359 84.8267 12.9728 84.8855 12.6648 84.9303C12.3569 84.9751 12.049 84.9975 11.741 84.9975C11.1811 84.9975 10.7024 84.9527 10.3049 84.8631C9.91296 84.7735 9.49583 84.6223 9.05352 84.4096C8.56081 84.1744 7.93092 83.8497 7.16387 83.4354C6.39681 83.021 5.82852 82.6935 5.45898 82.4527C4.56315 82.2176 3.7765 81.8592 3.09902 81.3777C2.42155 80.8906 1.89245 80.2775 1.51172 79.5385C1.13099 78.7938 0.940625 77.94 0.940625 76.977C0.940625 75.8348 1.20098 74.827 1.72168 73.9535C2.24238 73.0801 2.94505 72.4054 3.82969 71.9295C4.71992 71.4536 5.69414 71.2156 6.75234 71.2156C7.80495 71.2156 8.77077 71.4508 9.64981 71.9211C10.5288 72.3914 11.2259 73.0577 11.741 73.9199C12.2617 74.7822 12.5221 75.7732 12.5221 76.893C12.5221 77.8616 12.3121 78.735 11.8922 79.5133C11.4779 80.2915 10.9096 80.9326 10.1873 81.4365C9.47064 81.9404 8.66159 82.2792 7.76016 82.4527C8.6 82.8559 9.27188 83.1582 9.77578 83.3598C10.2853 83.5669 10.8144 83.7321 11.3631 83.8553C11.9118 83.984 12.5753 84.082 13.3535 84.1492L13.4543 84.7539ZM7.0127 81.932C7.66777 81.932 8.26406 81.7613 8.80156 81.4197C9.34466 81.0726 9.77298 80.5603 10.0865 79.8828C10.4057 79.2053 10.5652 78.3879 10.5652 77.4305C10.5652 76.4115 10.3917 75.4764 10.0445 74.6254C9.6974 73.7743 9.21309 73.1025 8.5916 72.6098C7.97012 72.1115 7.26185 71.8623 6.4668 71.8623C5.80612 71.8623 5.20423 72.0415 4.66113 72.3998C4.11803 72.7525 3.68971 73.262 3.37617 73.9283C3.06263 74.589 2.90586 75.3589 2.90586 76.2379C2.90586 77.3689 3.08783 78.3655 3.45176 79.2277C3.82129 80.09 4.3168 80.7562 4.93828 81.2266C5.56536 81.6969 6.25684 81.932 7.0127 81.932ZM18.9553 71.8623C18.7257 71.9463 18.429 72.0247 18.065 72.0975C17.7627 72.159 17.5443 72.229 17.41 72.3074C17.2812 72.3802 17.1804 72.5258 17.1076 72.7441C17.0404 72.9569 17.0068 73.2984 17.0068 73.7687V77.3549C17.0068 78.7042 17.2784 79.7624 17.8215 80.5295C18.3702 81.291 19.2996 81.6717 20.6098 81.6717C23.0117 81.6717 24.2127 80.1852 24.2127 77.2121V73.9115C24.2127 73.4132 24.1763 73.0493 24.1035 72.8197C24.0363 72.5902 23.9299 72.4334 23.7844 72.3494C23.6388 72.2598 23.3952 72.173 23.0537 72.0891C22.729 72.0051 22.463 71.9267 22.2559 71.8539V71.4256H26.7826L26.7994 71.8623C26.7154 71.9071 26.623 71.9435 26.5223 71.9715C26.4271 71.9939 26.2983 72.0191 26.1359 72.0471C25.9232 72.0863 25.7524 72.1255 25.6236 72.1646C25.4949 72.1982 25.3745 72.2598 25.2625 72.3494C25.1561 72.4334 25.0805 72.551 25.0357 72.7021C24.9462 73.0101 24.9014 73.3684 24.9014 73.7771C24.9014 74.0459 24.907 74.4714 24.9182 75.0537C24.9294 75.636 24.935 76.0727 24.935 76.3639C24.935 77.6404 24.823 78.7182 24.599 79.5973C24.3807 80.4763 23.9132 81.193 23.1965 81.7473C22.4854 82.3016 21.4356 82.5787 20.0471 82.5787C19.2408 82.5787 18.4906 82.4527 17.7963 82.2008C17.102 81.9432 16.5253 81.5457 16.0662 81.0082C15.6127 80.4707 15.3439 79.7988 15.26 78.9926C15.1928 78.4103 15.1592 77.674 15.1592 76.7838C15.1592 76.2687 15.1676 75.7592 15.1844 75.2553C15.1956 74.5834 15.2012 74.0851 15.2012 73.7604C15.2012 73.346 15.1732 73.0241 15.1172 72.7945C15.0612 72.5706 14.9212 72.4026 14.6973 72.2906C14.4789 72.1786 14.1822 72.0751 13.807 71.9799C13.6223 71.9295 13.4767 71.8875 13.3703 71.8539L13.3955 71.4256H18.9385L18.9553 71.8623ZM31.2002 80.1768C31.2002 80.6023 31.2366 80.9158 31.3094 81.1174C31.3878 81.3189 31.4913 81.4533 31.6201 81.5205C31.7545 81.5877 31.9645 81.6465 32.25 81.6969C32.5803 81.7529 32.8743 81.8257 33.1318 81.9152L33.115 82.3604H27.5301V81.9236C27.6924 81.8508 27.838 81.8005 27.9668 81.7725C28.1012 81.7389 28.2691 81.7053 28.4707 81.6717C28.7227 81.6381 28.9074 81.5905 29.025 81.5289C29.1426 81.4617 29.2322 81.3161 29.2938 81.0922C29.3609 80.8682 29.3945 80.5127 29.3945 80.0256V73.71C29.3945 73.2508 29.3553 72.9121 29.277 72.6937C29.1986 72.4754 29.095 72.3354 28.9662 72.2738C28.843 72.2122 28.6583 72.1646 28.4119 72.1311C28.2104 72.0975 28.0424 72.0639 27.908 72.0303C27.7792 71.9967 27.6421 71.9379 27.4965 71.8539L27.5133 71.4256H33.0814L33.0982 71.8623C32.9807 71.9071 32.8127 71.9547 32.5943 72.0051C32.2864 72.0835 32.04 72.1618 31.8553 72.2402C31.6705 72.3186 31.5137 72.4418 31.385 72.6098C31.2618 72.7721 31.2002 72.9961 31.2002 73.2816V80.1768ZM44.4109 74.4574C44.3382 74.3846 44.2598 74.2839 44.1758 74.1551C44.0918 74.0207 44.0106 73.8835 43.9322 73.7436C43.9154 73.7156 43.8706 73.64 43.7979 73.5168C43.7251 73.3936 43.6579 73.2872 43.5963 73.1977C43.5347 73.1081 43.4759 73.0353 43.4199 72.9793C43.0448 72.6042 42.6277 72.3242 42.1686 72.1395C41.715 71.9547 41.2363 71.8623 40.7324 71.8623C40.0046 71.8623 39.3243 72.0527 38.6916 72.4334C38.0645 72.8085 37.5606 73.3572 37.1799 74.0795C36.8048 74.8018 36.6172 75.6584 36.6172 76.6494C36.6172 77.6628 36.7992 78.5503 37.1631 79.3117C37.5326 80.0676 38.0533 80.6527 38.7252 81.067C39.4027 81.4757 40.1893 81.6801 41.0852 81.6801C41.8466 81.6801 42.5213 81.5233 43.1092 81.2098C43.7027 80.8906 44.1618 80.4231 44.4865 79.8072L44.898 79.866L44.8225 81.4533C44.2122 81.7949 43.5067 82.0692 42.7061 82.2764C41.911 82.4779 41.1691 82.5787 40.4805 82.5787C39.3831 82.5787 38.3921 82.352 37.5074 81.8984C36.6228 81.4449 35.9257 80.7954 35.4162 79.95C34.9067 79.1046 34.652 78.1163 34.652 76.9854C34.652 75.916 34.9123 74.9417 35.433 74.0627C35.9537 73.1837 36.6928 72.4894 37.6502 71.9799C38.6076 71.4704 39.7134 71.2156 40.9676 71.2156C42.1154 71.2156 43.28 71.4452 44.4613 71.9043L44.8057 74.4406L44.4109 74.4574ZM50.7014 76.2631L54.5311 72.467C54.5535 72.3998 54.5647 72.3382 54.5647 72.2822C54.5647 72.1255 54.4975 72.0219 54.3631 71.9715C54.2287 71.9211 54.0244 71.8819 53.75 71.8539C53.5316 71.8315 53.3693 71.8035 53.2629 71.7699C53.1621 71.7363 53.1117 71.6719 53.1117 71.5768C53.1117 71.56 53.1257 71.5096 53.1537 71.4256H57.8904L57.924 71.5768C57.924 71.6495 57.8176 71.7223 57.6049 71.7951C57.3921 71.8679 57.101 71.9435 56.7314 72.0219C56.1939 72.1395 55.7964 72.3046 55.5389 72.5174L52.2803 75.86L56.2107 81.2686C56.2835 81.3469 56.4067 81.4225 56.5803 81.4953C56.7594 81.5625 56.9974 81.6437 57.2941 81.7389C57.6077 81.834 57.8456 81.918 58.008 81.9908C58.176 82.0636 58.26 82.1364 58.26 82.2092C58.26 82.2708 58.2488 82.3212 58.2264 82.3604H52.4818C52.4482 82.2876 52.4314 82.24 52.4314 82.2176C52.4314 82.1336 52.4818 82.0748 52.5826 82.0412C52.689 82.002 52.8542 81.9656 53.0781 81.932C53.3469 81.8928 53.5484 81.848 53.6828 81.7977C53.8228 81.7417 53.8928 81.6437 53.8928 81.5037C53.8928 81.4477 53.8452 81.3581 53.75 81.235L50.735 76.8174H49.9791V81.3189C49.9791 81.4925 50.0351 81.6241 50.1471 81.7137C50.2647 81.7977 50.4046 81.8536 50.567 81.8816C50.7294 81.904 50.9365 81.9208 51.1885 81.932C51.4628 81.9488 51.6616 81.974 51.7848 82.0076C51.9079 82.0356 51.9695 82.1 51.9695 82.2008C51.9695 82.212 51.9555 82.2652 51.9275 82.3604H46.3006C46.2782 82.2932 46.267 82.2456 46.267 82.2176C46.267 82.1224 46.3286 82.058 46.4518 82.0244C46.5749 81.9852 46.7625 81.9516 47.0145 81.9236C47.2608 81.89 47.4596 81.8564 47.6107 81.8229C47.7619 81.7893 47.8935 81.7277 48.0055 81.6381C48.1175 81.5485 48.1734 81.4253 48.1734 81.2686V72.5678C48.1734 72.3494 48.0699 72.1954 47.8627 72.1059C47.6555 72.0163 47.3644 71.9435 46.9893 71.8875C46.7317 71.8427 46.5441 71.8007 46.4266 71.7615C46.3146 71.7223 46.2586 71.6607 46.2586 71.5768C46.2586 71.56 46.2726 71.5096 46.3006 71.4256H51.8939C51.9163 71.4984 51.9275 71.546 51.9275 71.5684C51.9275 71.6635 51.866 71.7307 51.7428 71.7699C51.6196 71.8091 51.4264 71.8483 51.1633 71.8875C50.9113 71.9267 50.707 71.9659 50.5502 72.0051C50.3934 72.0443 50.2591 72.1087 50.1471 72.1982C50.0351 72.2878 49.9791 72.411 49.9791 72.5678V76.2631H50.7014ZM69.8918 73.3656L69.6902 72.8533C69.6007 72.6294 69.5307 72.4614 69.4803 72.3494C69.4131 72.2934 69.1835 72.1898 68.7916 72.0387C68.4837 71.9155 68.2625 71.8231 68.1281 71.7615C67.9938 71.6999 67.9266 71.6439 67.9266 71.5936C67.9266 71.5824 67.935 71.5544 67.9518 71.5096C67.9686 71.4648 67.9798 71.4368 67.9854 71.4256H73.3772C73.3828 71.4424 73.3912 71.4704 73.4023 71.5096C73.4191 71.5488 73.4275 71.5768 73.4275 71.5936C73.4275 71.7223 73.366 71.8063 73.2428 71.8455C73.1252 71.8847 72.9376 71.9155 72.6801 71.9379C72.3945 71.9603 72.179 71.9995 72.0334 72.0555C71.8878 72.1059 71.815 72.215 71.815 72.383C71.815 72.5006 72.1286 73.5504 72.7557 75.5324C73.3884 77.5145 73.8055 78.7966 74.007 79.3789L74.2422 78.665C75.5523 74.7514 76.2074 72.6602 76.2074 72.3914C76.2074 72.2178 76.1234 72.0975 75.9555 72.0303C75.7875 71.9575 75.5412 71.8987 75.2164 71.8539C75.082 71.8371 74.9505 71.8147 74.8217 71.7867C74.6929 71.7587 74.5921 71.7251 74.5193 71.6859L74.469 71.5936L74.5193 71.4256H78.8613C78.8837 71.4256 78.9117 71.4368 78.9453 71.4592C78.9789 71.476 79.0013 71.4956 79.0125 71.518C79.0125 71.602 78.9481 71.6691 78.8193 71.7195C78.6906 71.7643 78.4834 71.8175 78.1979 71.8791C77.7779 71.9687 77.4448 72.0667 77.1984 72.173C76.9521 72.2738 76.7897 72.4306 76.7113 72.6434C76.6497 72.8169 76.5854 73.0185 76.5182 73.248C76.451 73.472 76.4034 73.6316 76.3754 73.7268C76.3418 73.8611 76.3138 73.9619 76.2914 74.0291L73.7803 82.352C73.7467 82.4639 73.6291 82.5199 73.4275 82.5199C73.338 82.5199 73.2624 82.5087 73.2008 82.4863C73.1448 82.4639 73.1 82.4191 73.0664 82.352C72.96 82.1448 72.8537 81.8396 72.7473 81.4365L72.5961 80.9578L70.2109 74.0123L68.0357 80.2691C67.9854 80.4091 67.9154 80.6359 67.8258 80.9494C67.7194 81.3021 67.6298 81.5793 67.557 81.7809C67.4842 81.9824 67.4031 82.1728 67.3135 82.352C67.2799 82.4247 67.2351 82.4723 67.1791 82.4947C67.1231 82.5227 67.0503 82.5367 66.9607 82.5367C66.7928 82.5367 66.65 82.4191 66.5324 82.184C66.4148 81.9488 66.2973 81.6465 66.1797 81.277L66.0957 81.0082L64.9451 77.926C64.3236 76.2351 63.6938 74.5554 63.0555 72.8869C62.9659 72.6574 62.8343 72.4866 62.6607 72.3746C62.4928 72.257 62.266 72.1451 61.9805 72.0387C61.7677 71.9603 61.6053 71.8931 61.4934 71.8371C61.3814 71.7811 61.2778 71.7055 61.1826 71.6104L61.2414 71.4256H66.6416C66.6472 71.4424 66.6556 71.4704 66.6668 71.5096C66.678 71.5432 66.6836 71.5712 66.6836 71.5936C66.6836 71.7055 66.6276 71.7839 66.5156 71.8287C66.4092 71.8679 66.2469 71.9015 66.0285 71.9295C65.7598 71.9631 65.5526 72.0135 65.407 72.0807C65.2671 72.1423 65.1971 72.2598 65.1971 72.4334C65.1971 72.5118 65.4966 73.402 66.0957 75.1041C66.7004 76.8062 67.2127 78.2367 67.6326 79.3957L69.8918 73.3656ZM80.8098 77.8924L80.6502 78.2955C80.3982 78.9506 80.1995 79.4909 80.0539 79.9164C79.9083 80.3363 79.8355 80.6611 79.8355 80.8906C79.8355 81.0922 79.9083 81.2574 80.0539 81.3861C80.2051 81.5149 80.3758 81.6101 80.5662 81.6717C80.7622 81.7333 81.0001 81.7921 81.2801 81.848L81.4397 81.8816V82.3604H77.4756V81.9236C77.554 81.862 77.6324 81.8117 77.7107 81.7725C77.7947 81.7277 77.8983 81.6801 78.0215 81.6297C78.2174 81.5513 78.3742 81.4701 78.4918 81.3861C78.615 81.3021 78.7242 81.1706 78.8193 80.9914C78.8753 80.8794 78.9313 80.7535 78.9873 80.6135C79.0489 80.4679 79.0881 80.3727 79.1049 80.3279L79.2057 80.0676L82.3467 72.0219C82.3691 71.9603 82.3859 71.8539 82.3971 71.7027C82.4027 71.5908 82.4111 71.5012 82.4223 71.434C82.4391 71.3612 82.4671 71.2968 82.5063 71.2408C82.7806 71.2408 83.0158 71.2688 83.2117 71.3248C83.4133 71.3808 83.6148 71.4844 83.8164 71.6355L87.6713 80.8822C87.7441 81.0558 87.8281 81.1958 87.9232 81.3021C88.0184 81.4029 88.1164 81.4813 88.2172 81.5373C88.3236 81.5877 88.4663 81.6493 88.6455 81.7221C88.7967 81.7725 88.9563 81.8396 89.1242 81.9236L89.1074 82.3604H84.2195L84.2027 81.9236C84.4659 81.8452 84.6898 81.7669 84.8746 81.6885C85.065 81.6101 85.2357 81.5009 85.3869 81.3609C85.5381 81.221 85.6137 81.0502 85.6137 80.8486C85.6137 80.6247 85.3337 79.7932 84.7738 78.3543C84.7402 78.2703 84.7066 78.1891 84.673 78.1107C84.6451 78.0324 84.6199 77.9596 84.5975 77.8924H80.8098ZM82.6322 73.0213L81.0953 77.1533H84.2867L82.6322 73.0213ZM91.5514 73.6764C91.5514 73.2229 91.515 72.8925 91.4422 72.6854C91.3694 72.4726 91.263 72.3298 91.1231 72.257C90.9831 72.1842 90.7563 72.1171 90.4428 72.0555C90.062 71.9715 89.7877 71.9043 89.6197 71.8539L89.6365 71.4256H95.3139V71.8623C95.1515 71.9295 95.0059 71.9799 94.8772 72.0135C94.7484 72.0415 94.5776 72.0751 94.3648 72.1143C94.0961 72.159 93.8973 72.215 93.7686 72.2822C93.6398 72.3438 93.539 72.4754 93.4662 72.677C93.399 72.8785 93.3654 73.1949 93.3654 73.626V79.74C93.3654 80.4175 93.4298 80.8878 93.5586 81.151C93.693 81.4085 93.9421 81.5709 94.3061 81.6381C94.67 81.7053 95.3363 81.7389 96.3049 81.7389C96.9208 81.7389 97.4387 81.6605 97.8586 81.5037C98.2841 81.3413 98.6229 81.0194 98.8748 80.5379L99.0008 80.2859C99.0904 80.1012 99.1716 79.9472 99.2443 79.824C99.3171 79.6952 99.4011 79.5777 99.4963 79.4713L100 79.4881L99.4711 82.4527C98.7208 82.3911 98.1078 82.3604 97.6318 82.3604H89.6281L89.6113 81.9068C89.6953 81.8788 89.8745 81.8257 90.1488 81.7473C90.468 81.6633 90.7199 81.5821 90.9047 81.5037C91.0895 81.4197 91.2434 81.2882 91.3666 81.109C91.4898 80.9242 91.5514 80.6695 91.5514 80.3447V73.6764ZM104.938 76.2631L108.768 72.467C108.791 72.3998 108.802 72.3382 108.802 72.2822C108.802 72.1255 108.735 72.0219 108.6 71.9715C108.466 71.9211 108.261 71.8819 107.987 71.8539C107.769 71.8315 107.606 71.8035 107.5 71.7699C107.399 71.7363 107.349 71.6719 107.349 71.5768C107.349 71.56 107.363 71.5096 107.391 71.4256H112.128L112.161 71.5768C112.161 71.6495 112.055 71.7223 111.842 71.7951C111.629 71.8679 111.338 71.9435 110.969 72.0219C110.431 72.1395 110.034 72.3046 109.776 72.5174L106.517 75.86L110.448 81.2686C110.521 81.3469 110.644 81.4225 110.817 81.4953C110.997 81.5625 111.235 81.6437 111.531 81.7389C111.845 81.834 112.083 81.918 112.245 81.9908C112.413 82.0636 112.497 82.1364 112.497 82.2092C112.497 82.2708 112.486 82.3212 112.463 82.3604H106.719C106.685 82.2876 106.669 82.24 106.669 82.2176C106.669 82.1336 106.719 82.0748 106.82 82.0412C106.926 82.002 107.091 81.9656 107.315 81.932C107.584 81.8928 107.786 81.848 107.92 81.7977C108.06 81.7417 108.13 81.6437 108.13 81.5037C108.13 81.4477 108.082 81.3581 107.987 81.235L104.972 76.8174H104.216V81.3189C104.216 81.4925 104.272 81.6241 104.384 81.7137C104.502 81.7977 104.642 81.8536 104.804 81.8816C104.966 81.904 105.174 81.9208 105.426 81.932C105.7 81.9488 105.899 81.974 106.022 82.0076C106.145 82.0356 106.207 82.1 106.207 82.2008C106.207 82.212 106.193 82.2652 106.165 82.3604H100.538C100.515 82.2932 100.504 82.2456 100.504 82.2176C100.504 82.1224 100.566 82.058 100.689 82.0244C100.812 81.9852 101 81.9516 101.252 81.9236C101.498 81.89 101.697 81.8564 101.848 81.8229C101.999 81.7893 102.131 81.7277 102.243 81.6381C102.355 81.5485 102.411 81.4253 102.411 81.2686V72.5678C102.411 72.3494 102.307 72.1954 102.1 72.1059C101.893 72.0163 101.602 71.9435 101.226 71.8875C100.969 71.8427 100.781 71.8007 100.664 71.7615C100.552 71.7223 100.496 71.6607 100.496 71.5768C100.496 71.56 100.51 71.5096 100.538 71.4256H106.131C106.153 71.4984 106.165 71.546 106.165 71.5684C106.165 71.6635 106.103 71.7307 105.98 71.7699C105.857 71.8091 105.664 71.8483 105.4 71.8875C105.148 71.9267 104.944 71.9659 104.787 72.0051C104.631 72.0443 104.496 72.1087 104.384 72.1982C104.272 72.2878 104.216 72.411 104.216 72.5678V76.2631H104.938Z" fill="#FAB91C"/>
<path d="M13.4543 84.7539L13.5631 85.0803L13.8419 84.9873L13.7936 84.6974L13.4543 84.7539ZM10.3049 84.8631L10.2282 85.1984L10.2293 85.1987L10.3049 84.8631ZM9.05352 84.4096L9.20263 84.0996L9.20169 84.0991L9.05352 84.4096ZM5.45898 82.4527L5.64677 82.1645L5.60015 82.1341L5.54633 82.12L5.45898 82.4527ZM3.09902 81.3777L2.8982 81.657L2.89974 81.6581L3.09902 81.3777ZM1.51172 79.5385L1.20543 79.6951L1.20591 79.696L1.51172 79.5385ZM3.82969 71.9295L3.66751 71.6261L3.66671 71.6265L3.82969 71.9295ZM11.741 73.9199L11.4457 74.0963L11.4465 74.0978L11.741 73.9199ZM11.8922 79.5133L11.5894 79.3499L11.5885 79.3516L11.8922 79.5133ZM10.1873 81.4365L9.99047 81.1544L9.98944 81.1551L10.1873 81.4365ZM7.76016 82.4527L7.69512 82.1149L6.67191 82.312L7.6113 82.7629L7.76016 82.4527ZM9.77578 83.3598L9.90535 83.0411L9.90354 83.0404L9.77578 83.3598ZM11.3631 83.8553L11.4417 83.5204L11.4384 83.5196L11.3631 83.8553ZM13.3535 84.1492L13.6928 84.0927L13.649 83.8294L13.3831 83.8065L13.3535 84.1492ZM8.80156 81.4197L8.98605 81.7101L8.98683 81.7096L8.80156 81.4197ZM10.0865 79.8828L9.77532 79.7362L9.77434 79.7383L10.0865 79.8828ZM8.5916 72.6098L8.37641 72.8782L8.37789 72.8793L8.5916 72.6098ZM4.66113 72.3998L4.84851 72.6883L4.85058 72.6869L4.66113 72.3998ZM3.37617 73.9283L3.68695 74.0758L3.68743 74.0748L3.37617 73.9283ZM3.45176 79.2277L3.13483 79.3615L3.13557 79.3632L3.45176 79.2277ZM4.93828 81.2266L4.7307 81.5009L4.73188 81.5018L4.93828 81.2266ZM13.3455 84.4276C13.1518 84.4921 12.9097 84.547 12.6153 84.5899L12.7144 85.2707C13.0359 85.2239 13.32 85.1613 13.5631 85.0803L13.3455 84.4276ZM12.6153 84.5899C12.3236 84.6323 12.0322 84.6535 11.741 84.6535V85.3415C12.0657 85.3415 12.3902 85.3178 12.7144 85.2707L12.6153 84.5899ZM11.741 84.6535C11.1978 84.6535 10.7459 84.6099 10.3805 84.5275L10.2293 85.1987C10.6589 85.2955 11.1644 85.3415 11.741 85.3415V84.6535ZM10.3815 84.5277C10.0194 84.445 9.62669 84.3035 9.20263 84.0996L8.9044 84.7196C9.36498 84.9411 9.80651 85.102 10.2282 85.1984L10.3815 84.5277ZM9.20169 84.0991C8.71625 83.8674 8.09196 83.5457 7.32735 83.1327L7.00038 83.738C7.76989 84.1537 8.40536 84.4814 8.90534 84.72L9.20169 84.0991ZM7.32735 83.1327C6.56225 82.7194 6.00406 82.3973 5.64677 82.1645L5.2712 82.741C5.65297 82.9897 6.23137 83.3226 7.00038 83.738L7.32735 83.1327ZM5.54633 82.12C4.68609 81.8942 3.93828 81.5522 3.29831 81.0973L2.89974 81.6581C3.61471 82.1663 4.44021 82.541 5.37164 82.7855L5.54633 82.12ZM3.29984 81.0984C2.66632 80.6429 2.17327 80.0715 1.81753 79.3809L1.20591 79.696C1.61162 80.4836 2.17678 81.1383 2.89821 81.657L3.29984 81.0984ZM1.81801 79.3819C1.46558 78.6926 1.28463 77.8938 1.28463 76.977H0.596625C0.596625 77.9861 0.796402 78.8951 1.20543 79.6951L1.81801 79.3819ZM1.28463 76.977C1.28463 75.889 1.53199 74.9435 2.01716 74.1297L1.4262 73.7774C0.869961 74.7104 0.596625 75.7806 0.596625 76.977H1.28463ZM2.01716 74.1297C2.50639 73.309 3.16356 72.6785 3.99266 72.2324L3.66671 71.6265C2.72654 72.1323 1.97837 72.8511 1.4262 73.7774L2.01716 74.1297ZM3.99187 72.2329C4.82977 71.7849 5.74789 71.5596 6.75234 71.5596V70.8716C5.64039 70.8716 4.61007 71.1222 3.66751 71.6261L3.99187 72.2329ZM6.75234 71.5596C7.75159 71.5596 8.66121 71.7823 9.48752 72.2244L9.81209 71.6178C8.88033 71.1193 7.8583 70.8716 6.75234 70.8716V71.5596ZM9.48752 72.2244C10.3111 72.665 10.9624 73.2873 11.4457 74.0963L12.0363 73.7435C11.4895 72.8281 10.7466 72.1178 9.81209 71.6178L9.48752 72.2244ZM11.4465 74.0978C11.9313 74.9005 12.1781 75.8287 12.1781 76.893H12.8661C12.8661 75.7177 12.5921 74.6638 12.0355 73.7421L11.4465 74.0978ZM12.1781 76.893C12.1781 77.8101 11.9798 78.6265 11.5894 79.3499L12.1949 79.6766C12.6445 78.8435 12.8661 77.9131 12.8661 76.893H12.1781ZM11.5885 79.3516C11.1998 80.0819 10.6681 80.6817 9.99047 81.1544L10.3841 81.7186C11.1511 81.1836 11.756 80.5012 12.1958 79.6749L11.5885 79.3516ZM9.98944 81.1551C9.31447 81.6297 8.55112 81.9501 7.69512 82.1149L7.8252 82.7905C8.77206 82.6082 9.62681 82.2511 10.3852 81.7179L9.98944 81.1551ZM7.6113 82.7629C8.45393 83.1673 9.13371 83.4734 9.64802 83.6792L9.90354 83.0404C9.41004 82.843 8.74607 82.5444 7.90902 82.1426L7.6113 82.7629ZM9.64621 83.6784C10.1737 83.8929 10.7209 84.0637 11.2877 84.1909L11.4384 83.5196C10.9078 83.4005 10.3969 83.241 9.90535 83.0411L9.64621 83.6784ZM11.2845 84.1902C11.8541 84.3239 12.535 84.4238 13.3239 84.4919L13.3831 83.8065C12.6156 83.7402 11.9694 83.6442 11.4417 83.5204L11.2845 84.1902ZM13.0142 84.2058L13.115 84.8105L13.7936 84.6974L13.6928 84.0927L13.0142 84.2058ZM7.0127 82.276C7.73114 82.276 8.39176 82.0877 8.98605 81.7101L8.61707 81.1294C8.13637 81.4348 7.60441 81.588 7.0127 81.588V82.276ZM8.98683 81.7096C9.59354 81.3218 10.0621 80.7547 10.3987 80.0273L9.77434 79.7383C9.48391 80.3659 9.09578 80.8234 8.6163 81.1299L8.98683 81.7096ZM10.3977 80.0294C10.7436 79.2952 10.9092 78.4249 10.9092 77.4305H10.2212C10.2212 78.3508 10.0677 79.1155 9.77532 79.7362L10.3977 80.0294ZM10.9092 77.4305C10.9092 76.3718 10.7288 75.392 10.3631 74.4955L9.72601 74.7553C10.0546 75.5608 10.2212 76.4512 10.2212 77.4305H10.9092ZM10.3631 74.4955C9.99716 73.5984 9.48007 72.8751 8.80531 72.3402L8.37789 72.8793C8.9461 73.3298 9.39764 73.9503 9.72601 74.7553L10.3631 74.4955ZM8.80679 72.3414C8.12439 71.7942 7.34026 71.5183 6.4668 71.5183V72.2063C7.18344 72.2063 7.81584 72.4287 8.37641 72.8781L8.80679 72.3414ZM6.4668 71.5183C5.73987 71.5183 5.07192 71.7166 4.47168 72.1127L4.85058 72.6869C5.33655 72.3663 5.87237 72.2063 6.4668 72.2063V71.5183ZM4.47376 72.1113C3.86988 72.5035 3.4019 73.0658 3.06491 73.7818L3.68743 74.0748C3.97753 73.4583 4.36619 73.0016 4.8485 72.6883L4.47376 72.1113ZM3.06539 73.7808C2.726 74.496 2.56186 75.318 2.56186 76.2379H3.24986C3.24986 75.3997 3.39926 74.682 3.68695 74.0758L3.06539 73.7808ZM2.56186 76.2379C2.56186 77.4055 2.74972 78.4491 3.13483 79.3615L3.76868 79.094C3.42593 78.2819 3.24986 77.3323 3.24986 76.2379H2.56186ZM3.13557 79.3632C3.52385 80.2692 4.05274 80.9878 4.7307 81.5009L5.14587 80.9523C4.58086 80.5247 4.11873 79.9107 3.76794 79.0922L3.13557 79.3632ZM4.73188 81.5018C5.41614 82.015 6.1795 82.276 7.0127 82.276V81.588C6.33417 81.588 5.71459 81.3788 5.14468 80.9514L4.73188 81.5018ZM18.9553 71.8623L19.0735 72.1854L19.3086 72.0993L19.299 71.8491L18.9553 71.8623ZM18.065 72.0975L17.9976 71.7601L17.9964 71.7604L18.065 72.0975ZM17.41 72.3074L17.5792 72.6069L17.5833 72.6046L17.41 72.3074ZM17.1076 72.7441L16.7812 72.6353L16.7796 72.6406L17.1076 72.7441ZM17.8215 80.5295L17.5407 80.7283L17.5424 80.7306L17.8215 80.5295ZM24.1035 72.8197L23.7733 72.9164L23.7756 72.9237L24.1035 72.8197ZM23.7844 72.3494L23.604 72.6425L23.6125 72.6474L23.7844 72.3494ZM23.0537 72.0891L22.9676 72.4221L22.9716 72.4231L23.0537 72.0891ZM22.2559 71.8539H21.9119V72.0977L22.1418 72.1785L22.2559 71.8539ZM22.2559 71.4256V71.0816H21.9119V71.4256H22.2559ZM26.7826 71.4256L27.1264 71.4124L27.1136 71.0816H26.7826V71.4256ZM26.7994 71.8623L26.9613 72.1658L27.1514 72.0644L27.1432 71.8491L26.7994 71.8623ZM26.5223 71.9715L26.6011 72.3066L26.6143 72.3029L26.5223 71.9715ZM26.1359 72.0471L26.0775 71.708L26.0736 71.7088L26.1359 72.0471ZM25.6236 72.1646L25.7105 72.4978L25.7238 72.4937L25.6236 72.1646ZM25.2625 72.3494L25.4757 72.6194L25.4774 72.618L25.2625 72.3494ZM25.0357 72.7021L24.7059 72.6044L24.7054 72.6061L25.0357 72.7021ZM24.599 79.5973L24.2657 79.5123L24.2652 79.5143L24.599 79.5973ZM23.1965 81.7473L22.986 81.4752L22.985 81.476L23.1965 81.7473ZM17.7963 82.2008L17.6766 82.5233L17.6789 82.5241L17.7963 82.2008ZM16.0662 81.0082L15.8033 81.23L15.8046 81.2316L16.0662 81.0082ZM15.26 78.9926L15.6021 78.9569L15.6017 78.9531L15.26 78.9926ZM15.1844 75.2553L15.5282 75.2667L15.5283 75.261L15.1844 75.2553ZM15.1172 72.7945L15.4514 72.713L15.4509 72.7111L15.1172 72.7945ZM14.6973 72.2906L14.5403 72.5967L14.5434 72.5983L14.6973 72.2906ZM13.807 71.9799L13.7165 72.3118L13.7224 72.3133L13.807 71.9799ZM13.3703 71.8539L13.0269 71.8337L13.0112 72.1012L13.2667 72.1819L13.3703 71.8539ZM13.3955 71.4256V71.0816H13.0711L13.0521 71.4054L13.3955 71.4256ZM18.9385 71.4256L19.2822 71.4124L19.2695 71.0816H18.9385V71.4256ZM18.8371 71.5392C18.6302 71.6149 18.3521 71.6892 17.9976 71.7601L18.1325 72.4348C18.5058 72.3601 18.8213 72.2776 19.0735 72.1854L18.8371 71.5392ZM17.9964 71.7604C17.686 71.8236 17.4217 71.9023 17.2366 72.0103L17.5833 72.6046C17.667 72.5557 17.8394 72.4945 18.1337 72.4345L17.9964 71.7604ZM17.2407 72.0079C17.0059 72.1406 16.8666 72.3793 16.7813 72.6354L17.434 72.8529C17.4942 72.6723 17.5564 72.6198 17.5792 72.6069L17.2407 72.0079ZM16.7796 72.6406C16.6955 72.9068 16.6628 73.2933 16.6628 73.7687H17.3508C17.3508 73.3036 17.3853 73.007 17.4356 72.8477L16.7796 72.6406ZM16.6628 73.7687V77.3549H17.3508V73.7687H16.6628ZM16.6628 77.3549C16.6628 78.7456 16.9421 79.8828 17.5407 80.7283L18.1022 80.3307C17.6147 79.6421 17.3508 78.6628 17.3508 77.3549H16.6628ZM17.5424 80.7306C18.179 81.6141 19.236 82.0157 20.6098 82.0157V81.3277C19.3632 81.3277 18.5613 80.9678 18.1006 80.3284L17.5424 80.7306ZM20.6098 82.0157C21.8855 82.0157 22.8974 81.6173 23.5795 80.773C24.2504 79.9427 24.5567 78.736 24.5567 77.2121H23.8687C23.8687 78.6613 23.5745 79.6844 23.0444 80.3406C22.5256 80.9828 21.736 81.3277 20.6098 81.3277V82.0157ZM24.5567 77.2121V73.9115H23.8687V77.2121H24.5567ZM24.5567 73.9115C24.5567 73.4073 24.5211 72.9986 24.4314 72.7158L23.7756 72.9237C23.8315 73.1 23.8687 73.4192 23.8687 73.9115H24.5567ZM24.4337 72.7231C24.3522 72.4446 24.2058 72.1954 23.9563 72.0514L23.6125 72.6474C23.6541 72.6714 23.7205 72.7357 23.7734 72.9164L24.4337 72.7231ZM23.9647 72.0564C23.771 71.9373 23.4835 71.8405 23.1359 71.755L22.9716 72.4231C23.307 72.5056 23.5066 72.5824 23.6041 72.6424L23.9647 72.0564ZM23.1398 71.756C22.8202 71.6733 22.5644 71.5977 22.3699 71.5294L22.1418 72.1785C22.3616 72.2557 22.6378 72.3368 22.9676 72.4221L23.1398 71.756ZM22.5999 71.8539V71.4256H21.9119V71.8539H22.5999ZM22.2559 71.7696H26.7826V71.0816H22.2559V71.7696ZM26.4389 71.4388L26.4557 71.8755L27.1432 71.8491L27.1264 71.4124L26.4389 71.4388ZM26.6375 71.5588C26.5778 71.5906 26.5091 71.6181 26.4302 71.64L26.6143 72.3029C26.737 72.2689 26.8531 72.2236 26.9613 72.1658L26.6375 71.5588ZM26.4435 71.6366C26.358 71.6567 26.237 71.6806 26.0775 71.7081L26.1944 72.3861C26.3596 72.3576 26.4961 72.331 26.6011 72.3063L26.4435 71.6366ZM26.0736 71.7088C25.8547 71.7491 25.6698 71.791 25.5235 71.8356L25.7238 72.4937C25.835 72.4599 25.9916 72.4234 26.1983 72.3854L26.0736 71.7088ZM25.5368 71.8318C25.3578 71.8785 25.1943 71.9634 25.0476 72.0808L25.4774 72.618C25.5546 72.5562 25.632 72.518 25.7105 72.4975L25.5368 71.8318ZM25.0493 72.0794C24.8785 72.2143 24.7675 72.3966 24.7059 72.6044L25.3656 72.7999C25.3936 72.7053 25.4337 72.6525 25.4757 72.6194L25.0493 72.0794ZM24.7054 72.6061C24.6047 72.9524 24.5574 73.3444 24.5574 73.7771H25.2454C25.2454 73.3925 25.2876 73.0678 25.3661 72.7982L24.7054 72.6061ZM24.5574 73.7771C24.5574 74.0494 24.563 74.4778 24.5742 75.0603L25.2621 75.0471C25.2509 74.4651 25.2454 74.0424 25.2454 73.7771H24.5574ZM24.5742 75.0603C24.5854 75.6421 24.591 76.0762 24.591 76.3639H25.279C25.279 76.0693 25.2733 75.6299 25.2621 75.0471L24.5742 75.0603ZM24.591 76.3639C24.591 77.6224 24.4803 78.6698 24.2657 79.5123L24.9324 79.6822C25.1656 78.7667 25.279 77.6584 25.279 76.3639H24.591ZM24.2652 79.5143C24.0655 80.3182 23.6415 80.9682 22.986 81.4752L23.4069 82.0194C24.1848 81.4177 24.6958 80.6344 24.9329 79.6802L24.2652 79.5143ZM22.985 81.476C22.3593 81.9637 21.3981 82.2347 20.0471 82.2347V82.9227C21.4731 82.9227 22.6116 82.6394 23.408 82.0186L22.985 81.476ZM20.0471 82.2347C19.2772 82.2347 18.567 82.1145 17.9136 81.8774L17.6789 82.5241C18.4141 82.7909 19.2045 82.9227 20.0471 82.9227V82.2347ZM17.9159 81.8783C17.2739 81.6401 16.747 81.2755 16.3278 80.7848L15.8046 81.2316C16.3037 81.8159 16.9301 82.2464 17.6766 82.5233L17.9159 81.8783ZM16.3291 80.7864C15.9266 80.3093 15.6801 79.7054 15.6021 78.9569L14.9178 79.0282C15.0078 79.8923 15.2988 80.6321 15.8033 81.23L16.3291 80.7864ZM15.6017 78.9531C15.5366 78.3888 15.5032 77.6668 15.5032 76.7838H14.8152C14.8152 77.6812 14.849 78.4318 14.9182 79.032L15.6017 78.9531ZM15.5032 76.7838C15.5032 76.2724 15.5115 75.7667 15.5282 75.2667L14.8406 75.2438C14.8236 75.7516 14.8152 76.2649 14.8152 76.7838H15.5032ZM15.5283 75.261C15.5395 74.5888 15.5452 74.0881 15.5452 73.7604H14.8572C14.8572 74.0821 14.8516 74.578 14.8404 75.2495L15.5283 75.261ZM15.5452 73.7604C15.5452 73.3358 15.517 72.982 15.4514 72.713L14.783 72.876C14.8294 73.0662 14.8572 73.3562 14.8572 73.7604H15.5452ZM15.4509 72.7111C15.3683 72.3808 15.1563 72.1355 14.8511 71.9829L14.5434 72.5983C14.6862 72.6697 14.7541 72.7604 14.7835 72.878L15.4509 72.7111ZM14.8542 71.9845C14.6036 71.856 14.2792 71.7448 13.8916 71.6464L13.7224 72.3133C14.0851 72.4053 14.3542 72.5013 14.5403 72.5967L14.8542 71.9845ZM13.8975 71.648C13.7145 71.5981 13.574 71.5575 13.4739 71.5259L13.2667 72.1819C13.3794 72.2175 13.53 72.2609 13.7165 72.3118L13.8975 71.648ZM13.7137 71.8741L13.7389 71.4458L13.0521 71.4054L13.0269 71.8337L13.7137 71.8741ZM13.3955 71.7696H18.9385V71.0816H13.3955V71.7696ZM18.5947 71.4388L18.6115 71.8755L19.299 71.8491L19.2822 71.4124L18.5947 71.4388ZM31.3094 81.1174L30.9857 81.2343L30.9888 81.2421L31.3094 81.1174ZM31.6201 81.5205L31.461 81.8255L31.4663 81.8282L31.6201 81.5205ZM32.25 81.6969L32.1902 82.0356L32.1925 82.036L32.25 81.6969ZM33.1318 81.9152L33.4756 81.9282L33.4852 81.6739L33.2449 81.5903L33.1318 81.9152ZM33.115 82.3604V82.7044H33.4463L33.4588 82.3733L33.115 82.3604ZM27.5301 82.3604H27.1861V82.7044H27.5301V82.3604ZM27.5301 81.9236L27.3894 81.6097L27.1861 81.7009V81.9236H27.5301ZM27.9668 81.7725L28.0399 82.1088L28.0502 82.1062L27.9668 81.7725ZM28.4707 81.6717L28.4252 81.3305L28.4142 81.3324L28.4707 81.6717ZM29.025 81.5289L29.1847 81.8338L29.1957 81.8276L29.025 81.5289ZM29.2938 81.0922L28.9642 80.9933L28.9621 81.001L29.2938 81.0922ZM28.9662 72.2738L28.8123 72.5816L28.8178 72.5842L28.9662 72.2738ZM28.4119 72.1311L28.3553 72.4705L28.3654 72.4719L28.4119 72.1311ZM27.908 72.0303L27.8212 72.3632L27.8246 72.364L27.908 72.0303ZM27.4965 71.8539L27.1528 71.8404L27.1446 72.048L27.3246 72.1519L27.4965 71.8539ZM27.5133 71.4256V71.0816H27.1825L27.1695 71.4121L27.5133 71.4256ZM33.0814 71.4256L33.4252 71.4124L33.4125 71.0816H33.0814V71.4256ZM33.0982 71.8623L33.2207 72.1838L33.4515 72.0959L33.442 71.8491L33.0982 71.8623ZM32.5943 72.0051L32.517 71.6698L32.5095 71.6717L32.5943 72.0051ZM31.385 72.6098L31.112 72.4005L31.1109 72.4019L31.385 72.6098ZM30.8562 80.1768C30.8562 80.6108 30.8919 80.9741 30.9858 81.2342L31.6329 81.0005C31.5813 80.8575 31.5442 80.5937 31.5442 80.1768H30.8562ZM30.9888 81.2421C31.083 81.4844 31.2295 81.7047 31.461 81.8255L31.7792 81.2155C31.7532 81.2019 31.6925 81.1535 31.63 80.9927L30.9888 81.2421ZM31.4663 81.8282C31.6464 81.9183 31.8964 81.9838 32.1902 82.0356L32.3098 81.3581C32.0325 81.3092 31.8626 81.2571 31.774 81.2128L31.4663 81.8282ZM32.1925 82.036C32.5081 82.0895 32.7829 82.1581 33.0188 82.2401L33.2449 81.5903C32.9657 81.4932 32.6526 81.4162 32.3075 81.3577L32.1925 82.036ZM32.7881 81.9023L32.7713 82.3474L33.4588 82.3733L33.4756 81.9282L32.7881 81.9023ZM33.115 82.0164H27.5301V82.7044H33.115V82.0164ZM27.8741 82.3604V81.9236H27.1861V82.3604H27.8741ZM27.6708 82.2375C27.8185 82.1713 27.9408 82.1301 28.0399 82.1086L27.8937 81.4363C27.7352 81.4708 27.5664 81.5303 27.3894 81.6097L27.6708 82.2375ZM28.0502 82.1062C28.1726 82.0756 28.3309 82.0437 28.5273 82.011L28.4142 81.3324C28.2074 81.3668 28.0297 81.4021 27.8834 81.4387L28.0502 82.1062ZM28.5162 82.0127C28.7784 81.9777 29.0121 81.924 29.1846 81.8336L28.8654 81.2242C28.8027 81.257 28.6669 81.2985 28.4252 81.3307L28.5162 82.0127ZM29.1957 81.8276C29.4327 81.6921 29.5558 81.4365 29.6254 81.1834L28.9621 81.001C28.937 81.092 28.9103 81.1519 28.8874 81.189C28.8651 81.2254 28.8516 81.2318 28.8543 81.2302L29.1957 81.8276ZM29.6232 81.191C29.7057 80.9162 29.7385 80.5181 29.7385 80.0256H29.0505C29.0505 80.5073 29.0162 80.8203 28.9643 80.9933L29.6232 81.191ZM29.7385 80.0256V73.71H29.0505V80.0256H29.7385ZM29.7385 73.71C29.7385 73.2422 29.7 72.8541 29.6007 72.5775L28.9532 72.81C29.0107 72.9701 29.0505 73.2595 29.0505 73.71H29.7385ZM29.6007 72.5775C29.51 72.3248 29.3636 72.0825 29.1146 71.9635L28.8178 72.5842C28.8264 72.5883 28.8871 72.626 28.9532 72.81L29.6007 72.5775ZM29.1201 71.9661C28.9462 71.8792 28.7171 71.8255 28.4584 71.7902L28.3654 72.4719C28.5994 72.5038 28.7398 72.5452 28.8124 72.5815L29.1201 71.9661ZM28.4685 71.7917C28.2721 71.759 28.1138 71.7271 27.9914 71.6965L27.8246 72.364C27.9709 72.4006 28.1486 72.4359 28.3554 72.4704L28.4685 71.7917ZM27.9948 71.6974C27.9025 71.6733 27.7939 71.6284 27.6684 71.5559L27.3246 72.1519C27.4902 72.2474 27.656 72.32 27.8212 72.3631L27.9948 71.6974ZM27.8402 71.8674L27.857 71.4391L27.1695 71.4121L27.1528 71.8404L27.8402 71.8674ZM27.5133 71.7696H33.0814V71.0816H27.5133V71.7696ZM32.7377 71.4388L32.7545 71.8755L33.442 71.8491L33.4252 71.4124L32.7377 71.4388ZM32.9758 71.5408C32.88 71.5773 32.7299 71.6208 32.517 71.6699L32.6717 72.3403C32.8955 72.2886 33.0813 72.2369 33.2207 72.1838L32.9758 71.5408ZM32.5095 71.6717C32.1932 71.7522 31.9282 71.8356 31.7209 71.9236L31.9896 72.5569C32.1519 72.4881 32.3796 72.4147 32.6792 72.3384L32.5095 71.6717ZM31.7209 71.9236C31.4784 72.0264 31.2749 72.188 31.112 72.4005L31.658 72.8191C31.7526 72.6956 31.8626 72.6108 31.9896 72.5569L31.7209 71.9236ZM31.1109 72.4019C30.9273 72.6439 30.8562 72.9504 30.8562 73.2816H31.5442C31.5442 73.0418 31.5963 72.9004 31.659 72.8177L31.1109 72.4019ZM30.8562 73.2816V80.1768H31.5442V73.2816H30.8562ZM44.4109 74.4574L44.1677 74.7007L44.2746 74.8075L44.4256 74.8011L44.4109 74.4574ZM44.1758 74.1551L43.884 74.3374L43.8876 74.343L44.1758 74.1551ZM43.9322 73.7436L44.2325 73.5754L44.2272 73.5666L43.9322 73.7436ZM42.1686 72.1395L42.0388 72.458L42.0401 72.4586L42.1686 72.1395ZM38.6916 72.4334L38.8682 72.7286L38.869 72.7281L38.6916 72.4334ZM37.1799 74.0795L36.8756 73.9191L36.8746 73.9209L37.1799 74.0795ZM37.1631 79.3117L36.8527 79.4601L36.854 79.4628L37.1631 79.3117ZM38.7252 81.067L38.5446 81.3598L38.5475 81.3615L38.7252 81.067ZM43.1092 81.2098L43.2711 81.5133L43.2721 81.5127L43.1092 81.2098ZM44.4865 79.8072L44.5352 79.4667L44.2953 79.4324L44.1822 79.6468L44.4865 79.8072ZM44.898 79.866L45.2417 79.8824L45.2565 79.5697L44.9467 79.5255L44.898 79.866ZM44.8225 81.4533L44.9905 81.7535L45.157 81.6603L45.1661 81.4697L44.8225 81.4533ZM42.7061 82.2764L42.7906 82.6098L42.7922 82.6094L42.7061 82.2764ZM44.4613 71.9043L44.8022 71.858L44.7749 71.6571L44.5859 71.5837L44.4613 71.9043ZM44.8057 74.4406L44.8203 74.7843L45.1973 74.7683L45.1465 74.3943L44.8057 74.4406ZM44.6542 74.2142C44.6043 74.1643 44.5406 74.0847 44.4639 73.9672L43.8876 74.343C43.9789 74.483 44.072 74.605 44.1677 74.7007L44.6542 74.2142ZM44.4675 73.9728C44.3865 73.8431 44.3081 73.7107 44.2324 73.5755L43.6321 73.9116C43.7131 74.0564 43.7971 74.1983 43.8841 74.3374L44.4675 73.9728ZM44.2272 73.5666C44.2111 73.5398 44.1671 73.4654 44.094 73.3418L43.5017 73.6918C43.5742 73.8145 43.6197 73.8913 43.6373 73.9205L44.2272 73.5666ZM44.094 73.3418C44.0184 73.2138 43.9469 73.1005 43.8798 73.0028L43.3128 73.3925C43.3688 73.474 43.4317 73.5734 43.5017 73.6918L44.094 73.3418ZM43.8798 73.0028C43.8103 72.9018 43.7383 72.8112 43.6632 72.7361L43.1767 73.2225C43.2135 73.2593 43.2591 73.3144 43.3128 73.3925L43.8798 73.0028ZM43.6632 72.7361C43.2577 72.3305 42.8021 72.0236 42.297 71.8203L42.0401 72.4586C42.4532 72.6248 42.8319 72.8778 43.1767 73.2225L43.6632 72.7361ZM42.2983 71.8209C41.8024 71.6188 41.2795 71.5183 40.7324 71.5183V72.2063C41.1931 72.2063 41.6277 72.2905 42.0388 72.458L42.2983 71.8209ZM40.7324 71.5183C39.9411 71.5183 39.1996 71.7262 38.5142 72.1387L38.869 72.7281C39.4489 72.3791 40.068 72.2063 40.7324 72.2063V71.5183ZM38.515 72.1382C37.8276 72.5494 37.2822 73.1478 36.8756 73.9191L37.4842 74.2399C37.8391 73.5667 38.3014 73.0677 38.8682 72.7286L38.515 72.1382ZM36.8746 73.9209C36.4691 74.7017 36.2732 75.6151 36.2732 76.6494H36.9612C36.9612 75.7017 37.1404 74.9018 37.4852 74.238L36.8746 73.9209ZM36.2732 76.6494C36.2732 77.704 36.4626 78.6439 36.8527 79.4601L37.4735 79.1634C37.1357 78.4566 36.9612 77.6217 36.9612 76.6494H36.2732ZM36.854 79.4628C37.2502 80.2731 37.8137 80.9091 38.5446 81.3598L38.9058 80.7742C38.2929 80.3963 37.8151 79.8621 37.4721 79.1606L36.854 79.4628ZM38.5475 81.3615C39.2854 81.8067 40.1352 82.0241 41.0852 82.0241V81.3361C40.2435 81.3361 39.5199 81.1447 38.9029 80.7724L38.5475 81.3615ZM41.0852 82.0241C41.8949 82.0241 42.6266 81.857 43.2711 81.5133L42.9473 80.9062C42.416 81.1896 41.7983 81.3361 41.0852 81.3361V82.0241ZM43.2721 81.5127C43.9279 81.1601 44.4353 80.6419 44.7908 79.9677L44.1822 79.6468C43.8883 80.2043 43.4774 80.6212 42.9463 80.9068L43.2721 81.5127ZM44.4379 80.1478L44.8494 80.2066L44.9467 79.5255L44.5352 79.4667L44.4379 80.1478ZM44.5544 79.8497L44.4789 81.437L45.1661 81.4697L45.2417 79.8824L44.5544 79.8497ZM44.6545 81.1531C44.0741 81.4779 43.397 81.7423 42.6199 81.9433L42.7922 82.6094C43.6164 82.3962 44.3502 82.1118 44.9905 81.7535L44.6545 81.1531ZM42.6215 81.9429C41.849 82.1388 41.1358 82.2347 40.4805 82.2347V82.9227C41.2025 82.9227 41.973 82.8171 42.7906 82.6098L42.6215 81.9429ZM40.4805 82.2347C39.4319 82.2347 38.4955 82.0184 37.6644 81.5923L37.3505 82.2046C38.2886 82.6855 39.3343 82.9227 40.4805 82.9227V82.2347ZM37.6644 81.5923C36.8363 81.1678 36.1871 80.5626 35.7108 79.7724L35.1216 80.1276C35.6644 81.0282 36.4093 81.7221 37.3505 82.2046L37.6644 81.5923ZM35.7108 79.7724C35.2381 78.988 34.996 78.0631 34.996 76.9854H34.308C34.308 78.1696 34.5753 79.2211 35.1216 80.1276L35.7108 79.7724ZM34.996 76.9854C34.996 75.9746 35.2412 75.0614 35.729 74.238L35.137 73.8874C34.5834 74.822 34.308 75.8573 34.308 76.9854H34.996ZM35.729 74.238C36.2155 73.4167 36.9065 72.7653 37.8118 72.2836L37.4886 71.6762C36.479 72.2135 35.6919 72.9507 35.137 73.8874L35.729 74.238ZM37.8118 72.2836C38.7122 71.8044 39.7609 71.5596 40.9676 71.5596V70.8716C39.6659 70.8716 38.503 71.1364 37.4886 71.6762L37.8118 72.2836ZM40.9676 71.5596C42.0685 71.5596 43.1909 71.7797 44.3367 72.2249L44.5859 71.5837C43.369 71.1107 42.1622 70.8716 40.9676 70.8716V71.5596ZM44.1205 71.9506L44.4648 74.4869L45.1465 74.3943L44.8022 71.858L44.1205 71.9506ZM44.791 74.0969L44.3963 74.1137L44.4256 74.8011L44.8203 74.7843L44.791 74.0969ZM50.7014 76.2631V76.6071H50.843L50.9435 76.5074L50.7014 76.2631ZM54.5311 72.467L54.7732 72.7113L54.8315 72.6536L54.8574 72.5758L54.5311 72.467ZM53.75 71.8539L53.7149 72.1961L53.7151 72.1961L53.75 71.8539ZM53.2629 71.7699L53.1541 72.0963L53.1593 72.098L53.2629 71.7699ZM53.1537 71.4256V71.0816H52.9058L52.8274 71.3168L53.1537 71.4256ZM57.8904 71.4256L58.2262 71.351L58.1664 71.0816H57.8904V71.4256ZM57.924 71.5768H58.268V71.539L58.2598 71.5021L57.924 71.5768ZM56.7314 72.0219L56.6601 71.6854L56.6579 71.6858L56.7314 72.0219ZM55.5389 72.5174L55.3198 72.2522L55.3055 72.264L55.2926 72.2773L55.5389 72.5174ZM52.2803 75.86L52.034 75.6198L51.8315 75.8275L52.002 76.0622L52.2803 75.86ZM56.2107 81.2686L55.9325 81.4708L55.9446 81.4875L55.9587 81.5026L56.2107 81.2686ZM56.5803 81.4953L56.4471 81.8128L56.4595 81.8174L56.5803 81.4953ZM57.2941 81.7389L57.1891 82.0665L57.1942 82.068L57.2941 81.7389ZM58.008 81.9908L57.8673 82.3047L57.8712 82.3065L58.008 81.9908ZM58.2264 82.3604V82.7044H58.426L58.525 82.531L58.2264 82.3604ZM52.4818 82.3604L52.1695 82.5045L52.2617 82.7044H52.4818V82.3604ZM52.5826 82.0412L52.6915 82.3677L52.7015 82.364L52.5826 82.0412ZM53.0781 81.932L53.0285 81.5916L53.0271 81.5918L53.0781 81.932ZM53.6828 81.7977L53.8036 82.1198L53.8106 82.1171L53.6828 81.7977ZM53.75 81.235L53.4659 81.4289L53.4716 81.4373L53.4778 81.4453L53.75 81.235ZM50.735 76.8174L51.0191 76.6235L50.9167 76.4734H50.735V76.8174ZM49.9791 76.8174V76.4734H49.6351V76.8174H49.9791ZM50.1471 81.7137L49.9322 81.9823L49.9395 81.9881L49.9471 81.9936L50.1471 81.7137ZM50.567 81.8816L50.5085 82.2208L50.52 82.2224L50.567 81.8816ZM51.1885 81.932L51.2095 81.5886L51.2038 81.5884L51.1885 81.932ZM51.7848 82.0076L51.6943 82.3395L51.7014 82.3414L51.7085 82.3431L51.7848 82.0076ZM51.9275 82.3604V82.7044H52.1849L52.2576 82.4574L51.9275 82.3604ZM46.3006 82.3604L45.9742 82.4691L46.0527 82.7044H46.3006V82.3604ZM46.4518 82.0244L46.5423 82.3563L46.5492 82.3544L46.5561 82.3522L46.4518 82.0244ZM47.0145 81.9236L47.0525 82.2656L47.0609 82.2645L47.0145 81.9236ZM46.9893 71.8875L46.9303 72.2265L46.9385 72.2277L46.9893 71.8875ZM46.4266 71.7615L46.3129 72.0862L46.3178 72.0879L46.4266 71.7615ZM46.3006 71.4256V71.0816H46.0527L45.9742 71.3168L46.3006 71.4256ZM51.8939 71.4256L52.2227 71.3244L52.148 71.0816H51.8939V71.4256ZM51.1633 71.8875L51.1126 71.5472L51.1104 71.5476L51.1633 71.8875ZM49.9791 76.2631H49.6351V76.6071H49.9791V76.2631ZM50.9435 76.5074L54.7732 72.7113L54.2889 72.2227L50.4592 76.0188L50.9435 76.5074ZM54.8574 72.5758C54.8885 72.4824 54.9087 72.3835 54.9087 72.2822H54.2207C54.2207 72.2929 54.2184 72.3172 54.2047 72.3582L54.8574 72.5758ZM54.9087 72.2822C54.9087 72.1552 54.8812 72.0206 54.8029 71.8998C54.7229 71.7766 54.6084 71.6961 54.4839 71.6494L54.2423 72.2936C54.2484 72.2959 54.2473 72.2963 54.2425 72.2926C54.2372 72.2886 54.2309 72.2823 54.2257 72.2742C54.2232 72.2704 54.2215 72.2671 54.2204 72.2645C54.2193 72.2619 54.219 72.2605 54.219 72.2606C54.219 72.2609 54.2207 72.2674 54.2207 72.2822H54.9087ZM54.4839 71.6494C54.307 71.5831 54.0669 71.5405 53.7849 71.5117L53.7151 72.1961C53.9818 72.2233 54.1504 72.2591 54.2423 72.2936L54.4839 71.6494ZM53.7851 71.5117C53.5722 71.4899 53.4383 71.4646 53.3665 71.4419L53.1593 72.098C53.3002 72.1425 53.4911 72.1732 53.7149 72.1961L53.7851 71.5117ZM53.3717 71.4436C53.3664 71.4418 53.3932 71.4496 53.4204 71.4844C53.4501 71.5224 53.4557 71.5607 53.4557 71.5768H52.7677C52.7677 71.688 52.7985 71.8061 52.8786 71.9084C52.9563 72.0077 53.0586 72.0644 53.1541 72.0963L53.3717 71.4436ZM53.4557 71.5768C53.4557 71.5873 53.4552 71.5959 53.4547 71.6018C53.4542 71.6079 53.4536 71.6128 53.4531 71.6162C53.4522 71.6228 53.4513 71.6271 53.4511 71.628C53.4508 71.6297 53.4513 71.6271 53.4537 71.6184C53.4584 71.6014 53.4668 71.574 53.4801 71.5344L52.8274 71.3168C52.8126 71.3611 52.8 71.401 52.7908 71.4343C52.7863 71.4503 52.7677 71.5132 52.7677 71.5768H53.4557ZM53.1537 71.7696H57.8904V71.0816H53.1537V71.7696ZM57.5546 71.5002L57.5882 71.6514L58.2598 71.5021L58.2262 71.351L57.5546 71.5002ZM57.58 71.5768C57.58 71.5061 57.607 71.4548 57.6263 71.4284C57.6437 71.4047 57.657 71.3972 57.65 71.402C57.6443 71.4059 57.6296 71.4148 57.6017 71.4275C57.5745 71.44 57.5389 71.4541 57.4935 71.4696L57.7162 72.1206C57.8337 72.0804 57.9475 72.0321 58.0385 71.9698C58.1147 71.9177 58.268 71.7916 58.268 71.5768H57.58ZM57.4935 71.4696C57.2997 71.536 57.0238 71.6082 56.6601 71.6854L56.8028 72.3584C57.1781 72.2788 57.4846 72.1999 57.7162 72.1206L57.4935 71.4696ZM56.6579 71.6858C56.0975 71.8084 55.6384 71.989 55.3198 72.2522L55.758 72.7826C55.9544 72.6203 56.2904 72.4705 56.805 72.3579L56.6579 71.6858ZM55.2926 72.2773L52.034 75.6198L52.5266 76.1001L55.7852 72.7575L55.2926 72.2773ZM52.002 76.0622L55.9325 81.4708L56.489 81.0663L52.5586 75.6577L52.002 76.0622ZM55.9587 81.5026C56.0811 81.6345 56.2577 81.7331 56.4472 81.8125L56.7133 81.1781C56.5557 81.112 56.486 81.0594 56.4628 81.0345L55.9587 81.5026ZM56.4595 81.8174C56.646 81.8874 56.8899 81.9705 57.1891 82.0664L57.3992 81.4113C57.1049 81.3169 56.8728 81.2376 56.7011 81.1732L56.4595 81.8174ZM57.1942 82.068C57.5033 82.1619 57.7249 82.2409 57.8673 82.3047L58.1487 81.6769C57.9664 81.5952 57.712 81.5062 57.3941 81.4097L57.1942 82.068ZM57.8712 82.3065C57.9041 82.3207 57.9285 82.3331 57.9461 82.3433C57.9548 82.3483 57.9612 82.3524 57.9655 82.3554C57.97 82.3585 57.9718 82.3601 57.9717 82.36C57.9716 82.3599 57.9688 82.3575 57.9644 82.3524C57.96 82.3473 57.9533 82.3388 57.9463 82.3265C57.9313 82.3006 57.916 82.2601 57.916 82.2092H58.604C58.604 82.0302 58.4998 81.9072 58.4223 81.84C58.3422 81.7707 58.243 81.7177 58.1448 81.6752L57.8712 82.3065ZM57.916 82.2092C57.916 82.2195 57.915 82.222 57.9158 82.2185C57.9166 82.2148 57.9195 82.204 57.9277 82.1897L58.525 82.531C58.586 82.4243 58.604 82.3097 58.604 82.2092H57.916ZM58.2264 82.0164H52.4818V82.7044H58.2264V82.0164ZM52.7942 82.2162C52.7871 82.2009 52.7815 82.1882 52.7771 82.1777C52.7727 82.167 52.7699 82.1598 52.7684 82.1556C52.7677 82.1535 52.7675 82.1527 52.7676 82.153C52.7676 82.1532 52.7682 82.1553 52.7691 82.1588C52.7699 82.1622 52.7713 82.1686 52.7726 82.1773C52.7738 82.1857 52.7754 82.1997 52.7754 82.2176H52.0874C52.0874 82.2925 52.1104 82.3584 52.1197 82.3846C52.133 82.4225 52.1505 82.4633 52.1695 82.5045L52.7942 82.2162ZM52.7754 82.2176C52.7754 82.2313 52.7733 82.2511 52.7653 82.2738C52.7571 82.2969 52.7448 82.3176 52.7304 82.3344C52.7027 82.3668 52.679 82.3717 52.6914 82.3676L52.4738 81.7149C52.3854 81.7443 52.2862 81.7954 52.2081 81.8866C52.1247 81.9838 52.0874 82.101 52.0874 82.2176H52.7754ZM52.7015 82.364C52.7737 82.3374 52.9103 82.3051 53.1292 82.2722L53.0271 81.5918C52.7981 81.6262 52.6043 81.6666 52.4637 81.7184L52.7015 82.364ZM53.1278 82.2724C53.4034 82.2322 53.6341 82.1833 53.8036 82.1198L53.562 81.4756C53.4627 81.5128 53.2904 81.5534 53.0285 81.5916L53.1278 82.2724ZM53.8106 82.1171C53.9263 82.0708 54.0384 81.9967 54.1202 81.8821C54.2034 81.7657 54.2368 81.6334 54.2368 81.5037H53.5488C53.5488 81.51 53.548 81.5093 53.5496 81.5038C53.5514 81.4978 53.5549 81.4899 53.5604 81.4822C53.5657 81.4747 53.5704 81.471 53.5712 81.4704C53.5717 81.4701 53.5673 81.4734 53.5551 81.4783L53.8106 82.1171ZM54.2368 81.5037C54.2368 81.3904 54.1929 81.2934 54.1609 81.2331C54.1245 81.1647 54.0761 81.0944 54.0222 81.0246L53.4778 81.4453C53.5191 81.4987 53.5421 81.5348 53.5533 81.5559C53.5587 81.5661 53.5587 81.5678 53.5569 81.5623C53.5554 81.5578 53.5488 81.5366 53.5488 81.5037H54.2368ZM54.0341 81.041L51.0191 76.6235L50.4508 77.0113L53.4659 81.4289L54.0341 81.041ZM50.735 76.4734H49.9791V77.1614H50.735V76.4734ZM49.6351 76.8174V81.3189H50.3231V76.8174H49.6351ZM49.6351 81.3189C49.6351 81.5727 49.7213 81.8136 49.9322 81.9823L50.362 81.4451C50.3489 81.4346 50.3231 81.4124 50.3231 81.3189H49.6351ZM49.9471 81.9936C50.1124 82.1116 50.3023 82.1851 50.5085 82.2206L50.6254 81.5426C50.5069 81.5222 50.4169 81.4837 50.347 81.4337L49.9471 81.9936ZM50.52 82.2224C50.6969 82.2468 50.9156 82.2642 51.1732 82.2757L51.2038 81.5884C50.9574 81.5774 50.7618 81.5613 50.614 81.5409L50.52 82.2224ZM51.1675 82.2754C51.4388 82.292 51.6075 82.3158 51.6943 82.3395L51.8753 81.6757C51.7157 81.6322 51.4869 81.6057 51.2095 81.5887L51.1675 82.2754ZM51.7085 82.3431C51.7307 82.3481 51.7063 82.3476 51.6748 82.3147C51.6582 82.2974 51.6445 82.2759 51.6357 82.2522C51.6271 82.2293 51.6255 82.2108 51.6255 82.2008H52.3135C52.3135 82.0744 52.2721 81.9439 52.1719 81.8391C52.0788 81.7418 51.9621 81.6951 51.861 81.6722L51.7085 82.3431ZM51.6255 82.2008C51.6255 82.1851 51.6267 82.1729 51.6273 82.167C51.628 82.1602 51.6288 82.1551 51.6293 82.1522C51.6298 82.1491 51.6302 82.1468 51.6304 82.1457C51.6305 82.1451 51.6306 82.1447 51.6307 82.1444C51.6307 82.1443 51.6307 82.1441 51.6307 82.1441C51.6308 82.144 51.6308 82.144 51.6308 82.144C51.6308 82.144 51.6307 82.1441 51.6307 82.1443C51.6306 82.1446 51.6306 82.1449 51.6305 82.1453C51.6303 82.1462 51.63 82.1474 51.6296 82.149C51.6288 82.1521 51.6278 82.1563 51.6264 82.1615C51.6206 82.1834 51.6112 82.2168 51.5975 82.2633L52.2576 82.4574C52.2719 82.4087 52.2835 82.368 52.2917 82.3366C52.2958 82.3212 52.2998 82.3052 52.3031 82.2901C52.3036 82.2878 52.3135 82.2465 52.3135 82.2008H51.6255ZM51.9275 82.0164H46.3006V82.7044H51.9275V82.0164ZM46.6269 82.2516C46.6177 82.2239 46.6127 82.2058 46.6102 82.1955C46.6091 82.1905 46.609 82.1896 46.6094 82.1918C46.6096 82.1935 46.611 82.2029 46.611 82.2176H45.923C45.923 82.3081 45.9527 82.4045 45.9742 82.4691L46.6269 82.2516ZM46.611 82.2176C46.611 82.2314 46.6087 82.252 46.5995 82.2758C46.5901 82.3 46.5764 82.3204 46.5618 82.3357C46.5346 82.3641 46.5163 82.3634 46.5423 82.3563L46.3612 81.6925C46.2641 81.719 46.1534 81.7673 46.0646 81.8601C45.9681 81.961 45.923 82.088 45.923 82.2176H46.611ZM46.5561 82.3522C46.6458 82.3237 46.8059 82.2929 47.0524 82.2655L46.9765 81.5817C46.7191 81.6103 46.504 81.6468 46.3475 81.6966L46.5561 82.3522ZM47.0609 82.2645C47.3118 82.2303 47.5211 82.1952 47.6854 82.1587L47.5361 81.487C47.3981 81.5177 47.2098 81.5498 46.968 81.5828L47.0609 82.2645ZM47.6854 82.1587C47.8836 82.1146 48.0642 82.0317 48.2204 81.9067L47.7906 81.3695C47.7228 81.4237 47.6402 81.4639 47.5361 81.487L47.6854 82.1587ZM48.2204 81.9067C48.4223 81.7452 48.5174 81.5187 48.5174 81.2686H47.8294C47.8294 81.332 47.8126 81.3518 47.7906 81.3695L48.2204 81.9067ZM48.5174 81.2686V72.5678H47.8294V81.2686H48.5174ZM48.5174 72.5678C48.5174 72.4025 48.4775 72.2397 48.3812 72.0965C48.2854 71.9541 48.1501 71.8554 47.9992 71.7901L47.7262 72.4216C47.7825 72.4459 47.8026 72.469 47.8103 72.4805C47.8176 72.4913 47.8294 72.5146 47.8294 72.5678H48.5174ZM47.9992 71.7901C47.7524 71.6834 47.4276 71.6051 47.04 71.5473L46.9385 72.2277C47.3012 72.2819 47.5587 72.3492 47.7262 72.4216L47.9992 71.7901ZM47.0482 71.5486C46.7933 71.5043 46.6271 71.4657 46.5353 71.4352L46.3178 72.0879C46.4612 72.1357 46.6701 72.1812 46.9303 72.2264L47.0482 71.5486ZM46.5402 71.4368C46.5166 71.4286 46.5318 71.4288 46.5551 71.4545C46.5679 71.4685 46.5809 71.4879 46.5902 71.5121C46.5995 71.5362 46.6026 71.5588 46.6026 71.5768H45.9146C45.9146 71.7035 45.9599 71.8226 46.0461 71.9173C46.1254 72.0046 46.2245 72.0553 46.3129 72.0862L46.5402 71.4368ZM46.6026 71.5768C46.6026 71.5873 46.6021 71.5959 46.6016 71.6018C46.6011 71.6079 46.6005 71.6128 46.6 71.6162C46.5991 71.6228 46.5982 71.6271 46.598 71.628C46.5976 71.6297 46.5981 71.6271 46.6005 71.6184C46.6053 71.6014 46.6137 71.574 46.6269 71.5344L45.9742 71.3168C45.9595 71.3611 45.9469 71.401 45.9376 71.4343C45.9332 71.4503 45.9146 71.5132 45.9146 71.5768H46.6026ZM46.3006 71.7696H51.8939V71.0816H46.3006V71.7696ZM51.5652 71.5268C51.5752 71.5593 51.5812 71.5813 51.5843 71.5947C51.5858 71.6013 51.5861 71.6031 51.5858 71.6012C51.5856 71.6001 51.5851 71.597 51.5846 71.5922C51.5842 71.5876 51.5835 71.5793 51.5835 71.5684H52.2715C52.2715 71.5144 52.2603 71.4637 52.254 71.4371C52.2459 71.4028 52.2351 71.3646 52.2227 71.3244L51.5652 71.5268ZM51.5835 71.5684C51.5835 71.5545 51.5859 71.5348 51.5944 71.5125C51.6029 71.49 51.6152 71.4714 51.6278 71.4577C51.651 71.4323 51.6655 71.4335 51.6385 71.4421L51.8471 72.0977C51.9433 72.0671 52.0501 72.0152 52.1349 71.9226C52.2267 71.8225 52.2715 71.6978 52.2715 71.5684H51.5835ZM51.6385 71.4421C51.5429 71.4725 51.3724 71.5086 51.1126 71.5473L51.214 72.2277C51.4805 72.1881 51.6963 72.1457 51.8471 72.0977L51.6385 71.4421ZM51.1104 71.5476C50.8533 71.5876 50.6376 71.6286 50.4668 71.6713L50.6336 72.3388C50.7763 72.3031 50.9694 72.2658 51.2162 72.2274L51.1104 71.5476ZM50.4668 71.6713C50.2681 71.721 50.0874 71.8054 49.9322 71.9296L50.362 72.4669C50.4307 72.4119 50.5187 72.3675 50.6336 72.3388L50.4668 71.6713ZM49.9322 71.9296C49.7303 72.0911 49.6351 72.3176 49.6351 72.5678H50.3231C50.3231 72.5044 50.3399 72.4845 50.362 72.4669L49.9322 71.9296ZM49.6351 72.5678V76.2631H50.3231V72.5678H49.6351ZM49.9791 76.6071H50.7014V75.9191H49.9791V76.6071ZM69.8918 73.3656L70.2139 73.4863L70.2603 73.3626L70.2119 73.2397L69.8918 73.3656ZM69.6902 72.8533L70.0104 72.7274L70.0096 72.7256L69.6902 72.8533ZM69.4803 72.3494L69.794 72.2082L69.7614 72.1359L69.7005 72.0851L69.4803 72.3494ZM68.7916 72.0387L68.6638 72.3581L68.6678 72.3596L68.7916 72.0387ZM67.9854 71.4256V71.0816H67.7728L67.6777 71.2717L67.9854 71.4256ZM73.3772 71.4256L73.7035 71.3168L73.6251 71.0816H73.3772V71.4256ZM73.4024 71.5096L73.0716 71.6041L73.0776 71.625L73.0862 71.6451L73.4024 71.5096ZM73.2428 71.8455L73.1385 71.5177L73.134 71.5192L73.2428 71.8455ZM72.6801 71.9379L72.707 72.2808L72.7099 72.2806L72.6801 71.9379ZM72.0334 72.0555L72.146 72.3807L72.1569 72.3765L72.0334 72.0555ZM72.7557 75.5324L72.4277 75.6362L72.428 75.637L72.7557 75.5324ZM74.007 79.3789L73.682 79.4914L74.0151 80.4539L74.3338 79.4865L74.007 79.3789ZM74.2422 78.665L73.916 78.5558L73.9155 78.5574L74.2422 78.665ZM75.9555 72.0303L75.8186 72.346L75.8277 72.3497L75.9555 72.0303ZM75.2164 71.8539L75.2634 71.5131L75.2591 71.5126L75.2164 71.8539ZM74.5193 71.6859L74.2173 71.8507L74.2663 71.9404L74.3562 71.9888L74.5193 71.6859ZM74.4689 71.5936L74.1395 71.4947L74.0982 71.6322L74.167 71.7583L74.4689 71.5936ZM74.5193 71.4256V71.0816H74.2634L74.1898 71.3267L74.5193 71.4256ZM78.9453 71.4592L78.7545 71.7454L78.7723 71.7573L78.7915 71.7669L78.9453 71.4592ZM79.0125 71.518H79.3565V71.4368L79.3202 71.3641L79.0125 71.518ZM78.8193 71.7195L78.9324 72.0447L78.9447 72.0399L78.8193 71.7195ZM78.1979 71.8791L78.2696 72.2155L78.2704 72.2154L78.1979 71.8791ZM77.1984 72.173L77.3287 72.4915L77.3348 72.4889L77.1984 72.173ZM76.7113 72.6434L76.3885 72.5244L76.3871 72.5283L76.7113 72.6434ZM76.5182 73.248L76.8477 73.3469L76.8483 73.3447L76.5182 73.248ZM76.3754 73.7268L76.0451 73.6296L76.0417 73.6433L76.3754 73.7268ZM76.2914 74.0291L75.9649 73.9203L75.9621 73.9297L76.2914 74.0291ZM73.7803 82.352L73.4509 82.2526L73.4508 82.2531L73.7803 82.352ZM73.2008 82.4863L73.073 82.8059L73.0832 82.8096L73.2008 82.4863ZM73.0664 82.352L73.3741 82.1981L73.3724 82.1948L73.0664 82.352ZM72.7473 81.4365L73.0799 81.3488L73.0778 81.3408L73.0753 81.3329L72.7473 81.4365ZM72.5961 80.9578L72.9242 80.8542L72.9214 80.8461L72.5961 80.9578ZM70.2109 74.0123L70.5363 73.9006L70.2129 72.959L69.886 73.8993L70.2109 74.0123ZM68.0357 80.2691L68.3594 80.3857L68.3607 80.3821L68.0357 80.2691ZM67.8258 80.9494L68.1552 81.0488L68.1565 81.0439L67.8258 80.9494ZM67.3135 82.352L67.0056 82.198L67.0011 82.2078L67.3135 82.352ZM67.1791 82.4947L67.0513 82.1753L67.0381 82.1806L67.0253 82.187L67.1791 82.4947ZM66.1797 81.277L65.8513 81.3796L65.8519 81.3813L66.1797 81.277ZM66.0957 81.0082L66.424 80.9056L66.4213 80.8967L66.418 80.8879L66.0957 81.0082ZM64.9451 77.926L64.6222 78.0447L64.6228 78.0463L64.9451 77.926ZM63.0555 72.8869L63.3768 72.764L63.3759 72.7619L63.0555 72.8869ZM62.6607 72.3746L62.4633 72.6566L62.4743 72.6637L62.6607 72.3746ZM61.9805 72.0387L62.1006 71.7163L62.0994 71.7159L61.9805 72.0387ZM61.1826 71.6104L60.8548 71.506L60.7913 71.7056L60.9394 71.8536L61.1826 71.6104ZM61.2414 71.4256V71.0816H60.9899L60.9136 71.3213L61.2414 71.4256ZM66.6416 71.4256L66.968 71.3168L66.8895 71.0816H66.6416V71.4256ZM66.6668 71.5096L66.336 71.6041L66.3381 71.6113L66.3405 71.6184L66.6668 71.5096ZM66.5156 71.8287L66.6346 72.1516L66.6434 72.1481L66.5156 71.8287ZM66.0285 71.9295L66.0712 72.2708L66.0723 72.2707L66.0285 71.9295ZM65.407 72.0807L65.5456 72.3956L65.5512 72.393L65.407 72.0807ZM66.0957 75.1041L65.7712 75.2183L65.7716 75.2193L66.0957 75.1041ZM67.6326 79.3957L67.3092 79.5129L67.6272 80.3906L67.9548 79.5164L67.6326 79.3957ZM70.2119 73.2397L70.0104 72.7274L69.3701 72.9793L69.5717 73.4916L70.2119 73.2397ZM70.0096 72.7256C69.9196 72.5005 69.8475 72.3271 69.794 72.2082L69.1666 72.4906C69.2139 72.5957 69.2817 72.7582 69.3708 72.9811L70.0096 72.7256ZM69.7005 72.0851C69.6253 72.0224 69.5078 71.9652 69.3992 71.9162C69.276 71.8606 69.114 71.7943 68.9154 71.7177L68.6678 72.3596C68.8612 72.4342 69.0098 72.4953 69.1162 72.5433C69.2372 72.5979 69.2681 72.6204 69.2601 72.6137L69.7005 72.0851ZM68.9194 71.7193C68.6119 71.5963 68.3975 71.5066 68.2715 71.4488L67.9848 72.0742C68.1275 72.1396 68.3555 72.2347 68.6638 72.3581L68.9194 71.7193ZM68.2715 71.4488C68.2456 71.4369 68.2266 71.427 68.2133 71.4192C68.1995 71.4112 68.1954 71.4076 68.1972 71.4091C68.1981 71.4098 68.2134 71.4223 68.23 71.4487C68.2477 71.4768 68.2706 71.5267 68.2706 71.5936H67.5826C67.5826 71.7757 67.6998 71.8902 67.7567 71.9376C67.8243 71.9939 67.9062 72.0382 67.9848 72.0742L68.2715 71.4488ZM68.2706 71.5936C68.2706 71.6124 68.2689 71.627 68.2678 71.635C68.2666 71.6437 68.2653 71.6503 68.2645 71.6541C68.263 71.6612 68.2618 71.6648 68.2624 71.663C68.2634 71.6595 68.2667 71.6494 68.2739 71.6304L67.6297 71.3888C67.62 71.4145 67.6107 71.4408 67.6034 71.4653C67.6002 71.4759 67.5826 71.5309 67.5826 71.5936H68.2706ZM68.2739 71.6304C68.2818 71.6091 68.2879 71.5935 68.2922 71.5827C68.2943 71.5774 68.2956 71.5742 68.2963 71.5726C68.2973 71.5703 68.296 71.5735 68.293 71.5794L67.6777 71.2717C67.6622 71.3026 67.6443 71.3498 67.6297 71.3888L68.2739 71.6304ZM67.9854 71.7696H73.3772V71.0816H67.9854V71.7696ZM73.0508 71.5344C73.0538 71.5434 73.0605 71.5651 73.0716 71.6041L73.7331 71.4151C73.7218 71.3756 73.7117 71.3413 73.7035 71.3168L73.0508 71.5344ZM73.0862 71.6451C73.0915 71.6576 73.0926 71.6615 73.0918 71.6588C73.0913 71.6572 73.0896 71.6514 73.0879 71.6423C73.0863 71.6338 73.0835 71.6166 73.0835 71.5936H73.7715C73.7715 71.4976 73.7337 71.4095 73.7185 71.3741L73.0862 71.6451ZM73.0835 71.5936C73.0835 71.6024 73.0821 71.5795 73.104 71.5497C73.1257 71.52 73.1476 71.5148 73.1385 71.5177L73.3471 72.1733C73.4611 72.137 73.5754 72.0702 73.6588 71.9566C73.7422 71.8428 73.7715 71.7135 73.7715 71.5936H73.0835ZM73.134 71.5192C73.057 71.5448 72.9034 71.5732 72.6503 71.5952L72.7099 72.2806C72.9719 72.2578 73.1934 72.2246 73.3516 72.1719L73.134 71.5192ZM72.6532 71.5949C72.3573 71.6182 72.1023 71.6604 71.9099 71.7344L72.1569 72.3765C72.2557 72.3385 72.4318 72.3024 72.707 72.2808L72.6532 71.5949ZM71.9209 71.7304C71.7899 71.7757 71.6684 71.8568 71.5834 71.9843C71.5001 72.1093 71.471 72.25 71.471 72.383H72.159C72.159 72.3656 72.161 72.3572 72.1614 72.3554C72.1617 72.3542 72.1606 72.3588 72.1559 72.366C72.1536 72.3694 72.151 72.3726 72.1481 72.3756C72.1453 72.3785 72.1427 72.3806 72.1408 72.382C72.137 72.3849 72.1375 72.3835 72.1459 72.3805L71.9209 71.7304ZM71.471 72.383C71.471 72.4422 71.4858 72.5089 71.494 72.5458C71.5054 72.5965 71.5215 72.6602 71.5416 72.7352C71.582 72.8857 71.6419 73.0935 71.7206 73.357C71.8782 73.8846 72.114 74.6447 72.4277 75.6362L73.0836 75.4287C72.7703 74.4381 72.5358 73.6823 72.3798 73.1601C72.3017 72.8987 72.244 72.6981 72.2061 72.5568C72.187 72.4858 72.1737 72.4327 72.1655 72.3957C72.1541 72.345 72.159 72.3532 72.159 72.383H71.471ZM72.428 75.637C73.0603 77.6181 73.4788 78.9044 73.682 79.4914L74.3321 79.2664C74.1322 78.6888 73.7164 77.4109 73.0834 75.4278L72.428 75.637ZM74.3338 79.4865L74.5689 78.7727L73.9155 78.5574L73.6803 79.2713L74.3338 79.4865ZM74.5684 78.7742C75.2237 76.8168 75.7158 75.313 76.0444 74.2642C76.2086 73.7401 76.3327 73.3271 76.4161 73.0267C76.4577 72.8768 76.49 72.7518 76.5123 72.6535C76.5318 72.5671 76.5514 72.469 76.5514 72.3914H75.8634C75.8634 72.381 75.8626 72.4071 75.8412 72.5018C75.8225 72.5846 75.7934 72.6976 75.7531 72.8427C75.6727 73.1323 75.5512 73.537 75.3878 74.0585C75.0613 75.1009 74.5709 76.5996 73.916 78.5558L74.5684 78.7742ZM76.5514 72.3914C76.5514 72.2474 76.5158 72.102 76.4266 71.9741C76.3381 71.8473 76.215 71.7636 76.0832 71.7109L75.8277 72.3497C75.8639 72.3642 75.8668 72.3742 75.8623 72.3678C75.8607 72.3654 75.8604 72.364 75.8609 72.3657C75.8615 72.3679 75.8634 72.3757 75.8634 72.3914H76.5514ZM76.0923 71.7146C75.8815 71.6233 75.5988 71.5594 75.2634 71.5131L75.1694 72.1947C75.4835 72.238 75.6935 72.2917 75.8187 72.3459L76.0923 71.7146ZM75.2591 71.5126C75.1346 71.497 75.0132 71.4763 74.8948 71.4506L74.7486 72.1229C74.8877 72.1531 75.0294 72.1772 75.1737 72.1952L75.2591 71.5126ZM74.8948 71.4506C74.7811 71.4259 74.7153 71.4007 74.6824 71.3831L74.3562 71.9888C74.469 72.0495 74.6047 72.0916 74.7486 72.1229L74.8948 71.4506ZM74.8213 71.5212L74.771 71.4288L74.167 71.7583L74.2173 71.8507L74.8213 71.5212ZM74.7984 71.6924L74.8488 71.5244L74.1898 71.3267L74.1395 71.4947L74.7984 71.6924ZM74.5193 71.7696H78.8613V71.0816H74.5193V71.7696ZM78.8613 71.7696C78.8165 71.7696 78.7848 71.7587 78.7714 71.7534C78.7573 71.7477 78.7513 71.7433 78.7545 71.7454L79.1361 71.173C79.0854 71.1391 78.9871 71.0816 78.8613 71.0816V71.7696ZM78.7915 71.7669C78.7901 71.7662 78.7399 71.7419 78.7048 71.6718L79.3202 71.3641C79.2628 71.2493 79.1677 71.1858 79.0992 71.1515L78.7915 71.7669ZM78.6685 71.518C78.6685 71.4937 78.6734 71.4677 78.6839 71.443C78.6942 71.4189 78.707 71.4026 78.7159 71.3933C78.7308 71.3777 78.7325 71.3841 78.694 71.3992L78.9447 72.0399C79.11 71.9752 79.3565 71.8238 79.3565 71.518H78.6685ZM78.7063 71.3946C78.5987 71.4321 78.409 71.4817 78.1253 71.5428L78.2704 72.2154C78.5578 72.1534 78.7824 72.0966 78.9324 72.0444L78.7063 71.3946ZM78.1261 71.5427C77.6955 71.6345 77.3378 71.7382 77.0621 71.8572L77.3348 72.4889C77.5518 72.3952 77.8604 72.3028 78.2696 72.2155L78.1261 71.5427ZM77.0682 71.8547C76.7495 71.985 76.5061 72.2052 76.3885 72.5244L77.0341 72.7623C77.0733 72.656 77.1547 72.5626 77.3287 72.4914L77.0682 71.8547ZM76.3871 72.5283C76.3229 72.7094 76.2565 72.9174 76.188 73.1514L76.8483 73.3447C76.9142 73.1196 76.9766 72.9244 77.0355 72.7584L76.3871 72.5283ZM76.1887 73.1492C76.1215 73.3732 76.0737 73.5335 76.0454 73.6297L76.7054 73.8238C76.7331 73.7296 76.7805 73.5708 76.8477 73.3469L76.1887 73.1492ZM76.0417 73.6433C76.0086 73.7756 75.9832 73.866 75.9651 73.9203L76.6178 74.1379C76.6444 74.0578 76.675 73.9467 76.7091 73.8102L76.0417 73.6433ZM75.9621 73.9297L73.4509 82.2526L74.1096 82.4513L76.6208 74.1285L75.9621 73.9297ZM73.4508 82.2531C73.4565 82.2342 73.4674 82.2134 73.4836 82.1953C73.4993 82.1779 73.5137 82.1699 73.519 82.1673C73.5235 82.1652 73.5199 82.1677 73.5035 82.1706C73.4873 82.1734 73.4626 82.1759 73.4275 82.1759V82.8639C73.5542 82.8639 73.6914 82.8473 73.8148 82.7885C73.9502 82.724 74.0617 82.611 74.1098 82.4508L73.4508 82.2531ZM73.4275 82.1759C73.3643 82.1759 73.3312 82.1677 73.3183 82.163L73.0832 82.8096C73.1935 82.8497 73.3116 82.8639 73.4275 82.8639V82.1759ZM73.3285 82.1669C73.346 82.1739 73.3596 82.1838 73.3684 82.1927C73.3765 82.2008 73.3773 82.2046 73.3741 82.1981L72.7587 82.5058C72.8204 82.6291 72.9209 82.7449 73.073 82.8057L73.3285 82.1669ZM73.3724 82.1948C73.283 82.0206 73.1841 81.7435 73.0799 81.3488L72.4147 81.5243C72.5232 81.9358 72.6371 82.269 72.7604 82.5091L73.3724 82.1948ZM73.0753 81.3329L72.9241 80.8542L72.2681 81.0614L72.4192 81.5401L73.0753 81.3329ZM72.9214 80.8461L70.5363 73.9006L69.8856 74.124L72.2708 81.0695L72.9214 80.8461ZM69.886 73.8993L67.7108 80.1562L68.3607 80.3821L70.5359 74.1253L69.886 73.8993ZM67.7121 80.1526C67.6575 80.3043 67.5848 80.5405 67.495 80.8549L68.1565 81.0439C68.2459 80.7312 68.3132 80.514 68.3594 80.3857L67.7121 80.1526ZM67.4964 80.8501C67.3908 81.2005 67.3032 81.4709 67.2335 81.664L67.8806 81.8977C67.9564 81.6877 68.048 81.4038 68.1551 81.0487L67.4964 80.8501ZM67.2335 81.664C67.1649 81.8538 67.089 82.0318 67.0058 82.1981L67.6212 82.5058C67.7172 82.3138 67.8036 82.111 67.8806 81.8977L67.2335 81.664ZM67.0011 82.2078C66.9965 82.2179 66.9962 82.215 67.0042 82.2065C67.0132 82.1969 67.029 82.1843 67.0513 82.1753L67.3069 82.8141C67.4685 82.7495 67.5678 82.6218 67.6258 82.4961L67.0011 82.2078ZM67.0253 82.187C67.03 82.1847 67.0286 82.1863 67.0176 82.1884C67.0065 82.1905 66.9881 82.1927 66.9607 82.1927V82.8807C67.0823 82.8807 67.2131 82.8623 67.3329 82.8024L67.0253 82.187ZM66.9607 82.1927C66.9599 82.1927 66.9599 82.1927 66.9605 82.1928C66.961 82.1929 66.9613 82.193 66.9612 82.1929C66.9611 82.1929 66.9599 82.1924 66.9576 82.191C66.9552 82.1896 66.9514 82.1872 66.9464 82.183C66.9243 82.1648 66.8858 82.1215 66.8401 82.0301L66.2247 82.3378C66.3645 82.6173 66.5977 82.8807 66.9607 82.8807V82.1927ZM66.8401 82.0301C66.7333 81.8165 66.6219 81.5324 66.5075 81.1727L65.8519 81.3813C65.9726 81.7606 66.0964 82.0811 66.2247 82.3378L66.8401 82.0301ZM66.508 81.1743L66.424 80.9056L65.7674 81.1108L65.8513 81.3796L66.508 81.1743ZM66.418 80.8879L65.2674 77.8057L64.6228 78.0463L65.7734 81.1285L66.418 80.8879ZM65.268 77.8073C64.646 76.115 64.0156 74.4339 63.3768 72.764L62.7342 73.0098C63.3719 74.6769 64.0013 76.3552 64.6222 78.0447L65.268 77.8073ZM63.3759 72.7619C63.2653 72.4782 63.0926 72.2439 62.8472 72.0855L62.4743 72.6637C62.576 72.7293 62.6665 72.8365 62.735 73.012L63.3759 72.7619ZM62.858 72.0928C62.6576 71.9525 62.4016 71.8285 62.1006 71.7163L61.8604 72.361C62.1305 72.4616 62.3279 72.5616 62.4635 72.6564L62.858 72.0928ZM62.0994 71.7159C61.8907 71.639 61.7422 71.5769 61.6472 71.5294L61.3395 72.1448C61.4685 72.2093 61.6448 72.2816 61.8615 72.3615L62.0994 71.7159ZM61.6472 71.5294C61.5707 71.4912 61.4969 71.4381 61.4259 71.3671L60.9394 71.8536C61.0587 71.973 61.1921 72.0711 61.3395 72.1448L61.6472 71.5294ZM61.5104 71.7147L61.5692 71.5299L60.9136 71.3213L60.8548 71.506L61.5104 71.7147ZM61.2414 71.7696H66.6416V71.0816H61.2414V71.7696ZM66.3153 71.5344C66.3183 71.5434 66.3249 71.5651 66.336 71.6041L66.9976 71.4151C66.9863 71.3756 66.9761 71.3413 66.968 71.3168L66.3153 71.5344ZM66.3405 71.6184C66.3426 71.6247 66.3426 71.6261 66.3421 71.6232C66.3416 71.6207 66.3396 71.6102 66.3396 71.5936H67.0276C67.0276 71.5191 67.0101 71.4516 66.9931 71.4008L66.3405 71.6184ZM66.3396 71.5936C66.3396 71.5928 66.3397 71.5857 66.3431 71.5742C66.3466 71.5622 66.3527 71.549 66.3617 71.5364C66.3805 71.51 66.3981 71.5052 66.3879 71.5093L66.6434 72.1481C66.7451 72.1074 66.8467 72.0411 66.9215 71.9363C66.9977 71.8297 67.0276 71.7092 67.0276 71.5936H66.3396ZM66.3967 71.5059C66.3278 71.5313 66.1967 71.5611 65.9848 71.5883L66.0723 72.2707C66.2971 72.2419 66.4907 72.2045 66.6346 72.1515L66.3967 71.5059ZM65.9859 71.5881C65.7026 71.6235 65.4552 71.6796 65.2629 71.7683L65.5512 72.393C65.65 72.3474 65.8169 72.3026 66.0712 72.2708L65.9859 71.5881ZM65.2685 71.7658C65.141 71.8219 65.0298 71.9116 64.954 72.0391C64.8798 72.1636 64.8531 72.3011 64.8531 72.4334H65.5411C65.5411 72.3922 65.5493 72.384 65.5452 72.391C65.5432 72.3942 65.5406 72.3972 65.5385 72.399C65.5366 72.4006 65.538 72.3989 65.5456 72.3955L65.2685 71.7658ZM64.8531 72.4334C64.8531 72.4771 64.8613 72.5158 64.8638 72.5277C64.8679 72.5476 64.8732 72.5687 64.8787 72.5893C64.8898 72.631 64.9054 72.6838 64.9246 72.746C64.9633 72.8712 65.0205 73.0462 65.0957 73.2696C65.2462 73.717 65.4715 74.3669 65.7712 75.2183L66.4202 74.9899C66.1208 74.1393 65.8968 73.493 65.7478 73.0502C65.6732 72.8284 65.6181 72.6598 65.5819 72.5428C65.5637 72.4839 65.5512 72.4411 65.5435 72.4124C65.5397 72.3978 65.5379 72.3901 65.5374 72.3875C65.5352 72.3769 65.5411 72.3995 65.5411 72.4334H64.8531ZM65.7716 75.2193C66.3764 76.9217 66.8889 78.353 67.3092 79.5129L67.956 79.2785C67.5365 78.1204 67.0244 76.6906 66.4199 74.9889L65.7716 75.2193ZM67.9548 79.5164L70.2139 73.4863L69.5697 73.2449L67.3105 79.275L67.9548 79.5164ZM80.8098 77.8924V77.5484H80.576L80.4899 77.7658L80.8098 77.8924ZM80.6502 78.2955L80.3303 78.1689L80.3291 78.172L80.6502 78.2955ZM80.0539 79.9164L80.3789 80.0291L80.3794 80.0278L80.0539 79.9164ZM80.0539 81.3861L79.8259 81.6438L79.8308 81.648L80.0539 81.3861ZM80.5662 81.6717L80.4603 81.999L80.4631 81.9999L80.5662 81.6717ZM81.2801 81.848L81.351 81.5114L81.3475 81.5107L81.2801 81.848ZM81.4397 81.8816H81.7837V81.6025L81.5105 81.545L81.4397 81.8816ZM81.4397 82.3604V82.7044H81.7837V82.3604H81.4397ZM77.4756 82.3604H77.1316V82.7044H77.4756V82.3604ZM77.4756 81.9236L77.2631 81.6531L77.1316 81.7564V81.9236H77.4756ZM77.7107 81.7725L77.8646 82.0802L77.8726 82.076L77.7107 81.7725ZM78.0215 81.6297L77.8937 81.3103L77.8912 81.3113L78.0215 81.6297ZM78.4918 81.3861L78.298 81.1018L78.2919 81.1062L78.4918 81.3861ZM78.8193 80.9914L79.1232 81.1528L79.127 81.1452L78.8193 80.9914ZM78.9873 80.6135L78.6704 80.4794L78.6679 80.4857L78.9873 80.6135ZM79.1049 80.3279L78.7841 80.2037L78.7828 80.2071L79.1049 80.3279ZM79.2057 80.0676L78.8852 79.9425L78.8849 79.9434L79.2057 80.0676ZM82.3467 72.0219L82.6672 72.147L82.67 72.1394L82.3467 72.0219ZM82.3971 71.7027L82.7402 71.7282L82.7406 71.7199L82.3971 71.7027ZM82.4223 71.434L82.0871 71.3566L82.0847 71.367L82.0829 71.3774L82.4223 71.434ZM82.5062 71.2408V70.8968H82.3271L82.2244 71.0435L82.5062 71.2408ZM83.2117 71.3248L83.1172 71.6556L83.1197 71.6563L83.2117 71.3248ZM83.8164 71.6355L84.1339 71.5032L84.0978 71.4166L84.0228 71.3603L83.8164 71.6355ZM87.6713 80.8822L87.3538 81.0146L87.3541 81.0153L87.6713 80.8822ZM87.9232 81.3021L87.6668 81.5316L87.6731 81.5383L87.9232 81.3021ZM88.2172 81.5373L88.0501 81.838L88.0599 81.8434L88.0699 81.8482L88.2172 81.5373ZM88.6455 81.7221L88.516 82.0408L88.5263 82.0449L88.5367 82.0484L88.6455 81.7221ZM89.1242 81.9236L89.468 81.9369L89.4765 81.7152L89.2781 81.6159L89.1242 81.9236ZM89.1074 82.3604V82.7044H89.4384L89.4512 82.3736L89.1074 82.3604ZM84.2195 82.3604L83.8758 82.3736L83.8885 82.7044H84.2195V82.3604ZM84.2027 81.9236L84.1045 81.5939L83.8487 81.6701L83.859 81.9369L84.2027 81.9236ZM84.8746 81.6885L84.7436 81.3704L84.7403 81.3718L84.8746 81.6885ZM84.7738 78.3543L85.0944 78.2295L85.0932 78.2265L84.7738 78.3543ZM84.673 78.1107L84.3491 78.2264L84.3527 78.2365L84.3569 78.2463L84.673 78.1107ZM84.5975 77.8924L84.9238 77.7836L84.8454 77.5484H84.5975V77.8924ZM82.6322 73.0213L82.9516 72.8934L82.6204 72.0663L82.3098 72.9014L82.6322 73.0213ZM81.0953 77.1533L80.7729 77.0334L80.6003 77.4973H81.0953V77.1533ZM84.2867 77.1533V77.4973H84.795L84.6061 77.0254L84.2867 77.1533ZM80.4899 77.7658L80.3303 78.1689L80.97 78.4221L81.1296 78.019L80.4899 77.7658ZM80.3291 78.172C80.0764 78.8292 79.8759 79.3739 79.7284 79.8051L80.3794 80.0278C80.523 79.6079 80.7201 79.072 80.9713 78.419L80.3291 78.172ZM79.7289 79.8037C79.5802 80.2326 79.4915 80.6017 79.4915 80.8906H80.1796C80.1796 80.7204 80.2365 80.4401 80.3789 80.0291L79.7289 79.8037ZM79.4915 80.8906C79.4915 81.1866 79.6035 81.447 79.826 81.6438L80.2818 81.1285C80.2131 81.0677 80.1796 80.9978 80.1796 80.8906H79.4915ZM79.8308 81.648C80.0167 81.8063 80.2273 81.9236 80.4603 81.999L80.6721 81.3444C80.5244 81.2966 80.3935 81.2235 80.277 81.1243L79.8308 81.648ZM80.4631 81.9999C80.6743 82.0662 80.9249 82.1278 81.2126 82.1854L81.3475 81.5107C81.0754 81.4563 80.8501 81.4003 80.6693 81.3435L80.4631 81.9999ZM81.2092 82.1847L81.3688 82.2183L81.5105 81.545L81.3509 81.5114L81.2092 82.1847ZM81.0956 81.8816V82.3604H81.7837V81.8816H81.0956ZM81.4397 82.0164H77.4756V82.7044H81.4397V82.0164ZM77.8196 82.3604V81.9236H77.1316V82.3604H77.8196ZM77.6881 82.1941C77.7507 82.145 77.8096 82.1076 77.8646 82.0801L77.5569 81.4648C77.4551 81.5157 77.3573 81.5791 77.2631 81.6531L77.6881 82.1941ZM77.8726 82.076C77.9432 82.0384 78.0355 81.9956 78.1517 81.9481L77.8912 81.3113C77.7612 81.3645 77.6463 81.417 77.5489 81.4689L77.8726 82.076ZM78.1492 81.9491C78.3602 81.8647 78.5441 81.7715 78.6917 81.6661L78.2919 81.1062C78.2044 81.1687 78.0747 81.2379 77.8937 81.3103L78.1492 81.9491ZM78.6856 81.6704C78.8684 81.5457 79.0108 81.3643 79.1231 81.1528L78.5155 80.83C78.4375 80.9769 78.3615 81.0586 78.298 81.1019L78.6856 81.6704ZM79.127 81.1452C79.188 81.0232 79.2479 80.8883 79.3067 80.7412L78.6679 80.4857C78.6148 80.6186 78.5626 80.7356 78.5117 80.8376L79.127 81.1452ZM79.3041 80.7475C79.365 80.6035 79.4072 80.5015 79.427 80.4487L78.7828 80.2071C78.769 80.244 78.7327 80.3323 78.6705 80.4794L79.3041 80.7475ZM79.4257 80.4521L79.5265 80.1918L78.8849 79.9434L78.7841 80.2037L79.4257 80.4521ZM79.5261 80.1927L82.6671 72.147L82.0262 71.8968L78.8852 79.9425L79.5261 80.1927ZM82.67 72.1394C82.7101 72.0291 82.7288 71.8805 82.7401 71.7281L82.054 71.6773C82.0489 71.7469 82.0427 71.8013 82.0363 71.8422C82.0331 71.8625 82.03 71.8779 82.0274 71.8891C82.0247 71.9007 82.0231 71.9051 82.0234 71.9043L82.67 72.1394ZM82.7406 71.7199C82.7459 71.6139 82.7535 71.5391 82.7616 71.4905L82.0829 71.3774C82.0686 71.4633 82.0594 71.5676 82.0535 71.6856L82.7406 71.7199ZM82.7575 71.5113C82.7653 71.4776 82.7765 71.4547 82.7881 71.4381L82.2244 71.0435C82.1577 71.1389 82.1129 71.2448 82.0871 71.3566L82.7575 71.5113ZM82.5062 71.5848C82.7589 71.5848 82.9605 71.6108 83.1172 71.6556L83.3062 70.994C83.071 70.9268 82.8023 70.8968 82.5062 70.8968V71.5848ZM83.1197 71.6563C83.2724 71.6987 83.4359 71.7802 83.61 71.9107L84.0228 71.3603C83.7938 71.1886 83.5541 71.0629 83.3038 70.9934L83.1197 71.6563ZM83.4989 71.7679L87.3538 81.0146L87.9888 80.7499L84.1339 71.5032L83.4989 71.7679ZM87.3541 81.0153C87.4372 81.2135 87.5395 81.3892 87.6669 81.5315L88.1796 81.0728C88.1166 81.0023 88.051 80.8981 87.9885 80.7492L87.3541 81.0153ZM87.6731 81.5383C87.7878 81.6597 87.913 81.7618 88.0501 81.838L88.3843 81.2366C88.3198 81.2008 88.249 81.1461 88.1733 81.0659L87.6731 81.5383ZM88.0699 81.8482C88.1847 81.9025 88.3341 81.9669 88.516 82.0408L88.775 81.4034C88.5985 81.3317 88.4625 81.2729 88.3644 81.2264L88.0699 81.8482ZM88.5367 82.0484C88.67 82.0928 88.8145 82.1534 88.9704 82.2313L89.2781 81.6159C89.098 81.5259 88.9233 81.4521 88.7543 81.3957L88.5367 82.0484ZM88.7805 81.9104L88.7637 82.3471L89.4512 82.3736L89.468 81.9369L88.7805 81.9104ZM89.1074 82.0164H84.2195V82.7044H89.1074V82.0164ZM84.5633 82.3471L84.5465 81.9104L83.859 81.9369L83.8758 82.3736L84.5633 82.3471ZM84.3009 82.2533C84.5723 82.1725 84.809 82.09 85.009 82.0052L84.7403 81.3718C84.5707 81.4437 84.3595 81.518 84.1045 81.5939L84.3009 82.2533ZM85.0056 82.0066C85.2339 81.9126 85.4394 81.7811 85.6206 81.6134L85.1532 81.1085C85.0321 81.2207 84.8961 81.3076 84.7436 81.3704L85.0056 82.0066ZM85.6206 81.6134C85.8404 81.4099 85.9577 81.1484 85.9577 80.8486H85.2697C85.2697 80.952 85.2358 81.032 85.1532 81.1085L85.6206 81.6134ZM85.9577 80.8486C85.9577 80.7429 85.9285 80.6098 85.8937 80.4786C85.856 80.3364 85.8009 80.1586 85.7297 79.9473C85.5873 79.5242 85.3751 78.9509 85.0944 78.2296L84.4532 78.479C84.7325 79.1967 84.9402 79.7585 85.0777 80.1669C85.1465 80.3713 85.1964 80.5333 85.2287 80.655C85.2448 80.7158 85.2557 80.7634 85.2624 80.7991C85.2695 80.8377 85.2697 80.8514 85.2697 80.8486H85.9577ZM85.0932 78.2265C85.0587 78.1401 85.024 78.0563 84.9892 77.9752L84.3569 78.2463C84.3893 78.3219 84.4218 78.4005 84.4544 78.4821L85.0932 78.2265ZM84.997 77.995C84.9697 77.9186 84.9453 77.8481 84.9238 77.7836L84.2711 78.0012C84.2944 78.071 84.3204 78.1461 84.3491 78.2264L84.997 77.995ZM84.5975 77.5484H80.8098V78.2364H84.5975V77.5484ZM82.3098 72.9014L80.7729 77.0334L81.4177 77.2732L82.9547 73.1412L82.3098 72.9014ZM81.0953 77.4973H84.2867V76.8093H81.0953V77.4973ZM84.6061 77.0254L82.9516 72.8934L82.3129 73.1492L83.9674 77.2812L84.6061 77.0254ZM91.4422 72.6854L91.1167 72.7967L91.1176 72.7994L91.4422 72.6854ZM90.4428 72.0555L90.3687 72.3915L90.3765 72.393L90.4428 72.0555ZM89.6197 71.8539L89.276 71.8404L89.2655 72.1068L89.5209 72.1834L89.6197 71.8539ZM89.6365 71.4256V71.0816H89.3058L89.2928 71.4121L89.6365 71.4256ZM95.3139 71.4256H95.6579V71.0816H95.3139V71.4256ZM95.3139 71.8623L95.4454 72.1802L95.6579 72.0922V71.8623H95.3139ZM94.8772 72.0135L94.9502 72.3496L94.9571 72.3481L94.964 72.3463L94.8772 72.0135ZM94.3648 72.1143L94.4214 72.4536L94.4272 72.4526L94.3648 72.1143ZM93.7686 72.2822L93.9171 72.5927L93.9277 72.5872L93.7686 72.2822ZM93.4662 72.677L93.1426 72.5601L93.1399 72.5682L93.4662 72.677ZM93.5586 81.151L93.2495 81.3022L93.2536 81.3101L93.5586 81.151ZM97.8586 81.5037L97.9789 81.826L97.9812 81.8251L97.8586 81.5037ZM98.8748 80.5379L99.1797 80.6974L99.1825 80.6917L98.8748 80.5379ZM99.0008 80.2859L99.3085 80.4398L99.3103 80.436L99.0008 80.2859ZM99.2443 79.824L99.5406 79.9991L99.5438 79.9933L99.2443 79.824ZM99.4963 79.4713L99.5078 79.1275L99.3471 79.1221L99.2399 79.2419L99.4963 79.4713ZM100 79.4881L100.339 79.5485L100.409 79.1575L100.012 79.1443L100 79.4881ZM99.4711 82.4527L99.443 82.7956L99.7548 82.8212L99.8097 82.5132L99.4711 82.4527ZM89.6281 82.3604L89.2844 82.3731L89.2966 82.7044H89.6281V82.3604ZM89.6113 81.9068L89.5025 81.5805L89.258 81.662L89.2676 81.9196L89.6113 81.9068ZM90.1488 81.7473L90.0613 81.4145L90.0543 81.4165L90.1488 81.7473ZM90.9047 81.5037L91.0391 81.8205L91.047 81.8169L90.9047 81.5037ZM91.3666 81.109L91.6501 81.3039L91.6528 81.2998L91.3666 81.109ZM91.8954 73.6764C91.8954 73.2163 91.8599 72.8366 91.7667 72.5713L91.1176 72.7994C91.17 72.9484 91.2074 73.2294 91.2074 73.6764H91.8954ZM91.7677 72.574C91.6785 72.3132 91.5282 72.08 91.2818 71.9518L90.9643 72.5622C90.9979 72.5797 91.0604 72.632 91.1167 72.7967L91.7677 72.574ZM91.2818 71.9518C91.0961 71.8553 90.8289 71.7807 90.5091 71.7179L90.3765 72.393C90.6837 72.4534 90.8701 72.5132 90.9643 72.5622L91.2818 71.9518ZM90.5169 71.7195C90.1369 71.6357 89.8734 71.5708 89.7186 71.5244L89.5209 72.1834C89.702 72.2377 89.9871 72.3072 90.3687 72.3914L90.5169 71.7195ZM89.9635 71.8674L89.9803 71.4391L89.2928 71.4121L89.276 71.8404L89.9635 71.8674ZM89.6365 71.7696H95.3139V71.0816H89.6365V71.7696ZM94.9699 71.4256V71.8623H95.6579V71.4256H94.9699ZM95.1823 71.5444C95.0302 71.6074 94.8999 71.652 94.7903 71.6806L94.964 72.3463C95.1119 72.3077 95.2728 72.2516 95.4454 72.1802L95.1823 71.5444ZM94.8041 71.6773C94.6804 71.7042 94.5136 71.7371 94.3025 71.7759L94.4272 72.4526C94.6416 72.4131 94.8164 72.3787 94.9502 72.3496L94.8041 71.6773ZM94.3083 71.7749C94.0293 71.8214 93.7873 71.8845 93.6094 71.9772L93.9277 72.5872C94.0074 72.5456 94.1629 72.4967 94.4214 72.4536L94.3083 71.7749ZM93.6201 71.9719C93.3769 72.0882 93.231 72.3156 93.1427 72.5601L93.7898 72.7938C93.847 72.6352 93.9027 72.5994 93.917 72.5926L93.6201 71.9719ZM93.1399 72.5682C93.0543 72.825 93.0214 73.1878 93.0214 73.626H93.7094C93.7094 73.2019 93.7438 72.9321 93.7926 72.7857L93.1399 72.5682ZM93.0214 73.626V79.74H93.7094V73.626H93.0214ZM93.0214 79.74C93.0214 80.4184 93.0826 80.961 93.2496 81.3022L93.8676 80.9998C93.777 80.8147 93.7094 80.4166 93.7094 79.74H93.0214ZM93.2536 81.3101C93.45 81.6864 93.8068 81.8957 94.2436 81.9764L94.3685 81.2998C94.0775 81.2461 93.936 81.1306 93.8636 80.9919L93.2536 81.3101ZM94.2436 81.9764C94.6425 82.05 95.3384 82.0829 96.3049 82.0829V81.3949C95.3342 81.3949 94.6975 81.3605 94.3685 81.2998L94.2436 81.9764ZM96.3049 82.0829C96.9476 82.0829 97.5091 82.0014 97.9789 81.826L97.7383 81.1814C97.3683 81.3196 96.894 81.3949 96.3049 81.3949V82.0829ZM97.9812 81.8251C98.4998 81.6272 98.8966 81.2381 99.1796 80.6974L98.57 80.3784C98.3491 80.8007 98.0684 81.0555 97.736 81.1823L97.9812 81.8251ZM99.1825 80.6917L99.3085 80.4398L98.6931 80.1321L98.5671 80.384L99.1825 80.6917ZM99.3103 80.436C99.3974 80.2564 99.4741 80.1114 99.5405 79.999L98.9482 79.649C98.869 79.783 98.7833 79.9459 98.6912 80.1359L99.3103 80.436ZM99.5438 79.9933C99.6049 79.8853 99.6746 79.788 99.7527 79.7007L99.2399 79.2419C99.1277 79.3674 99.0294 79.5052 98.9449 79.6548L99.5438 79.9933ZM99.4848 79.8151L99.9887 79.8319L100.012 79.1443L99.5078 79.1275L99.4848 79.8151ZM99.6616 79.4276L99.1324 82.3923L99.8097 82.5132L100.339 79.5485L99.6616 79.4276ZM99.4992 82.1099C98.7443 82.0479 98.1209 82.0164 97.6318 82.0164V82.7044C98.0946 82.7044 98.6974 82.7344 99.443 82.7956L99.4992 82.1099ZM97.6318 82.0164H89.6281V82.7044H97.6318V82.0164ZM89.9719 82.3476L89.9551 81.8941L89.2676 81.9196L89.2844 82.3731L89.9719 82.3476ZM89.7201 82.2332C89.7957 82.208 89.9674 82.1569 90.2433 82.078L90.0543 81.4165C89.7816 81.4944 89.5949 81.5497 89.5025 81.5805L89.7201 82.2332ZM90.2364 82.0799C90.5627 81.9941 90.8326 81.908 91.039 81.8204L90.7703 81.187C90.6073 81.2562 90.3732 81.3325 90.0613 81.4146L90.2364 82.0799ZM91.047 81.8169C91.2928 81.7052 91.4941 81.5307 91.6501 81.3039L91.0831 80.9141C90.9928 81.0456 90.8861 81.1343 90.7623 81.1905L91.047 81.8169ZM91.6528 81.2998C91.8274 81.038 91.8954 80.7076 91.8954 80.3447H91.2074C91.2074 80.6313 91.1522 80.8104 91.0804 80.9182L91.6528 81.2998ZM91.8954 80.3447V73.6764H91.2074V80.3447H91.8954ZM104.938 76.2631V76.6071H105.08L105.181 76.5074L104.938 76.2631ZM108.768 72.467L109.01 72.7113L109.069 72.6536L109.095 72.5758L108.768 72.467ZM107.987 71.8539L107.952 72.1961L107.952 72.1961L107.987 71.8539ZM107.5 71.7699L107.391 72.0963L107.396 72.098L107.5 71.7699ZM107.391 71.4256V71.0816H107.143L107.064 71.3168L107.391 71.4256ZM112.128 71.4256L112.463 71.351L112.403 71.0816H112.128V71.4256ZM112.161 71.5768H112.505V71.539L112.497 71.5021L112.161 71.5768ZM110.969 72.0219L110.897 71.6854L110.895 71.6858L110.969 72.0219ZM109.776 72.5174L109.557 72.2522L109.543 72.264L109.53 72.2773L109.776 72.5174ZM106.517 75.86L106.271 75.6198L106.069 75.8275L106.239 76.0622L106.517 75.86ZM110.448 81.2686L110.17 81.4708L110.182 81.4875L110.196 81.5026L110.448 81.2686ZM110.817 81.4953L110.684 81.8128L110.697 81.8174L110.817 81.4953ZM111.531 81.7389L111.426 82.0665L111.431 82.068L111.531 81.7389ZM112.245 81.9908L112.104 82.3047L112.108 82.3065L112.245 81.9908ZM112.463 82.3604V82.7044H112.663L112.762 82.531L112.463 82.3604ZM106.719 82.3604L106.407 82.5045L106.499 82.7044H106.719V82.3604ZM106.82 82.0412L106.929 82.3677L106.939 82.364L106.82 82.0412ZM107.315 81.932L107.266 81.5916L107.264 81.5918L107.315 81.932ZM107.92 81.7977L108.041 82.1198L108.048 82.1171L107.92 81.7977ZM107.987 81.235L107.703 81.4289L107.709 81.4373L107.715 81.4453L107.987 81.235ZM104.972 76.8174L105.256 76.6235L105.154 76.4734H104.972V76.8174ZM104.216 76.8174V76.4734H103.872V76.8174H104.216ZM104.384 81.7137L104.169 81.9823L104.177 81.9881L104.184 81.9936L104.384 81.7137ZM104.804 81.8816L104.746 82.2208L104.757 82.2224L104.804 81.8816ZM105.426 81.932L105.447 81.5886L105.441 81.5884L105.426 81.932ZM106.022 82.0076L105.931 82.3395L105.938 82.3414L105.946 82.3431L106.022 82.0076ZM106.165 82.3604V82.7044H106.422L106.495 82.4574L106.165 82.3604ZM100.538 82.3604L100.211 82.4691L100.29 82.7044H100.538V82.3604ZM100.689 82.0244L100.779 82.3563L100.786 82.3544L100.793 82.3522L100.689 82.0244ZM101.252 81.9236L101.29 82.2656L101.298 82.2645L101.252 81.9236ZM101.226 71.8875L101.167 72.2265L101.176 72.2277L101.226 71.8875ZM100.664 71.7615L100.55 72.0862L100.555 72.0879L100.664 71.7615ZM100.538 71.4256V71.0816H100.29L100.211 71.3168L100.538 71.4256ZM106.131 71.4256L106.46 71.3244L106.385 71.0816H106.131V71.4256ZM105.4 71.8875L105.35 71.5472L105.348 71.5476L105.4 71.8875ZM104.216 76.2631H103.872V76.6071H104.216V76.2631ZM105.181 76.5074L109.01 72.7113L108.526 72.2227L104.696 76.0188L105.181 76.5074ZM109.095 72.5758C109.126 72.4824 109.146 72.3835 109.146 72.2822H108.458C108.458 72.2929 108.455 72.3172 108.442 72.3582L109.095 72.5758ZM109.146 72.2822C109.146 72.1552 109.118 72.0206 109.04 71.8998C108.96 71.7766 108.845 71.6961 108.721 71.6494L108.479 72.2936C108.486 72.2959 108.484 72.2963 108.48 72.2926C108.474 72.2886 108.468 72.2823 108.463 72.2742C108.46 72.2704 108.459 72.2671 108.458 72.2645C108.456 72.2619 108.456 72.2605 108.456 72.2606C108.456 72.2609 108.458 72.2674 108.458 72.2822H109.146ZM108.721 71.6494C108.544 71.5831 108.304 71.5405 108.022 71.5117L107.952 72.1961C108.219 72.2233 108.388 72.2591 108.479 72.2936L108.721 71.6494ZM108.022 71.5117C107.809 71.4899 107.675 71.4646 107.604 71.4419L107.396 72.098C107.537 72.1425 107.728 72.1732 107.952 72.1961L108.022 71.5117ZM107.609 71.4436C107.604 71.4418 107.63 71.4496 107.658 71.4844C107.687 71.5224 107.693 71.5607 107.693 71.5768H107.005C107.005 71.688 107.036 71.8061 107.116 71.9084C107.193 72.0077 107.296 72.0644 107.391 72.0963L107.609 71.4436ZM107.693 71.5768C107.693 71.5873 107.692 71.5959 107.692 71.6018C107.691 71.6079 107.691 71.6128 107.69 71.6162C107.689 71.6228 107.688 71.6271 107.688 71.628C107.688 71.6297 107.688 71.6271 107.691 71.6184C107.696 71.6014 107.704 71.574 107.717 71.5344L107.064 71.3168C107.05 71.3611 107.037 71.401 107.028 71.4343C107.023 71.4503 107.005 71.5132 107.005 71.5768H107.693ZM107.391 71.7696H112.128V71.0816H107.391V71.7696ZM111.792 71.5002L111.825 71.6514L112.497 71.5021L112.463 71.351L111.792 71.5002ZM111.817 71.5768C111.817 71.5061 111.844 71.4548 111.863 71.4284C111.881 71.4047 111.894 71.3972 111.887 71.402C111.881 71.4059 111.867 71.4148 111.839 71.4275C111.812 71.44 111.776 71.4541 111.731 71.4696L111.953 72.1206C112.071 72.0804 112.185 72.0321 112.276 71.9698C112.352 71.9177 112.505 71.7916 112.505 71.5768H111.817ZM111.731 71.4696C111.537 71.536 111.261 71.6082 110.897 71.6854L111.04 72.3584C111.415 72.2788 111.722 72.1999 111.953 72.1206L111.731 71.4696ZM110.895 71.6858C110.335 71.8084 109.876 71.989 109.557 72.2522L109.995 72.7826C110.192 72.6203 110.527 72.4705 111.042 72.3579L110.895 71.6858ZM109.53 72.2773L106.271 75.6198L106.764 76.1001L110.022 72.7575L109.53 72.2773ZM106.239 76.0622L110.17 81.4708L110.726 81.0663L106.796 75.6577L106.239 76.0622ZM110.196 81.5026C110.318 81.6345 110.495 81.7331 110.684 81.8125L110.95 81.1781C110.793 81.112 110.723 81.0594 110.7 81.0345L110.196 81.5026ZM110.697 81.8174C110.883 81.8874 111.127 81.9705 111.426 82.0664L111.636 81.4113C111.342 81.3169 111.11 81.2376 110.938 81.1732L110.697 81.8174ZM111.431 82.068C111.74 82.1619 111.962 82.2409 112.104 82.3047L112.386 81.6769C112.203 81.5952 111.949 81.5062 111.631 81.4097L111.431 82.068ZM112.108 82.3065C112.141 82.3207 112.166 82.3331 112.183 82.3433C112.192 82.3483 112.198 82.3524 112.203 82.3554C112.207 82.3585 112.209 82.3601 112.209 82.36C112.209 82.3599 112.206 82.3575 112.202 82.3524C112.197 82.3473 112.19 82.3388 112.183 82.3265C112.168 82.3006 112.153 82.2601 112.153 82.2092H112.841C112.841 82.0302 112.737 81.9072 112.659 81.84C112.579 81.7707 112.48 81.7177 112.382 81.6752L112.108 82.3065ZM112.153 82.2092C112.153 82.2195 112.152 82.222 112.153 82.2185C112.154 82.2148 112.157 82.204 112.165 82.1897L112.762 82.531C112.823 82.4243 112.841 82.3097 112.841 82.2092H112.153ZM112.463 82.0164H106.719V82.7044H112.463V82.0164ZM107.031 82.2162C107.024 82.2009 107.019 82.1882 107.014 82.1777C107.01 82.167 107.007 82.1598 107.006 82.1556C107.005 82.1535 107.005 82.1527 107.005 82.153C107.005 82.1532 107.005 82.1553 107.006 82.1588C107.007 82.1622 107.008 82.1686 107.01 82.1773C107.011 82.1857 107.013 82.1997 107.013 82.2176H106.325C106.325 82.2925 106.348 82.3584 106.357 82.3846C106.37 82.4225 106.388 82.4633 106.407 82.5045L107.031 82.2162ZM107.013 82.2176C107.013 82.2313 107.01 82.2511 107.002 82.2738C106.994 82.2969 106.982 82.3176 106.968 82.3344C106.94 82.3668 106.916 82.3717 106.929 82.3676L106.711 81.7149C106.623 81.7443 106.523 81.7954 106.445 81.8866C106.362 81.9838 106.325 82.101 106.325 82.2176H107.013ZM106.939 82.364C107.011 82.3374 107.147 82.3051 107.366 82.2722L107.264 81.5918C107.035 81.6262 106.841 81.6666 106.701 81.7184L106.939 82.364ZM107.365 82.2724C107.64 82.2322 107.871 82.1833 108.041 82.1198L107.799 81.4756C107.7 81.5128 107.527 81.5534 107.266 81.5916L107.365 82.2724ZM108.048 82.1171C108.163 82.0708 108.275 81.9967 108.357 81.8821C108.44 81.7657 108.474 81.6334 108.474 81.5037H107.786C107.786 81.51 107.785 81.5093 107.787 81.5038C107.789 81.4978 107.792 81.4899 107.797 81.4822C107.803 81.4747 107.808 81.471 107.808 81.4704C107.809 81.4701 107.804 81.4734 107.792 81.4783L108.048 82.1171ZM108.474 81.5037C108.474 81.3904 108.43 81.2934 108.398 81.2331C108.362 81.1647 108.313 81.0944 108.259 81.0246L107.715 81.4453C107.756 81.4987 107.779 81.5348 107.79 81.5559C107.796 81.5661 107.796 81.5678 107.794 81.5623C107.793 81.5578 107.786 81.5366 107.786 81.5037H108.474ZM108.271 81.041L105.256 76.6235L104.688 77.0113L107.703 81.4289L108.271 81.041ZM104.972 76.4734H104.216V77.1614H104.972V76.4734ZM103.872 76.8174V81.3189H104.56V76.8174H103.872ZM103.872 81.3189C103.872 81.5727 103.958 81.8136 104.169 81.9823L104.599 81.4451C104.586 81.4346 104.56 81.4124 104.56 81.3189H103.872ZM104.184 81.9936C104.349 82.1116 104.539 82.1851 104.746 82.2206L104.863 81.5426C104.744 81.5222 104.654 81.4837 104.584 81.4337L104.184 81.9936ZM104.757 82.2224C104.934 82.2468 105.153 82.2642 105.41 82.2757L105.441 81.5884C105.195 81.5774 104.999 81.5613 104.851 81.5409L104.757 82.2224ZM105.405 82.2754C105.676 82.292 105.845 82.3158 105.931 82.3395L106.112 81.6757C105.953 81.6322 105.724 81.6057 105.447 81.5887L105.405 82.2754ZM105.946 82.3431C105.968 82.3481 105.943 82.3476 105.912 82.3147C105.895 82.2974 105.882 82.2759 105.873 82.2522C105.864 82.2293 105.863 82.2108 105.863 82.2008H106.551C106.551 82.0744 106.509 81.9439 106.409 81.8391C106.316 81.7418 106.199 81.6951 106.098 81.6722L105.946 82.3431ZM105.863 82.2008C105.863 82.1851 105.864 82.1729 105.864 82.167C105.865 82.1602 105.866 82.1551 105.866 82.1522C105.867 82.1491 105.867 82.1468 105.868 82.1457C105.868 82.1451 105.868 82.1447 105.868 82.1444C105.868 82.1443 105.868 82.1441 105.868 82.1441C105.868 82.144 105.868 82.144 105.868 82.144C105.868 82.144 105.868 82.1441 105.868 82.1443C105.868 82.1446 105.868 82.1449 105.868 82.1453C105.867 82.1462 105.867 82.1474 105.867 82.149C105.866 82.1521 105.865 82.1563 105.863 82.1615C105.858 82.1834 105.848 82.2168 105.835 82.2633L106.495 82.4574C106.509 82.4087 106.521 82.368 106.529 82.3366C106.533 82.3212 106.537 82.3052 106.54 82.2901C106.541 82.2878 106.551 82.2465 106.551 82.2008H105.863ZM106.165 82.0164H100.538V82.7044H106.165V82.0164ZM100.864 82.2516C100.855 82.2239 100.85 82.2058 100.847 82.1955C100.846 82.1905 100.846 82.1896 100.846 82.1918C100.847 82.1935 100.848 82.2029 100.848 82.2176H100.16C100.16 82.3081 100.19 82.4045 100.211 82.4691L100.864 82.2516ZM100.848 82.2176C100.848 82.2314 100.846 82.252 100.837 82.2758C100.827 82.3 100.814 82.3204 100.799 82.3357C100.772 82.3641 100.753 82.3634 100.779 82.3563L100.598 81.6925C100.501 81.719 100.39 81.7673 100.302 81.8601C100.205 81.961 100.16 82.088 100.16 82.2176H100.848ZM100.793 82.3522C100.883 82.3237 101.043 82.2929 101.29 82.2655L101.214 81.5817C100.956 81.6103 100.741 81.6468 100.585 81.6966L100.793 82.3522ZM101.298 82.2645C101.549 82.2303 101.758 82.1952 101.922 82.1587L101.773 81.487C101.635 81.5177 101.447 81.5498 101.205 81.5828L101.298 82.2645ZM101.922 82.1587C102.121 82.1146 102.301 82.0317 102.457 81.9067L102.028 81.3695C101.96 81.4237 101.877 81.4639 101.773 81.487L101.922 82.1587ZM102.457 81.9067C102.659 81.7452 102.755 81.5187 102.755 81.2686H102.067C102.067 81.332 102.05 81.3518 102.028 81.3695L102.457 81.9067ZM102.755 81.2686V72.5678H102.067V81.2686H102.755ZM102.755 72.5678C102.755 72.4025 102.715 72.2397 102.618 72.0965C102.522 71.9541 102.387 71.8554 102.236 71.7901L101.963 72.4216C102.02 72.4459 102.04 72.469 102.047 72.4805C102.055 72.4913 102.067 72.5146 102.067 72.5678H102.755ZM102.236 71.7901C101.989 71.6834 101.665 71.6051 101.277 71.5473L101.176 72.2277C101.538 72.2819 101.796 72.3492 101.963 72.4216L102.236 71.7901ZM101.285 71.5486C101.03 71.5043 100.864 71.4657 100.772 71.4352L100.555 72.0879C100.698 72.1357 100.907 72.1812 101.167 72.2264L101.285 71.5486ZM100.777 71.4368C100.754 71.4286 100.769 71.4288 100.792 71.4545C100.805 71.4685 100.818 71.4879 100.827 71.5121C100.837 71.5362 100.84 71.5588 100.84 71.5768H100.152C100.152 71.7035 100.197 71.8226 100.283 71.9173C100.363 72.0046 100.462 72.0553 100.55 72.0862L100.777 71.4368ZM100.84 71.5768C100.84 71.5873 100.839 71.5959 100.839 71.6018C100.838 71.6079 100.838 71.6128 100.837 71.6162C100.836 71.6228 100.835 71.6271 100.835 71.628C100.835 71.6297 100.835 71.6271 100.838 71.6184C100.842 71.6014 100.851 71.574 100.864 71.5344L100.211 71.3168C100.197 71.3611 100.184 71.401 100.175 71.4343C100.17 71.4503 100.152 71.5132 100.152 71.5768H100.84ZM100.538 71.7696H106.131V71.0816H100.538V71.7696ZM105.802 71.5268C105.812 71.5593 105.818 71.5813 105.821 71.5947C105.823 71.6013 105.823 71.6031 105.823 71.6012C105.823 71.6001 105.822 71.597 105.822 71.5922C105.821 71.5876 105.821 71.5793 105.821 71.5684H106.509C106.509 71.5144 106.497 71.4637 106.491 71.4371C106.483 71.4028 106.472 71.3646 106.46 71.3244L105.802 71.5268ZM105.821 71.5684C105.821 71.5545 105.823 71.5348 105.831 71.5125C105.84 71.49 105.852 71.4714 105.865 71.4577C105.888 71.4323 105.903 71.4335 105.876 71.4421L106.084 72.0977C106.18 72.0671 106.287 72.0152 106.372 71.9226C106.464 71.8225 106.509 71.6978 106.509 71.5684H105.821ZM105.876 71.4421C105.78 71.4725 105.61 71.5086 105.35 71.5473L105.451 72.2277C105.718 72.1881 105.933 72.1457 106.084 72.0977L105.876 71.4421ZM105.348 71.5476C105.09 71.5876 104.875 71.6286 104.704 71.6713L104.871 72.3388C105.013 72.3031 105.206 72.2658 105.453 72.2274L105.348 71.5476ZM104.704 71.6713C104.505 71.721 104.325 71.8054 104.169 71.9296L104.599 72.4669C104.668 72.4119 104.756 72.3675 104.871 72.3388L104.704 71.6713ZM104.169 71.9296C103.967 72.0911 103.872 72.3176 103.872 72.5678H104.56C104.56 72.5044 104.577 72.4845 104.599 72.4669L104.169 71.9296ZM103.872 72.5678V76.2631H104.56V72.5678H103.872ZM104.216 76.6071H104.938V75.9191H104.216V76.6071Z" fill="#FAB91C"/>
</svg>
