<svg width="90" height="90" viewBox="0 0 90 90" fill="none" xmlns="http://www.w3.org/2000/svg">
<path d="M43.875 0C41.7864 0 39.7834 0.829683 38.3065 2.30653C36.8297 3.78337 36 5.7864 36 7.87498C36 9.96355 36.8297 11.9666 38.3065 13.4434C39.7834 14.9203 41.7864 15.75 43.875 15.75C45.9636 15.75 47.9666 14.9203 49.4435 13.4434C50.9203 11.9666 51.75 9.96355 51.75 7.87498C51.75 5.7864 50.9203 3.78337 49.4435 2.30653C47.9666 0.829683 45.9636 0 43.875 0ZM40.5 20.2499C35.5275 20.2499 31.5 24.2774 31.5 29.2499V51.7499H44.6836L53.5737 41.0844C53.7087 40.9269 53.8425 40.7711 54 40.6361V32.3173L60.1875 37.2655C60.986 37.9035 61.9779 38.2507 63 38.2499H74.25C74.8463 38.2583 75.4383 38.1482 75.9917 37.9258C76.5451 37.7034 77.0487 37.3733 77.4734 36.9546C77.898 36.5359 78.2352 36.037 78.4654 35.4868C78.6956 34.9367 78.8141 34.3463 78.8141 33.7499C78.8141 33.1535 78.6956 32.5631 78.4654 32.013C78.2352 31.4628 77.898 30.9639 77.4734 30.5452C77.0487 30.1265 76.5451 29.7964 75.9917 29.574C75.4383 29.3517 74.8463 29.2415 74.25 29.2499H64.5776L57.0278 23.2075V23.2118C54.6329 21.2931 51.6587 20.2499 48.5947 20.2499H47.25H42.75H40.5ZM60.0732 42.7499C59.4156 42.7497 58.766 42.8936 58.17 43.1714C57.574 43.4493 57.0461 43.8544 56.6235 44.3583L47.4697 55.2918C46.6847 55.9063 45.7067 56.2498 44.6924 56.2498H29.25C24.2797 56.2498 20.25 60.2796 20.25 65.2498C20.25 70.2201 24.2797 74.2498 29.25 74.2498H45.2153C49.2563 74.2498 52.9863 72.0843 54.9888 68.5721L64.5732 51.7499H78.75C79.3463 51.7583 79.9383 51.6481 80.4917 51.4258C81.0451 51.2034 81.5487 50.8733 81.9734 50.4546C82.398 50.0359 82.7352 49.537 82.9654 48.9868C83.1956 48.4366 83.3141 47.8462 83.3141 47.2499C83.3141 46.6535 83.1956 46.0631 82.9654 45.5129C82.7352 44.9628 82.398 44.4639 81.9734 44.0452C81.5487 43.6265 81.0451 43.2963 80.4917 43.074C79.9383 42.8516 79.3463 42.7414 78.75 42.7499H60.0732ZM7.875 53.9999C5.78642 53.9999 3.78338 54.8295 2.30653 56.3064C0.829686 57.7832 0 59.7863 0 61.8748C0 63.9634 0.829686 65.9664 2.30653 67.4433C3.78338 68.9201 5.78642 69.7498 7.875 69.7498C9.96358 69.7498 11.9666 68.9201 13.4435 67.4433C14.9203 65.9664 15.75 63.9634 15.75 61.8748C15.75 59.7863 14.9203 57.7832 13.4435 56.3064C11.9666 54.8295 9.96358 53.9999 7.875 53.9999ZM63.3384 63.0218L58.9043 70.8089C58.1618 72.0914 57.263 73.2598 56.228 74.2498H83.25C85.725 74.2498 87.75 72.2248 87.75 69.7498C87.75 67.2973 85.7943 65.3168 83.3643 65.2718L83.4741 65.2498L63.3384 63.0218ZM7.875 74.2498C3.5325 74.2498 0 77.7823 0 82.1248V86.6248C0 88.49 1.50975 89.9998 3.375 89.9998H86.625C88.4902 89.9998 90 88.49 90 86.6248C90 82.2823 86.4675 78.7498 82.125 78.7498H23.2383C22.9368 78.7498 22.6566 78.6317 22.4429 78.4202L20.5796 76.5569C19.0901 75.0674 17.1155 74.2498 15.0117 74.2498H7.875Z" fill="#FAB91C"/>
</svg>
