<svg width="86" height="86" viewBox="0 0 86 86" fill="none" xmlns="http://www.w3.org/2000/svg">
<path d="M75.2003 0.679932C69.6085 0.679932 65.0803 5.20806 65.0803 10.7999C65.0803 16.3918 69.6085 20.9199 75.2003 20.9199C80.7922 20.9199 85.3203 16.3918 85.3203 10.7999C85.3203 5.20806 80.7922 0.679932 75.2003 0.679932ZM44.3228 6.08493C42.0588 6.11368 39.8234 6.82524 38.2278 8.32743L22.5303 23.7949C21.4378 24.8731 20.8556 26.2818 20.8628 27.8199C20.87 29.3581 21.4809 30.7812 22.5878 31.8449C24.7441 33.9221 28.1509 33.994 30.3503 31.9599L43.9203 19.4249L51.6253 25.1749L47.1403 30.4649C53.9541 31.4281 60.0203 34.6912 64.5053 39.4924L68.7603 33.5699C71.7934 29.3796 70.9669 23.6081 66.8628 20.4599L50.6478 8.03993C48.9156 6.71024 46.5869 6.05618 44.3228 6.08493ZM43.0003 33.7999C40.2619 33.7999 37.6025 34.2096 35.1228 35.0074C34.5047 35.2087 33.8794 35.4531 33.2828 35.6974C32.7006 35.9346 32.1184 36.2221 31.5578 36.5024C30.9828 36.7899 30.3791 37.0918 29.8328 37.4224C26.5553 39.3846 23.7378 42.0727 21.6103 45.2424C21.2941 45.7168 21.0353 46.184 20.7478 46.6799H9.88032C9.82282 46.6799 9.76532 46.6799 9.70782 46.6799C8.69438 46.7302 7.90376 47.5927 7.95407 48.6062C8.00438 49.6196 8.86688 50.4102 9.88032 50.3599H30.1203C31.1338 50.3599 31.9603 51.1793 31.9603 52.1999C31.9603 53.2206 31.1338 54.0399 30.1203 54.0399H17.8728C17.6788 54.9312 17.5134 55.8224 17.4128 56.7424C17.3769 57.0587 17.3769 57.3965 17.3553 57.7199H2.52032C2.46282 57.7199 2.40532 57.7199 2.34782 57.7199C1.33438 57.7702 0.543758 58.6327 0.594071 59.6462C0.644384 60.6596 1.50688 61.4502 2.52032 61.3999H39.3203C40.3338 61.3999 41.1603 62.2193 41.1603 63.2399C41.1603 64.2606 40.3338 65.0799 39.3203 65.0799H17.8728C18.1531 66.3521 18.5053 67.5668 18.9653 68.7599H11.7203C11.6628 68.7599 11.6053 68.7599 11.5478 68.7599C10.5344 68.8102 9.74376 69.6727 9.79407 70.6862C9.84438 71.6996 10.7069 72.4902 11.7203 72.4399H30.1203C31.1338 72.4399 31.9603 73.2593 31.9603 74.2799C31.9603 75.3006 31.1338 76.1199 30.1203 76.1199H23.2778C24.4566 77.5215 25.7934 78.7865 27.2453 79.9149C27.9713 80.4756 28.7044 81.0434 29.4878 81.5249C33.4194 83.9615 38.0481 85.3199 43.0003 85.3199C52.7466 85.3199 61.2781 79.8718 65.6553 71.8649C65.6625 71.8506 65.6481 71.8218 65.6553 71.8074C67.6391 68.1562 68.7603 64.0018 68.7603 59.5599C68.7603 55.1037 67.6535 50.9134 65.6553 47.2549C65.26 46.5218 64.7928 45.8677 64.3328 45.1849C62.0256 41.7709 58.935 38.8887 55.3053 36.9049C55.2909 36.8977 55.2622 36.9121 55.2478 36.9049C51.5966 34.9212 47.4422 33.7999 43.0003 33.7999ZM71.0603 50.7624C71.9372 53.544 72.4403 56.4909 72.4403 59.5599C72.4403 68.4221 68.4728 76.3571 62.2628 81.7549C62.7444 81.8699 63.2188 81.9274 63.7003 81.9274C66.1009 81.9274 68.4369 80.5762 69.4503 78.2474L76.4078 62.1474C78.2191 57.9859 76.3503 53.0768 72.2103 51.2224L71.0603 50.7624Z" fill="#FAB91C"/>
</svg>
