<svg width="97" height="80" viewBox="0 0 97 80" fill="none" xmlns="http://www.w3.org/2000/svg">
<path d="M7.8047 0V12.8672H47.6719V0H7.8047ZM9.70314 15.8203V21.5276C9.70314 22.1306 9.33084 22.5703 8.77123 22.9922H8.76587C3.50952 25.1016 1.09523e-05 30.3119 1.09523e-05 36.0996V72.9819C-0.00153397 73.8117 0.160379 74.6337 0.476506 75.4009C0.792633 76.1682 1.25678 76.8656 1.84245 77.4535C2.42812 78.0413 3.12385 78.508 3.8899 78.827C4.65595 79.146 5.47732 79.311 6.30713 79.3125H49.1139C50.7959 79.3105 52.4089 78.6434 53.6009 77.4566C54.793 76.2699 55.4672 74.6598 55.4766 72.9778V36.1C55.4766 30.2792 51.954 24.9751 46.7017 22.9016C46.4269 22.7924 46.1914 22.6031 46.0258 22.3581C45.8602 22.1132 45.7723 21.824 45.7735 21.5284V15.8203H9.70314ZM22.5703 32.2734H32.9063C33.2979 32.2734 33.6735 32.429 33.9504 32.7059C34.2273 32.9828 34.3828 33.3584 34.3828 33.75V44.2969H44.9297C45.3213 44.2969 45.6969 44.4524 45.9738 44.7294C46.2507 45.0063 46.4063 45.3818 46.4063 45.7734V55.4766C46.4063 55.8682 46.2507 56.2437 45.9738 56.5206C45.6969 56.7976 45.3213 56.9531 44.9297 56.9531H34.3828V67.5C34.3828 67.8916 34.2273 68.2672 33.9504 68.5441C33.6735 68.821 33.2979 68.9766 32.9063 68.9766H22.5703C22.1787 68.9766 21.8032 68.821 21.5263 68.5441C21.2493 68.2672 21.0938 67.8916 21.0938 67.5V56.9531H10.7578C10.3662 56.9531 9.99065 56.7976 9.71374 56.5206C9.43683 56.2437 9.28127 55.8682 9.28127 55.4766V45.7734C9.28127 45.3818 9.43683 45.0063 9.71374 44.7294C9.99065 44.4524 10.3662 44.2969 10.7578 44.2969H21.0938V33.75C21.0938 33.3584 21.2493 32.9828 21.5263 32.7059C21.8032 32.429 22.1787 32.2734 22.5703 32.2734ZM24.0469 35.2266V45.7734C24.0469 46.165 23.8913 46.5406 23.6144 46.8175C23.3375 47.0944 22.9619 47.25 22.5703 47.25H12.2344V54H22.5703C22.9619 54 23.3375 54.1556 23.6144 54.4325C23.8913 54.7094 24.0469 55.085 24.0469 55.4766V66.0234H31.4297V55.4766C31.4297 55.085 31.5853 54.7094 31.8622 54.4325C32.1391 54.1556 32.5147 54 32.9063 54H43.4532V47.25H32.9063C32.5147 47.25 32.1391 47.0944 31.8622 46.8175C31.5853 46.5406 31.4297 46.165 31.4297 45.7734V35.2266H24.0469ZM70.7449 50.4425C69.7944 50.4888 68.8698 50.7679 68.0524 51.2552C67.2351 51.7426 66.55 52.4233 66.0574 53.2375C65.5648 54.0517 65.2797 54.9745 65.2273 55.9247C65.175 56.8748 65.3568 57.8233 65.7569 58.6868H65.7574C66.0764 59.3798 66.5298 60.0027 67.0912 60.5194C67.6526 61.0361 68.311 61.4362 69.0281 61.6967L77.3799 64.7578H77.5727L81.5484 53.9135L73.0265 50.7902C72.2968 50.5229 71.521 50.4046 70.7449 50.4425ZM84.3207 54.9299L80.7179 64.7578H89.9064C91.99 64.7568 94.005 65.5017 95.5869 66.8577C96.1023 66.1297 96.443 65.2927 96.5824 64.4117C96.7218 63.5307 96.6562 62.6294 96.3908 61.7779C96.1253 60.9264 95.6671 60.1475 95.0517 59.5018C94.4364 58.8561 93.6804 58.3609 92.8427 58.0548L84.3207 54.9299ZM69.9662 57.5843C70.1492 57.5808 70.3312 57.6114 70.503 57.6745L77.2427 60.1452C77.4273 60.21 77.5972 60.3109 77.7424 60.4419C77.8877 60.5729 78.0054 60.7315 78.0889 60.9084C78.1724 61.0853 78.2198 61.2771 78.2285 61.4725C78.2373 61.6679 78.2071 61.8631 78.1397 62.0468C78.0723 62.2304 77.9692 62.3989 77.8362 62.5423C77.7032 62.6858 77.543 62.8013 77.3649 62.8823C77.1869 62.9634 76.9945 63.0082 76.799 63.0142C76.6034 63.0202 76.4087 62.9873 76.226 62.9175L69.4867 60.4468C69.1191 60.312 68.8201 60.0366 68.6554 59.6814C68.4908 59.3262 68.474 58.9201 68.6087 58.5525C68.7111 58.2731 68.8955 58.0312 69.1377 57.8584C69.38 57.6857 69.6687 57.5901 69.9662 57.5843ZM68.8011 67.7109C67.2619 67.7109 65.7857 68.3218 64.6966 69.4095C63.6075 70.4971 62.9946 71.9725 62.9925 73.5117C62.9946 75.0509 63.6075 76.5263 64.6966 77.614C65.7857 78.7016 67.2619 79.3125 68.8011 79.3125H77.836V67.7109H68.8011ZM80.7891 67.7109V79.3125H89.9064C91.4449 79.3125 92.9203 78.7013 94.0082 77.6135C95.0961 76.5256 95.7072 75.0502 95.7072 73.5117C95.7072 71.9733 95.0961 70.4978 94.0082 69.41C92.9203 68.3221 91.4449 67.7109 89.9064 67.7109H80.7891ZM68.8011 75.0938H75.9796C76.3712 75.0938 76.7468 75.2493 77.0237 75.5262C77.3006 75.8031 77.4562 76.1787 77.4562 76.5703C77.4562 76.9619 77.3006 77.3375 77.0237 77.6144C76.7468 77.8913 76.3712 78.0469 75.9796 78.0469H68.8011C68.4095 78.0469 68.0339 77.8913 67.757 77.6144C67.4801 77.3375 67.3246 76.9619 67.3246 76.5703C67.3246 76.1787 67.4801 75.8031 67.757 75.5262C68.0339 75.2493 68.4095 75.0938 68.8011 75.0938Z" fill="#FAB91C"/>
</svg>
