<svg width="93" height="85" viewBox="0 0 93 85" fill="none" xmlns="http://www.w3.org/2000/svg">
<path d="M46.0157 -0.000488281C38.426 -0.000488281 33.7184 4.35504 33.7184 4.35504C33.2225 4.80066 33.0068 5.48345 33.1506 6.13031C33.2943 6.78436 33.7831 7.30904 34.4227 7.49591C35.0624 7.68997 35.7524 7.51747 36.2339 7.05029C36.2339 7.05029 39.806 3.67943 46.0157 3.67943C52.2255 3.67943 55.7975 7.05029 55.7975 7.05029C56.2791 7.51747 56.9691 7.68997 57.6087 7.49591C58.2484 7.30904 58.7371 6.78436 58.8809 6.13031C59.0246 5.48345 58.809 4.80066 58.3131 4.35504C58.3131 4.35504 53.6054 -0.000488281 46.0157 -0.000488281ZM29.4348 7.35935C23.1388 7.35935 18.8983 10.874 14.7944 14.2736C10.7192 17.6516 7.20469 20.5409 2.01552 20.0666C1.41898 20.0091 0.815249 20.2534 0.419951 20.7206C0.0318403 21.1878 -0.0975298 21.8203 0.0749637 22.4025C0.269019 23.0996 2.18801 28.9861 9.90709 29.252C11.3805 30.7613 14.2697 31.3291 16.62 30.862C17.9999 31.5663 20.2567 32.091 22.2188 31.631C23.3688 32.1485 24.7415 32.1916 25.9777 31.9113C27.1708 33.9884 29.5857 36.6765 32.5612 36.7987C34.969 36.7987 36.428 36.3315 37.3623 35.8572C37.8151 37.5246 38.2104 39.5874 38.4404 41.9664C33.2081 41.032 28.1914 39.8893 27.6164 38.6027C27.5949 37.6037 26.7827 36.7987 25.7765 36.7987C24.7559 36.7987 23.9366 37.6181 23.9366 38.6387V45.9985C23.9366 49.6065 28.5508 51.2884 36.9167 52.8193L38.1457 68.2864C39.0513 68.5596 40.2875 68.8686 41.9118 69.2136L40.6612 53.4661C42.2496 53.7249 43.9458 53.9836 45.7426 54.2567C47.3885 54.5083 49.3219 54.803 51.2983 55.1264L49.2859 84.5873C51.5786 84.3286 53.3755 82.4096 53.3755 80.1527L54.9423 55.802C59.6715 56.6861 63.9335 57.7354 64.415 58.8782V60.7182C64.415 61.2572 63.4448 62.3497 58.0903 64.2472L57.8315 68.2289C64.5228 66.0152 68.0949 63.9093 68.0949 60.7182V51.5184C68.0949 47.6875 62.8338 46.0272 53.4401 44.4101C53.5695 40.953 54.0798 38.0924 54.6835 35.8715C55.6179 36.3387 57.0769 36.7987 59.4558 36.7987C62.4314 36.6765 64.8463 33.9884 66.0322 31.9113C67.2756 32.1916 68.6411 32.1485 69.7911 31.631C71.7532 32.091 74.01 31.5663 75.3899 30.8691C77.7473 31.3291 80.6294 30.7613 82.11 29.252C89.8291 28.9861 91.7409 23.0996 91.9421 22.4025C92.1146 21.8131 91.9781 21.1878 91.5899 20.7206C91.2018 20.2534 90.5981 20.0091 90.0016 20.0666C84.8052 20.5409 81.2906 17.6516 77.2227 14.2736C73.1188 10.874 68.8783 7.35935 62.5751 7.35935C60.6058 7.35935 58.6293 8.30808 57.1487 9.95398C55.7904 11.4705 55.0788 13.3464 55.2154 14.9923C55.2226 17.2563 55.5244 18.9669 55.9125 20.2391H51.6146C51.6146 20.2391 51.2983 20.2391 50.8168 19.8725C50.3784 19.5347 49.8034 18.8591 49.7243 16.9329C50.8312 15.9195 51.5355 14.482 51.5355 12.8792C51.5355 9.85336 49.0416 7.35935 46.0157 7.35935C42.9899 7.35935 40.4959 9.85336 40.4959 12.8792C40.4959 14.482 41.2003 15.9195 42.3071 16.9329C42.2281 18.8591 41.6531 19.5347 41.2147 19.8725C40.7331 20.2391 40.4169 20.2391 40.4169 20.2391H36.0974C36.4927 18.9669 36.7873 17.2563 36.7945 14.9923C36.9383 13.3464 36.2195 11.4705 34.8611 9.95398C33.3806 8.30808 31.4041 7.35935 29.4348 7.35935ZM46.0157 11.0393C47.0507 11.0393 47.8557 11.8442 47.8557 12.8792C47.8557 13.9142 47.0507 14.7192 46.0157 14.7192C44.9808 14.7192 44.1758 13.9142 44.1758 12.8792C44.1758 11.8442 44.9808 11.0393 46.0157 11.0393ZM45.8504 18.3775C45.9079 18.3847 45.9582 18.3991 46.0157 18.3991C46.0732 18.3991 46.1235 18.3847 46.181 18.3775C46.5404 20.4834 47.4963 21.964 48.5744 22.7906C49.9328 23.8399 51.4565 23.919 51.4565 23.919C51.4852 23.919 51.514 23.919 51.5355 23.919H75.4546C76.1662 23.9262 76.8202 23.5237 77.1292 22.884C77.1724 23.0206 77.2155 23.1499 77.237 23.2865C77.6252 25.5864 75.8427 27.5989 73.6147 27.5989H55.4957C55.4238 27.5845 55.3519 27.5773 55.2729 27.5773C54.6045 27.563 53.972 27.9151 53.6342 28.4901C53.6342 28.4901 50.2778 34.2831 49.789 43.8064C48.6534 43.6267 47.525 43.447 46.2888 43.2601C45.067 43.0732 43.608 42.8433 42.1706 42.6133C41.495 33.816 38.3973 28.4901 38.3973 28.4901C38.081 27.9511 37.5132 27.6061 36.8808 27.5773C36.7586 27.5702 36.6364 27.5773 36.5214 27.5989H18.4024C16.1672 27.5989 14.3847 25.5864 14.7728 23.2865C14.7944 23.1427 14.8519 23.0062 14.895 22.8624C15.1969 23.5165 15.8581 23.9262 16.5768 23.919H40.4959C40.5175 23.919 40.5462 23.919 40.575 23.919C40.575 23.919 42.0987 23.8399 43.4571 22.7906C44.5352 21.964 45.4911 20.4834 45.8504 18.3775ZM34.164 64.5706C31.4185 65.929 29.4564 67.6036 29.4564 69.918V77.2778C29.4564 81.3171 35.4218 83.0852 45.7211 84.767C45.8217 84.7814 45.9151 84.7886 46.0157 84.7886C46.447 84.7886 46.871 84.6376 47.2016 84.3501C47.6185 84.0051 47.8557 83.4877 47.8557 82.9486V75.5888C47.8557 74.6904 47.2016 73.9213 46.3104 73.7704C34.7605 71.8873 33.3015 70.3061 33.1362 69.918C33.1362 69.882 33.165 69.422 34.4802 68.5955L34.164 64.5706Z" fill="#FAB91C"/>
</svg>
