<svg width="120" height="86" viewBox="0 0 120 86" fill="none" xmlns="http://www.w3.org/2000/svg">
<path d="M4.42256 39.2796C4.23734 39.7752 3.82329 39.8313 3.50459 39.9333C3.77333 39.7442 4.08932 39.5208 4.42256 39.2796C4.63127 38.721 4.54939 37.6042 3.71305 35.2346C2.73698 32.469 0.622118 24.9043 3.71305 24.7417C6.80399 24.579 5.4212 26.2871 5.90924 29.4594C6.39728 32.6317 6.51798 35.9752 7.25004 36.4633C7.7282 36.782 5.90485 38.2066 4.42256 39.2796Z" fill="#FAB91C"/>
<circle cx="12.1436" cy="47.1436" r="10.4929" stroke="#FAB91C" stroke-width="1.30145"/>
<path d="M9.81369 21.9763C6.88543 21.9763 6.69564 25.1215 6.39739 26.7754C6.28425 27.4028 5.99069 30.8424 6.88543 38.4884C8.18688 43.8569 9.00028 44.9956 9.81369 44.9143L9.40698 36.4549C9.19008 35.9668 8.96775 34.9908 9.81369 34.9908C21.7707 33.6893 25.2684 47.7612 26.7325 50.9335C28.1966 54.1057 30.3115 54.5124 29.7421 50.9335C26.5698 35.6415 22.7468 36.5362 19.2492 34.9908C15.7515 33.4453 14.9381 32.0625 13.5553 26.7754C12.1726 21.4883 11.9285 21.9763 9.81369 21.9763Z" fill="#242322"/>
<circle cx="8.67489" cy="16.9327" r="4.47372" fill="#242322"/>
<line x1="14" y1="46.5" x2="22" y2="46.5" stroke="#E2E2E2"/>
<line x1="3.49407" y1="51.9904" x2="9.90723" y2="47.208" stroke="#E2E2E2"/>
<circle cx="11.9289" cy="47.0288" r="2.84691" fill="#FAB91C"/>
<rect x="47.5977" y="23.6486" width="2.37277" height="16.1499" rx="1.18638" transform="rotate(-14.729 47.5977 23.6486)" fill="#242322"/>
<path fill-rule="evenodd" clip-rule="evenodd" d="M50.5573 23.9514L54.2632 37.4181C54.5072 38.3048 53.9862 39.2214 53.0995 39.4655C52.2128 39.7095 51.2961 39.1885 51.0521 38.3018L47.3463 24.8351C47.1022 23.9483 47.6232 23.0317 48.51 22.7877C49.3967 22.5437 50.3133 23.0647 50.5573 23.9514ZM46.0915 25.1804C45.6567 23.6006 46.5849 21.9676 48.1647 21.5329C49.7444 21.0982 51.3774 22.0264 51.8121 23.6061L55.518 37.0728C55.8287 38.2017 55.4433 39.3579 54.6214 40.0845C54.3938 40.5961 54.2914 41.4515 54.7133 42.7172C55.364 44.6694 57.1535 50.797 57.9669 53.6168C57.9669 53.888 57.853 54.4302 57.3975 54.4302C56.8281 54.4302 56.6654 54.4302 56.3401 53.6168C56.0798 52.9661 53.9541 45.4286 52.9238 41.7411C52.9018 41.5876 52.6917 41.2139 52.0608 40.7666C51.0035 40.5486 50.1034 39.7593 49.7973 38.6471L46.0915 25.1804Z" fill="#FAB91C"/>
<path fill-rule="evenodd" clip-rule="evenodd" d="M52.842 14.6552C52.842 17.126 50.8391 19.1289 48.3683 19.1289C45.8975 19.1289 43.8946 17.126 43.8946 14.6552C43.8946 12.1845 45.8975 10.1815 48.3683 10.1815C50.8391 10.1815 52.842 12.1845 52.842 14.6552ZM49.7512 20.6749C47.9075 20.5664 44.4315 21.3907 45.2775 25.5553C45.6171 27.2271 46.158 29.1088 46.7252 31.0816L46.7252 31.0816C47.924 35.2516 49.24 39.829 49.0191 43.6942C49.0191 45.0413 49.1306 46.6672 49.2406 48.2704V48.2705C49.4559 51.4104 49.6653 54.4632 49.0191 55.1632C48.043 56.2206 46.6603 54.7565 46.6603 53.211C46.6603 51.6655 46.1722 42.5554 45.4402 43.9382C44.4641 44.9956 38.2822 50.9335 37.7128 48.3306C37.4688 48.0052 37.0647 47.6773 36.4953 47.9213C36.4139 47.84 37.021 46.2189 38.0382 45.565C38.1413 45.4987 38.2744 45.4231 38.4294 45.335C39.9861 44.4508 43.7477 42.3139 41.4545 35.8042C41.4545 35.3161 42.1865 14.8997 49.7512 20.6749ZM34.621 48.4115C34.621 48.4136 34.6227 48.414 34.626 48.4128L34.621 48.4115ZM34.626 48.4128C34.8897 48.4864 35.5448 49.2544 35.8411 49.6316C37.2239 50.7703 38.1187 48.9809 37.8747 49.0622C37.6306 49.1435 37.2239 49.2249 36.8172 48.6555C36.4105 48.0861 35.9225 47.5981 35.3531 47.9234C35.064 48.0886 34.8469 48.2517 34.727 48.3418C34.6727 48.3826 34.6383 48.4084 34.626 48.4128ZM31.8964 50.7423C31.5255 51.0276 31.2436 51.2443 31.1814 51.3065C30.9887 51.4993 30.3918 53.6167 32.3439 53.2099C32.832 52.8032 33.9382 51.9898 34.4588 51.9898C35.1095 51.9898 36.0856 50.6884 35.9229 50.2817C35.8958 50.2546 35.744 50.1678 35.3535 50.0377C35.1033 49.9543 34.9814 49.7212 34.8672 49.503C34.7586 49.2954 34.657 49.1012 34.4588 49.0616C34.1334 48.9965 33.9436 49.0887 33.8894 49.1429C33.381 49.6005 32.5149 50.2666 31.8964 50.7423Z" fill="#242322"/>
<circle cx="73.7472" cy="12.5407" r="4.47372" fill="#242322"/>
<path d="M76.0242 18.7225C68.2806 13.2565 61.8981 22.898 59.6748 28.402C59.2681 30.0288 59.9188 29.9475 60.4068 29.8662C60.8949 29.7848 66.1006 23.2776 66.3447 22.6269C67.6461 20.1541 67.4275 21.5966 67.2106 22.6269C67.0483 23.0513 64.0671 35.1533 64.1485 36.1294C64.2298 37.1054 64.6915 43.8057 62.115 49.3878C59.8053 54.3919 60.7322 54.5123 61.7083 54.5936C62.6843 54.675 64.0671 51.7467 65.2872 48.6558C67.1581 45.5648 68.0528 38.1629 68.2968 37.8375C70.8997 35.9667 75.0481 50.9333 75.2921 51.7467C75.5361 52.5601 76.4309 55.7324 77.651 55.0003C78.8711 54.2683 77.5696 52.1534 77.2443 49.3878C75.9428 46.1342 74.56 37.5122 74.56 37.2681C74.56 37.0241 73.6653 33.2011 73.9907 28.8901C74.8854 22.2202 76.9189 23.6843 77.2443 23.847C77.5696 24.0097 78.0577 26.5312 78.5457 27.5886C79.0338 28.6461 79.1151 29.2968 79.8472 31.493C80.5792 33.6892 81.5553 33.1861 81.5553 32.7131C81.5553 31.4827 81.2299 30.7609 81.2299 30.2729C81.0673 28.6461 80.2539 21.1627 76.0242 18.7225Z" fill="#242322"/>
<circle cx="96.3585" cy="12.2155" r="4.47372" fill="#242322"/>
<path d="M82.1593 18.5596C103.226 24.0907 107.185 9.39526 107.537 0.664725C111.035 -2.67023 110.384 7.33464 107.537 13.1098C104.691 18.885 105.574 24.8392 106.399 27.019C107.537 30.0286 108.839 39.4099 109.49 44.5885C109.679 47.4626 110.026 53.4546 109.896 54.4307C109.734 55.6508 109.639 56.6269 108.351 56.6269C107.063 56.6269 107.293 55.6508 107.049 55.0001C107.049 47.6795 105.097 42.3923 104.04 40.2775C102.982 38.1626 102.413 38.488 102.006 38.8134C101.193 38.732 93.7096 50.8517 91.3507 54.4307C89.5896 55.8238 88.6665 53.78 89.3172 52.7226C89.968 51.6651 94.3603 42.311 94.6044 40.4402C100.298 23.1147 89.8053 23.44 83.6234 21.0812C80.0106 19.7026 81.2724 18.3268 82.1593 18.5596Z" fill="#242322"/>
<path d="M101.031 23.135C100.831 23.3156 100.674 23.5381 100.557 23.7586C100.556 23.7576 100.554 23.7567 100.553 23.7557C100.349 23.6005 100.071 23.465 99.7729 23.3932C99.475 23.3214 99.1321 23.3076 98.8104 23.4267C98.4789 23.5495 98.1981 23.8034 98.0245 24.2106C97.7357 24.8874 97.934 25.5007 98.2544 25.9642C98.5698 26.4206 99.0207 26.7623 99.3242 26.9502L99.3331 26.9557L99.3424 26.9606C99.6891 27.1431 99.9967 27.2775 100.279 27.4007C100.338 27.4266 100.396 27.452 100.453 27.4773C100.784 27.6234 101.089 27.7677 101.423 27.9836L101.687 28.1547L101.845 27.8825C102.203 27.2662 102.38 26.9977 102.804 26.4467C103.044 26.136 103.415 25.4675 103.541 24.7811C103.605 24.4355 103.611 24.0592 103.482 23.7151C103.348 23.3598 103.08 23.0662 102.653 22.8855C102.326 22.7472 102.018 22.7147 101.735 22.7706C101.454 22.8262 101.22 22.9647 101.031 23.135Z" fill="#FAB91C" stroke="white" stroke-width="0.6"/>
<path d="M0 64.8681C17.324 59.7211 63.8497 52.6779 110.94 65.0306C96.7547 63.4775 54.7073 61.2707 0 64.8681Z" fill="#E8E8E8"/>
<path d="M13.4543 84.7537C13.2359 84.8265 12.9728 84.8853 12.6648 84.9301C12.3569 84.9749 12.049 84.9972 11.741 84.9972C11.1811 84.9972 10.7024 84.9525 10.3049 84.8629C9.91296 84.7733 9.49583 84.6221 9.05352 84.4094C8.56081 84.1742 7.93092 83.8495 7.16387 83.4351C6.39681 83.0208 5.82852 82.6933 5.45898 82.4525C4.56315 82.2174 3.7765 81.859 3.09902 81.3775C2.42155 80.8904 1.89245 80.2773 1.51172 79.5383C1.13099 78.7936 0.940625 77.9398 0.940625 76.9767C0.940625 75.8346 1.20098 74.8267 1.72168 73.9533C2.24238 73.0799 2.94505 72.4052 3.82969 71.9293C4.71992 71.4534 5.69414 71.2154 6.75234 71.2154C7.80495 71.2154 8.77077 71.4506 9.64981 71.9209C10.5288 72.3912 11.2259 73.0575 11.741 73.9197C12.2617 74.7819 12.5221 75.773 12.5221 76.8928C12.5221 77.8614 12.3121 78.7348 11.8922 79.5131C11.4779 80.2913 10.9096 80.9324 10.1873 81.4363C9.47064 81.9402 8.66159 82.279 7.76016 82.4525C8.6 82.8556 9.27188 83.158 9.77578 83.3596C10.2853 83.5667 10.8144 83.7319 11.3631 83.8551C11.9118 83.9838 12.5753 84.0818 13.3535 84.149L13.4543 84.7537ZM7.0127 81.9318C7.66777 81.9318 8.26406 81.761 8.80156 81.4195C9.34466 81.0724 9.77298 80.5601 10.0865 79.8826C10.4057 79.2051 10.5652 78.3877 10.5652 77.4303C10.5652 76.4112 10.3917 75.4762 10.0445 74.6252C9.6974 73.7741 9.21309 73.1023 8.5916 72.6096C7.97012 72.1112 7.26185 71.8621 6.4668 71.8621C5.80612 71.8621 5.20423 72.0413 4.66113 72.3996C4.11803 72.7523 3.68971 73.2618 3.37617 73.9281C3.06263 74.5888 2.90586 75.3586 2.90586 76.2377C2.90586 77.3687 3.08783 78.3653 3.45176 79.2275C3.82129 80.0898 4.3168 80.756 4.93828 81.2263C5.56536 81.6967 6.25684 81.9318 7.0127 81.9318ZM18.9553 71.8621C18.7257 71.9461 18.429 72.0245 18.065 72.0972C17.7627 72.1588 17.5443 72.2288 17.41 72.3072C17.2812 72.38 17.1804 72.5256 17.1076 72.7439C17.0404 72.9567 17.0068 73.2982 17.0068 73.7685V77.3547C17.0068 78.704 17.2784 79.7622 17.8215 80.5293C18.3702 81.2907 19.2996 81.6715 20.6098 81.6715C23.0117 81.6715 24.2127 80.1849 24.2127 77.2119V73.9113C24.2127 73.413 24.1763 73.0491 24.1035 72.8195C24.0363 72.59 23.9299 72.4332 23.7844 72.3492C23.6388 72.2596 23.3952 72.1728 23.0537 72.0888C22.729 72.0049 22.463 71.9265 22.2559 71.8537V71.4254H26.7826L26.7994 71.8621C26.7154 71.9069 26.623 71.9433 26.5223 71.9713C26.4271 71.9937 26.2983 72.0189 26.1359 72.0469C25.9232 72.086 25.7524 72.1252 25.6236 72.1644C25.4949 72.198 25.3745 72.2596 25.2625 72.3492C25.1561 72.4332 25.0805 72.5508 25.0357 72.7019C24.9462 73.0099 24.9014 73.3682 24.9014 73.7769C24.9014 74.0457 24.907 74.4712 24.9182 75.0535C24.9294 75.6358 24.935 76.0725 24.935 76.3637C24.935 77.6402 24.823 78.718 24.599 79.5971C24.3807 80.4761 23.9132 81.1928 23.1965 81.7471C22.4854 82.3013 21.4356 82.5785 20.0471 82.5785C19.2408 82.5785 18.4906 82.4525 17.7963 82.2006C17.102 81.943 16.5253 81.5455 16.0662 81.008C15.6127 80.4705 15.3439 79.7986 15.26 78.9924C15.1928 78.4101 15.1592 77.6738 15.1592 76.7836C15.1592 76.2685 15.1676 75.759 15.1844 75.2551C15.1956 74.5832 15.2012 74.0849 15.2012 73.7601C15.2012 73.3458 15.1732 73.0239 15.1172 72.7943C15.0612 72.5704 14.9212 72.4024 14.6973 72.2904C14.4789 72.1784 14.1822 72.0749 13.807 71.9797C13.6223 71.9293 13.4767 71.8873 13.3703 71.8537L13.3955 71.4254H18.9385L18.9553 71.8621ZM31.2002 80.1765C31.2002 80.6021 31.2366 80.9156 31.3094 81.1172C31.3878 81.3187 31.4913 81.4531 31.6201 81.5203C31.7545 81.5875 31.9645 81.6463 32.25 81.6967C32.5803 81.7527 32.8743 81.8254 33.1318 81.915L33.115 82.3601H27.5301V81.9234C27.6924 81.8506 27.838 81.8002 27.9668 81.7722C28.1012 81.7387 28.2691 81.7051 28.4707 81.6715C28.7227 81.6379 28.9074 81.5903 29.025 81.5287C29.1426 81.4615 29.2322 81.3159 29.2938 81.092C29.3609 80.868 29.3945 80.5125 29.3945 80.0254V73.7097C29.3945 73.2506 29.3553 72.9119 29.277 72.6935C29.1986 72.4752 29.095 72.3352 28.9662 72.2736C28.843 72.212 28.6583 72.1644 28.4119 72.1308C28.2104 72.0972 28.0424 72.0637 27.908 72.0301C27.7792 71.9965 27.6421 71.9377 27.4965 71.8537L27.5133 71.4254H33.0814L33.0982 71.8621C32.9807 71.9069 32.8127 71.9545 32.5943 72.0049C32.2864 72.0832 32.04 72.1616 31.8553 72.24C31.6705 72.3184 31.5137 72.4416 31.385 72.6096C31.2618 72.7719 31.2002 72.9959 31.2002 73.2814V80.1765ZM44.4109 74.4572C44.3382 74.3844 44.2598 74.2836 44.1758 74.1549C44.0918 74.0205 44.0106 73.8833 43.9322 73.7433C43.9154 73.7153 43.8706 73.6398 43.7979 73.5166C43.7251 73.3934 43.6579 73.287 43.5963 73.1974C43.5347 73.1079 43.4759 73.0351 43.4199 72.9791C43.0448 72.604 42.6277 72.324 42.1686 72.1392C41.715 71.9545 41.2363 71.8621 40.7324 71.8621C40.0046 71.8621 39.3243 72.0525 38.6916 72.4332C38.0645 72.8083 37.5606 73.357 37.1799 74.0793C36.8048 74.8015 36.6172 75.6582 36.6172 76.6492C36.6172 77.6626 36.7992 78.55 37.1631 79.3115C37.5326 80.0674 38.0533 80.6525 38.7252 81.0668C39.4027 81.4755 40.1893 81.6799 41.0852 81.6799C41.8466 81.6799 42.5213 81.5231 43.1092 81.2096C43.7027 80.8904 44.1618 80.4229 44.4865 79.807L44.898 79.8658L44.8225 81.4531C44.2122 81.7946 43.5067 82.069 42.7061 82.2762C41.911 82.4777 41.1691 82.5785 40.4805 82.5785C39.3831 82.5785 38.3921 82.3517 37.5074 81.8982C36.6228 81.4447 35.9257 80.7952 35.4162 79.9498C34.9067 79.1043 34.652 78.1161 34.652 76.9851C34.652 75.9157 34.9123 74.9415 35.433 74.0625C35.9537 73.1834 36.6928 72.4892 37.6502 71.9797C38.6076 71.4702 39.7134 71.2154 40.9676 71.2154C42.1154 71.2154 43.28 71.445 44.4613 71.9041L44.8057 74.4404L44.4109 74.4572ZM50.7014 76.2629L54.5311 72.4668C54.5535 72.3996 54.5647 72.338 54.5647 72.282C54.5647 72.1252 54.4975 72.0217 54.3631 71.9713C54.2287 71.9209 54.0244 71.8817 53.75 71.8537C53.5316 71.8313 53.3693 71.8033 53.2629 71.7697C53.1621 71.7361 53.1117 71.6717 53.1117 71.5765C53.1117 71.5597 53.1257 71.5094 53.1537 71.4254H57.8904L57.924 71.5765C57.924 71.6493 57.8176 71.7221 57.6049 71.7949C57.3921 71.8677 57.101 71.9433 56.7314 72.0217C56.1939 72.1392 55.7964 72.3044 55.5389 72.5172L52.2803 75.8597L56.2107 81.2683C56.2835 81.3467 56.4067 81.4223 56.5803 81.4951C56.7594 81.5623 56.9974 81.6435 57.2941 81.7387C57.6077 81.8338 57.8456 81.9178 58.008 81.9906C58.176 82.0634 58.26 82.1362 58.26 82.209C58.26 82.2706 58.2488 82.3209 58.2264 82.3601H52.4818C52.4482 82.2874 52.4314 82.2398 52.4314 82.2174C52.4314 82.1334 52.4818 82.0746 52.5826 82.041C52.689 82.0018 52.8542 81.9654 53.0781 81.9318C53.3469 81.8926 53.5484 81.8478 53.6828 81.7974C53.8228 81.7415 53.8928 81.6435 53.8928 81.5035C53.8928 81.4475 53.8452 81.3579 53.75 81.2347L50.735 76.8172H49.9791V81.3187C49.9791 81.4923 50.0351 81.6239 50.1471 81.7135C50.2647 81.7974 50.4046 81.8534 50.567 81.8814C50.7294 81.9038 50.9365 81.9206 51.1885 81.9318C51.4628 81.9486 51.6616 81.9738 51.7848 82.0074C51.9079 82.0354 51.9695 82.0998 51.9695 82.2006C51.9695 82.2118 51.9555 82.265 51.9275 82.3601H46.3006C46.2782 82.293 46.267 82.2454 46.267 82.2174C46.267 82.1222 46.3286 82.0578 46.4518 82.0242C46.5749 81.985 46.7625 81.9514 47.0145 81.9234C47.2608 81.8898 47.4596 81.8562 47.6107 81.8226C47.7619 81.789 47.8935 81.7275 48.0055 81.6379C48.1175 81.5483 48.1734 81.4251 48.1734 81.2683V72.5676C48.1734 72.3492 48.0699 72.1952 47.8627 72.1056C47.6555 72.0161 47.3644 71.9433 46.9893 71.8873C46.7317 71.8425 46.5441 71.8005 46.4266 71.7613C46.3146 71.7221 46.2586 71.6605 46.2586 71.5765C46.2586 71.5597 46.2726 71.5094 46.3006 71.4254H51.8939C51.9163 71.4982 51.9275 71.5457 51.9275 71.5681C51.9275 71.6633 51.866 71.7305 51.7428 71.7697C51.6196 71.8089 51.4264 71.8481 51.1633 71.8873C50.9113 71.9265 50.707 71.9657 50.5502 72.0049C50.3934 72.0441 50.2591 72.1084 50.1471 72.198C50.0351 72.2876 49.9791 72.4108 49.9791 72.5676V76.2629H50.7014ZM69.8918 73.3654L69.6902 72.8531C69.6007 72.6291 69.5307 72.4612 69.4803 72.3492C69.4131 72.2932 69.1835 72.1896 68.7916 72.0385C68.4837 71.9153 68.2625 71.8229 68.1281 71.7613C67.9938 71.6997 67.9266 71.6437 67.9266 71.5933C67.9266 71.5821 67.935 71.5541 67.9518 71.5094C67.9686 71.4646 67.9798 71.4366 67.9854 71.4254H73.3772C73.3828 71.4422 73.3912 71.4702 73.4023 71.5094C73.4191 71.5485 73.4275 71.5765 73.4275 71.5933C73.4275 71.7221 73.366 71.8061 73.2428 71.8453C73.1252 71.8845 72.9376 71.9153 72.6801 71.9377C72.3945 71.9601 72.179 71.9993 72.0334 72.0553C71.8878 72.1056 71.815 72.2148 71.815 72.3828C71.815 72.5004 72.1286 73.5502 72.7557 75.5322C73.3884 77.5142 73.8055 78.7964 74.007 79.3787L74.2422 78.6648C75.5523 74.7512 76.2074 72.6599 76.2074 72.3912C76.2074 72.2176 76.1234 72.0972 75.9555 72.0301C75.7875 71.9573 75.5412 71.8985 75.2164 71.8537C75.082 71.8369 74.9505 71.8145 74.8217 71.7865C74.6929 71.7585 74.5921 71.7249 74.5193 71.6857L74.469 71.5933L74.5193 71.4254H78.8613C78.8837 71.4254 78.9117 71.4366 78.9453 71.459C78.9789 71.4758 79.0013 71.4954 79.0125 71.5178C79.0125 71.6017 78.9481 71.6689 78.8193 71.7193C78.6906 71.7641 78.4834 71.8173 78.1979 71.8789C77.7779 71.9685 77.4448 72.0665 77.1984 72.1728C76.9521 72.2736 76.7897 72.4304 76.7113 72.6431C76.6497 72.8167 76.5854 73.0183 76.5182 73.2478C76.451 73.4718 76.4034 73.6314 76.3754 73.7265C76.3418 73.8609 76.3138 73.9617 76.2914 74.0289L73.7803 82.3517C73.7467 82.4637 73.6291 82.5197 73.4275 82.5197C73.338 82.5197 73.2624 82.5085 73.2008 82.4861C73.1448 82.4637 73.1 82.4189 73.0664 82.3517C72.96 82.1446 72.8537 81.8394 72.7473 81.4363L72.5961 80.9576L70.2109 74.0121L68.0357 80.2689C67.9854 80.4089 67.9154 80.6357 67.8258 80.9492C67.7194 81.3019 67.6298 81.5791 67.557 81.7806C67.4842 81.9822 67.4031 82.1726 67.3135 82.3517C67.2799 82.4245 67.2351 82.4721 67.1791 82.4945C67.1231 82.5225 67.0503 82.5365 66.9607 82.5365C66.7928 82.5365 66.65 82.4189 66.5324 82.1838C66.4148 81.9486 66.2973 81.6463 66.1797 81.2767L66.0957 81.008L64.9451 77.9258C64.3236 76.2349 63.6938 74.5552 63.0555 72.8867C62.9659 72.6571 62.8343 72.4864 62.6607 72.3744C62.4928 72.2568 62.266 72.1448 61.9805 72.0385C61.7677 71.9601 61.6053 71.8929 61.4934 71.8369C61.3814 71.7809 61.2778 71.7053 61.1826 71.6101L61.2414 71.4254H66.6416C66.6472 71.4422 66.6556 71.4702 66.6668 71.5094C66.678 71.5429 66.6836 71.5709 66.6836 71.5933C66.6836 71.7053 66.6276 71.7837 66.5156 71.8285C66.4092 71.8677 66.2469 71.9013 66.0285 71.9293C65.7598 71.9629 65.5526 72.0133 65.407 72.0804C65.2671 72.142 65.1971 72.2596 65.1971 72.4332C65.1971 72.5116 65.4966 73.4018 66.0957 75.1039C66.7004 76.806 67.2127 78.2365 67.6326 79.3955L69.8918 73.3654ZM80.8098 77.8922L80.6502 78.2953C80.3982 78.9504 80.1995 79.4907 80.0539 79.9162C79.9083 80.3361 79.8355 80.6609 79.8355 80.8904C79.8355 81.092 79.9083 81.2571 80.0539 81.3859C80.2051 81.5147 80.3758 81.6099 80.5662 81.6715C80.7622 81.7331 81.0001 81.7918 81.2801 81.8478L81.4397 81.8814V82.3601H77.4756V81.9234C77.554 81.8618 77.6324 81.8114 77.7107 81.7722C77.7947 81.7275 77.8983 81.6799 78.0215 81.6295C78.2174 81.5511 78.3742 81.4699 78.4918 81.3859C78.615 81.3019 78.7242 81.1704 78.8193 80.9912C78.8753 80.8792 78.9313 80.7532 78.9873 80.6133C79.0489 80.4677 79.0881 80.3725 79.1049 80.3277L79.2057 80.0674L82.3467 72.0217C82.3691 71.9601 82.3859 71.8537 82.3971 71.7025C82.4027 71.5905 82.4111 71.501 82.4223 71.4338C82.4391 71.361 82.4671 71.2966 82.5063 71.2406C82.7806 71.2406 83.0158 71.2686 83.2117 71.3246C83.4133 71.3806 83.6148 71.4842 83.8164 71.6353L87.6713 80.882C87.7441 81.0556 87.8281 81.1956 87.9232 81.3019C88.0184 81.4027 88.1164 81.4811 88.2172 81.5371C88.3236 81.5875 88.4663 81.6491 88.6455 81.7219C88.7967 81.7722 88.9563 81.8394 89.1242 81.9234L89.1074 82.3601H84.2195L84.2027 81.9234C84.4659 81.845 84.6898 81.7666 84.8746 81.6883C85.065 81.6099 85.2357 81.5007 85.3869 81.3607C85.5381 81.2207 85.6137 81.05 85.6137 80.8484C85.6137 80.6245 85.3337 79.793 84.7738 78.3541C84.7402 78.2701 84.7066 78.1889 84.673 78.1105C84.6451 78.0321 84.6199 77.9594 84.5975 77.8922H80.8098ZM82.6322 73.0211L81.0953 77.1531H84.2867L82.6322 73.0211ZM91.5514 73.6762C91.5514 73.2226 91.515 72.8923 91.4422 72.6851C91.3694 72.4724 91.263 72.3296 91.1231 72.2568C90.9831 72.184 90.7563 72.1168 90.4428 72.0553C90.062 71.9713 89.7877 71.9041 89.6197 71.8537L89.6365 71.4254H95.3139V71.8621C95.1515 71.9293 95.0059 71.9797 94.8772 72.0133C94.7484 72.0413 94.5776 72.0749 94.3648 72.114C94.0961 72.1588 93.8973 72.2148 93.7686 72.282C93.6398 72.3436 93.539 72.4752 93.4662 72.6767C93.399 72.8783 93.3654 73.1946 93.3654 73.6258V79.7398C93.3654 80.4173 93.4298 80.8876 93.5586 81.1508C93.693 81.4083 93.9421 81.5707 94.3061 81.6379C94.67 81.7051 95.3363 81.7387 96.3049 81.7387C96.9208 81.7387 97.4387 81.6603 97.8586 81.5035C98.2841 81.3411 98.6229 81.0192 98.8748 80.5377L99.0008 80.2857C99.0904 80.101 99.1716 79.947 99.2443 79.8238C99.3171 79.695 99.4011 79.5775 99.4963 79.4711L100 79.4879L99.4711 82.4525C98.7208 82.3909 98.1078 82.3601 97.6318 82.3601H89.6281L89.6113 81.9066C89.6953 81.8786 89.8745 81.8254 90.1488 81.7471C90.468 81.6631 90.7199 81.5819 90.9047 81.5035C91.0895 81.4195 91.2434 81.2879 91.3666 81.1088C91.4898 80.924 91.5514 80.6693 91.5514 80.3445V73.6762ZM104.938 76.2629L108.768 72.4668C108.791 72.3996 108.802 72.338 108.802 72.282C108.802 72.1252 108.735 72.0217 108.6 71.9713C108.466 71.9209 108.261 71.8817 107.987 71.8537C107.769 71.8313 107.606 71.8033 107.5 71.7697C107.399 71.7361 107.349 71.6717 107.349 71.5765C107.349 71.5597 107.363 71.5094 107.391 71.4254H112.128L112.161 71.5765C112.161 71.6493 112.055 71.7221 111.842 71.7949C111.629 71.8677 111.338 71.9433 110.969 72.0217C110.431 72.1392 110.034 72.3044 109.776 72.5172L106.517 75.8597L110.448 81.2683C110.521 81.3467 110.644 81.4223 110.817 81.4951C110.997 81.5623 111.235 81.6435 111.531 81.7387C111.845 81.8338 112.083 81.9178 112.245 81.9906C112.413 82.0634 112.497 82.1362 112.497 82.209C112.497 82.2706 112.486 82.3209 112.463 82.3601H106.719C106.685 82.2874 106.669 82.2398 106.669 82.2174C106.669 82.1334 106.719 82.0746 106.82 82.041C106.926 82.0018 107.091 81.9654 107.315 81.9318C107.584 81.8926 107.786 81.8478 107.92 81.7974C108.06 81.7415 108.13 81.6435 108.13 81.5035C108.13 81.4475 108.082 81.3579 107.987 81.2347L104.972 76.8172H104.216V81.3187C104.216 81.4923 104.272 81.6239 104.384 81.7135C104.502 81.7974 104.642 81.8534 104.804 81.8814C104.966 81.9038 105.174 81.9206 105.426 81.9318C105.7 81.9486 105.899 81.9738 106.022 82.0074C106.145 82.0354 106.207 82.0998 106.207 82.2006C106.207 82.2118 106.193 82.265 106.165 82.3601H100.538C100.515 82.293 100.504 82.2454 100.504 82.2174C100.504 82.1222 100.566 82.0578 100.689 82.0242C100.812 81.985 101 81.9514 101.252 81.9234C101.498 81.8898 101.697 81.8562 101.848 81.8226C101.999 81.789 102.131 81.7275 102.243 81.6379C102.355 81.5483 102.411 81.4251 102.411 81.2683V72.5676C102.411 72.3492 102.307 72.1952 102.1 72.1056C101.893 72.0161 101.602 71.9433 101.226 71.8873C100.969 71.8425 100.781 71.8005 100.664 71.7613C100.552 71.7221 100.496 71.6605 100.496 71.5765C100.496 71.5597 100.51 71.5094 100.538 71.4254H106.131C106.153 71.4982 106.165 71.5457 106.165 71.5681C106.165 71.6633 106.103 71.7305 105.98 71.7697C105.857 71.8089 105.664 71.8481 105.4 71.8873C105.148 71.9265 104.944 71.9657 104.787 72.0049C104.631 72.0441 104.496 72.1084 104.384 72.198C104.272 72.2876 104.216 72.4108 104.216 72.5676V76.2629H104.938Z" fill="#FAB91C"/>
<path d="M13.4543 84.7537L13.5631 85.08L13.8419 84.9871L13.7936 84.6971L13.4543 84.7537ZM10.3049 84.8629L10.2282 85.1982L10.2293 85.1985L10.3049 84.8629ZM9.05352 84.4094L9.20263 84.0994L9.20169 84.0989L9.05352 84.4094ZM5.45898 82.4525L5.64677 82.1643L5.60015 82.1339L5.54633 82.1198L5.45898 82.4525ZM3.09902 81.3775L2.8982 81.6568L2.89974 81.6579L3.09902 81.3775ZM1.51172 79.5383L1.20543 79.6949L1.20591 79.6958L1.51172 79.5383ZM3.82969 71.9293L3.66751 71.6259L3.66671 71.6263L3.82969 71.9293ZM11.741 73.9197L11.4457 74.0961L11.4465 74.0975L11.741 73.9197ZM11.8922 79.5131L11.5894 79.3497L11.5885 79.3514L11.8922 79.5131ZM10.1873 81.4363L9.99047 81.1542L9.98944 81.1549L10.1873 81.4363ZM7.76016 82.4525L7.69512 82.1147L6.67191 82.3117L7.6113 82.7626L7.76016 82.4525ZM9.77578 83.3596L9.90535 83.0409L9.90354 83.0402L9.77578 83.3596ZM11.3631 83.8551L11.4417 83.5201L11.4384 83.5194L11.3631 83.8551ZM13.3535 84.149L13.6928 84.0925L13.649 83.8292L13.3831 83.8063L13.3535 84.149ZM8.80156 81.4195L8.98605 81.7099L8.98683 81.7094L8.80156 81.4195ZM10.0865 79.8826L9.77532 79.736L9.77434 79.7381L10.0865 79.8826ZM8.5916 72.6096L8.37641 72.8779L8.37789 72.8791L8.5916 72.6096ZM4.66113 72.3996L4.84851 72.6881L4.85058 72.6867L4.66113 72.3996ZM3.37617 73.9281L3.68695 74.0756L3.68743 74.0746L3.37617 73.9281ZM3.45176 79.2275L3.13483 79.3613L3.13557 79.363L3.45176 79.2275ZM4.93828 81.2263L4.7307 81.5007L4.73188 81.5015L4.93828 81.2263ZM13.3455 84.4273C13.1518 84.4919 12.9097 84.5468 12.6153 84.5896L12.7144 85.2705C13.0359 85.2237 13.32 85.1611 13.5631 85.08L13.3455 84.4273ZM12.6153 84.5896C12.3236 84.6321 12.0322 84.6532 11.741 84.6532V85.3412C12.0657 85.3412 12.3902 85.3176 12.7144 85.2705L12.6153 84.5896ZM11.741 84.6532C11.1978 84.6532 10.7459 84.6096 10.3805 84.5273L10.2293 85.1985C10.6589 85.2953 11.1644 85.3412 11.741 85.3412V84.6532ZM10.3815 84.5275C10.0194 84.4447 9.62669 84.3033 9.20263 84.0994L8.9044 84.7194C9.36498 84.9409 9.80651 85.1018 10.2282 85.1982L10.3815 84.5275ZM9.20169 84.0989C8.71625 83.8672 8.09196 83.5455 7.32735 83.1325L7.00038 83.7378C7.76989 84.1535 8.40536 84.4812 8.90534 84.7198L9.20169 84.0989ZM7.32735 83.1325C6.56225 82.7192 6.00406 82.3971 5.64677 82.1643L5.2712 82.7407C5.65297 82.9895 6.23137 83.3224 7.00038 83.7378L7.32735 83.1325ZM5.54633 82.1198C4.68609 81.894 3.93828 81.552 3.29831 81.0971L2.89974 81.6579C3.61471 82.1661 4.44021 82.5407 5.37164 82.7852L5.54633 82.1198ZM3.29984 81.0982C2.66632 80.6427 2.17327 80.0713 1.81753 79.3807L1.20591 79.6958C1.61162 80.4834 2.17678 81.1381 2.89821 81.6568L3.29984 81.0982ZM1.81801 79.3817C1.46558 78.6924 1.28463 77.8936 1.28463 76.9767H0.596625C0.596625 77.9859 0.796402 78.8949 1.20543 79.6949L1.81801 79.3817ZM1.28463 76.9767C1.28463 75.8887 1.53199 74.9433 2.01716 74.1295L1.4262 73.7772C0.869961 74.7102 0.596625 75.7804 0.596625 76.9767H1.28463ZM2.01716 74.1295C2.50639 73.3088 3.16356 72.6783 3.99266 72.2322L3.66671 71.6263C2.72654 72.1321 1.97837 72.8509 1.4262 73.7772L2.01716 74.1295ZM3.99187 72.2326C4.82977 71.7847 5.74789 71.5594 6.75234 71.5594V70.8714C5.64039 70.8714 4.61007 71.122 3.66751 71.6259L3.99187 72.2326ZM6.75234 71.5594C7.75159 71.5594 8.66121 71.7821 9.48752 72.2242L9.81209 71.6176C8.88033 71.119 7.8583 70.8714 6.75234 70.8714V71.5594ZM9.48752 72.2242C10.3111 72.6648 10.9624 73.2871 11.4457 74.0961L12.0363 73.7433C11.4895 72.8279 10.7466 72.1176 9.81209 71.6176L9.48752 72.2242ZM11.4465 74.0975C11.9313 74.9003 12.1781 75.8284 12.1781 76.8928H12.8661C12.8661 75.7175 12.5921 74.6636 12.0355 73.7419L11.4465 74.0975ZM12.1781 76.8928C12.1781 77.8099 11.9798 78.6263 11.5894 79.3497L12.1949 79.6764C12.6445 78.8433 12.8661 77.9128 12.8661 76.8928H12.1781ZM11.5885 79.3514C11.1998 80.0817 10.6681 80.6815 9.99047 81.1542L10.3841 81.7184C11.1511 81.1833 11.756 80.501 12.1958 79.6747L11.5885 79.3514ZM9.98944 81.1549C9.31447 81.6295 8.55112 81.9499 7.69512 82.1147L7.8252 82.7903C8.77206 82.608 9.62681 82.2509 10.3852 81.7177L9.98944 81.1549ZM7.6113 82.7626C8.45393 83.1671 9.13371 83.4732 9.64802 83.6789L9.90354 83.0402C9.41004 82.8428 8.74607 82.5442 7.90902 82.1424L7.6113 82.7626ZM9.64621 83.6782C10.1737 83.8927 10.7209 84.0635 11.2877 84.1907L11.4384 83.5194C10.9078 83.4003 10.3969 83.2407 9.90535 83.0409L9.64621 83.6782ZM11.2845 84.19C11.8541 84.3237 12.535 84.4236 13.3239 84.4917L13.3831 83.8063C12.6156 83.74 11.9694 83.644 11.4417 83.5202L11.2845 84.19ZM13.0142 84.2056L13.115 84.8102L13.7936 84.6971L13.6928 84.0925L13.0142 84.2056ZM7.0127 82.2758C7.73114 82.2758 8.39176 82.0875 8.98605 81.7099L8.61707 81.1292C8.13637 81.4346 7.60441 81.5878 7.0127 81.5878V82.2758ZM8.98683 81.7094C9.59354 81.3216 10.0621 80.7545 10.3987 80.0271L9.77434 79.7381C9.48391 80.3656 9.09578 80.8232 8.6163 81.1297L8.98683 81.7094ZM10.3977 80.0292C10.7436 79.295 10.9092 78.4247 10.9092 77.4303H10.2212C10.2212 78.3506 10.0677 79.1153 9.77532 79.736L10.3977 80.0292ZM10.9092 77.4303C10.9092 76.3715 10.7288 75.3918 10.3631 74.4953L9.72601 74.7551C10.0546 75.5606 10.2212 76.4509 10.2212 77.4303H10.9092ZM10.3631 74.4953C9.99716 73.5982 9.48007 72.8749 8.80531 72.34L8.37789 72.8791C8.9461 73.3296 9.39764 73.9501 9.72601 74.7551L10.3631 74.4953ZM8.80679 72.3412C8.12439 71.794 7.34026 71.5181 6.4668 71.5181V72.2061C7.18344 72.2061 7.81584 72.4285 8.37641 72.8779L8.80679 72.3412ZM6.4668 71.5181C5.73987 71.5181 5.07192 71.7164 4.47168 72.1125L4.85058 72.6867C5.33655 72.3661 5.87237 72.2061 6.4668 72.2061V71.5181ZM4.47376 72.1111C3.86988 72.5033 3.4019 73.0655 3.06491 73.7816L3.68743 74.0746C3.97753 73.4581 4.36619 73.0013 4.8485 72.6881L4.47376 72.1111ZM3.06539 73.7806C2.726 74.4958 2.56186 75.3178 2.56186 76.2377H3.24986C3.24986 75.3995 3.39926 74.6818 3.68695 74.0756L3.06539 73.7806ZM2.56186 76.2377C2.56186 77.4053 2.74972 78.4489 3.13483 79.3613L3.76868 79.0938C3.42593 78.2817 3.24986 77.3321 3.24986 76.2377H2.56186ZM3.13557 79.363C3.52385 80.269 4.05274 80.9876 4.7307 81.5007L5.14587 80.952C4.58086 80.5245 4.11873 79.9105 3.76794 79.092L3.13557 79.363ZM4.73188 81.5015C5.41614 82.0147 6.1795 82.2758 7.0127 82.2758V81.5878C6.33417 81.5878 5.71459 81.3786 5.14468 80.9511L4.73188 81.5015ZM18.9553 71.8621L19.0735 72.1851L19.3086 72.0991L19.299 71.8489L18.9553 71.8621ZM18.065 72.0972L17.9976 71.7599L17.9964 71.7602L18.065 72.0972ZM17.41 72.3072L17.5792 72.6067L17.5833 72.6043L17.41 72.3072ZM17.1076 72.7439L16.7812 72.6351L16.7796 72.6403L17.1076 72.7439ZM17.8215 80.5293L17.5407 80.7281L17.5424 80.7304L17.8215 80.5293ZM24.1035 72.8195L23.7733 72.9162L23.7756 72.9235L24.1035 72.8195ZM23.7844 72.3492L23.604 72.6423L23.6125 72.6472L23.7844 72.3492ZM23.0537 72.0888L22.9676 72.4219L22.9716 72.4229L23.0537 72.0888ZM22.2559 71.8537H21.9119V72.0974L22.1418 72.1782L22.2559 71.8537ZM22.2559 71.4254V71.0814H21.9119V71.4254H22.2559ZM26.7826 71.4254L27.1264 71.4122L27.1136 71.0814H26.7826V71.4254ZM26.7994 71.8621L26.9613 72.1656L27.1514 72.0642L27.1432 71.8489L26.7994 71.8621ZM26.5223 71.9713L26.6011 72.3064L26.6143 72.3027L26.5223 71.9713ZM26.1359 72.0469L26.0775 71.7078L26.0736 71.7085L26.1359 72.0469ZM25.6236 72.1644L25.7105 72.4976L25.7238 72.4935L25.6236 72.1644ZM25.2625 72.3492L25.4757 72.6192L25.4774 72.6178L25.2625 72.3492ZM25.0357 72.7019L24.7059 72.6042L24.7054 72.6058L25.0357 72.7019ZM24.599 79.5971L24.2657 79.5121L24.2652 79.5141L24.599 79.5971ZM23.1965 81.7471L22.986 81.4749L22.985 81.4757L23.1965 81.7471ZM17.7963 82.2006L17.6766 82.5231L17.6789 82.5239L17.7963 82.2006ZM16.0662 81.008L15.8033 81.2298L15.8046 81.2314L16.0662 81.008ZM15.26 78.9924L15.6021 78.9567L15.6017 78.9529L15.26 78.9924ZM15.1844 75.2551L15.5282 75.2665L15.5283 75.2608L15.1844 75.2551ZM15.1172 72.7943L15.4514 72.7128L15.4509 72.7109L15.1172 72.7943ZM14.6973 72.2904L14.5403 72.5965L14.5434 72.5981L14.6973 72.2904ZM13.807 71.9797L13.7165 72.3116L13.7224 72.3131L13.807 71.9797ZM13.3703 71.8537L13.0269 71.8335L13.0112 72.101L13.2667 72.1817L13.3703 71.8537ZM13.3955 71.4254V71.0814H13.0711L13.0521 71.4052L13.3955 71.4254ZM18.9385 71.4254L19.2822 71.4122L19.2695 71.0814H18.9385V71.4254ZM18.8371 71.539C18.6302 71.6147 18.3521 71.689 17.9976 71.7599L18.1325 72.4346C18.5058 72.3599 18.8213 72.2774 19.0735 72.1851L18.8371 71.539ZM17.9964 71.7602C17.686 71.8234 17.4217 71.9021 17.2366 72.0101L17.5833 72.6043C17.667 72.5555 17.8394 72.4943 18.1337 72.4343L17.9964 71.7602ZM17.2407 72.0077C17.0059 72.1404 16.8666 72.3791 16.7813 72.6351L17.434 72.8527C17.4942 72.6721 17.5564 72.6196 17.5792 72.6067L17.2407 72.0077ZM16.7796 72.6403C16.6955 72.9066 16.6628 73.2931 16.6628 73.7685H17.3508C17.3508 73.3034 17.3853 73.0068 17.4356 72.8475L16.7796 72.6403ZM16.6628 73.7685V77.3547H17.3508V73.7685H16.6628ZM16.6628 77.3547C16.6628 78.7454 16.9421 79.8826 17.5407 80.7281L18.1022 80.3305C17.6147 79.6419 17.3508 78.6626 17.3508 77.3547H16.6628ZM17.5424 80.7304C18.179 81.6139 19.236 82.0155 20.6098 82.0155V81.3275C19.3632 81.3275 18.5613 80.9676 18.1006 80.3282L17.5424 80.7304ZM20.6098 82.0155C21.8855 82.0155 22.8974 81.6171 23.5795 80.7728C24.2504 79.9424 24.5567 78.7358 24.5567 77.2119H23.8687C23.8687 78.6611 23.5745 79.6842 23.0444 80.3404C22.5256 80.9826 21.736 81.3275 20.6098 81.3275V82.0155ZM24.5567 77.2119V73.9113H23.8687V77.2119H24.5567ZM24.5567 73.9113C24.5567 73.4071 24.5211 72.9984 24.4314 72.7155L23.7756 72.9235C23.8315 73.0997 23.8687 73.4189 23.8687 73.9113H24.5567ZM24.4337 72.7229C24.3522 72.4444 24.2058 72.1952 23.9563 72.0512L23.6125 72.6472C23.6541 72.6712 23.7205 72.7355 23.7734 72.9161L24.4337 72.7229ZM23.9647 72.0562C23.771 71.9371 23.4835 71.8403 23.1359 71.7548L22.9716 72.4229C23.307 72.5054 23.5066 72.5822 23.6041 72.6422L23.9647 72.0562ZM23.1398 71.7558C22.8202 71.6731 22.5644 71.5975 22.3699 71.5291L22.1418 72.1782C22.3616 72.2555 22.6378 72.3366 22.9676 72.4219L23.1398 71.7558ZM22.5999 71.8537V71.4254H21.9119V71.8537H22.5999ZM22.2559 71.7694H26.7826V71.0814H22.2559V71.7694ZM26.4389 71.4386L26.4557 71.8753L27.1432 71.8489L27.1264 71.4122L26.4389 71.4386ZM26.6375 71.5586C26.5778 71.5904 26.5091 71.6179 26.4302 71.6398L26.6143 72.3027C26.737 72.2687 26.8531 72.2233 26.9613 72.1656L26.6375 71.5586ZM26.4435 71.6364C26.358 71.6565 26.237 71.6804 26.0775 71.7079L26.1944 72.3859C26.3596 72.3574 26.4961 72.3308 26.6011 72.3061L26.4435 71.6364ZM26.0736 71.7085C25.8547 71.7489 25.6698 71.7908 25.5235 71.8353L25.7238 72.4935C25.835 72.4597 25.9916 72.4232 26.1983 72.3852L26.0736 71.7085ZM25.5368 71.8316C25.3578 71.8783 25.1943 71.9632 25.0476 72.0806L25.4774 72.6178C25.5546 72.556 25.632 72.5178 25.7105 72.4973L25.5368 71.8316ZM25.0493 72.0792C24.8785 72.2141 24.7675 72.3964 24.7059 72.6042L25.3656 72.7997C25.3936 72.7051 25.4337 72.6523 25.4757 72.6192L25.0493 72.0792ZM24.7054 72.6058C24.6047 72.9522 24.5574 73.3441 24.5574 73.7769H25.2454C25.2454 73.3923 25.2876 73.0676 25.3661 72.798L24.7054 72.6058ZM24.5574 73.7769C24.5574 74.0492 24.563 74.4775 24.5742 75.0601L25.2621 75.0469C25.2509 74.4649 25.2454 74.0422 25.2454 73.7769H24.5574ZM24.5742 75.0601C24.5854 75.6419 24.591 76.0759 24.591 76.3637H25.279C25.279 76.0691 25.2733 75.6297 25.2621 75.0469L24.5742 75.0601ZM24.591 76.3637C24.591 77.6222 24.4803 78.6695 24.2657 79.5121L24.9324 79.682C25.1656 78.7665 25.279 77.6582 25.279 76.3637H24.591ZM24.2652 79.5141C24.0655 80.318 23.6415 80.968 22.986 81.4749L23.4069 82.0192C24.1848 81.4175 24.6958 80.6342 24.9329 79.68L24.2652 79.5141ZM22.985 81.4757C22.3593 81.9635 21.3981 82.2345 20.0471 82.2345V82.9225C21.4731 82.9225 22.6116 82.6392 23.408 82.0184L22.985 81.4757ZM20.0471 82.2345C19.2772 82.2345 18.567 82.1143 17.9136 81.8772L17.6789 82.5239C18.4141 82.7907 19.2045 82.9225 20.0471 82.9225V82.2345ZM17.9159 81.878C17.2739 81.6399 16.747 81.2753 16.3278 80.7846L15.8046 81.2314C16.3037 81.8157 16.9301 82.2461 17.6766 82.5231L17.9159 81.878ZM16.3291 80.7862C15.9266 80.3091 15.6801 79.7052 15.6021 78.9567L14.9178 79.028C15.0078 79.8921 15.2988 80.6319 15.8033 81.2298L16.3291 80.7862ZM15.6017 78.9529C15.5366 78.3886 15.5032 77.6666 15.5032 76.7836H14.8152C14.8152 77.681 14.849 78.4316 14.9182 79.0318L15.6017 78.9529ZM15.5032 76.7836C15.5032 76.2722 15.5115 75.7665 15.5282 75.2665L14.8406 75.2436C14.8236 75.7514 14.8152 76.2647 14.8152 76.7836H15.5032ZM15.5283 75.2608C15.5395 74.5886 15.5452 74.0879 15.5452 73.7601H14.8572C14.8572 74.0819 14.8516 74.5778 14.8404 75.2493L15.5283 75.2608ZM15.5452 73.7601C15.5452 73.3356 15.517 72.9818 15.4514 72.7128L14.783 72.8758C14.8294 73.066 14.8572 73.356 14.8572 73.7601H15.5452ZM15.4509 72.7109C15.3683 72.3805 15.1563 72.1353 14.8511 71.9827L14.5434 72.5981C14.6862 72.6695 14.7541 72.7602 14.7835 72.8777L15.4509 72.7109ZM14.8542 71.9843C14.6036 71.8558 14.2792 71.7446 13.8916 71.6462L13.7224 72.3131C14.0851 72.4051 14.3542 72.5011 14.5403 72.5965L14.8542 71.9843ZM13.8975 71.6478C13.7145 71.5979 13.574 71.5573 13.4739 71.5257L13.2667 72.1817C13.3794 72.2173 13.53 72.2607 13.7165 72.3115L13.8975 71.6478ZM13.7137 71.8739L13.7389 71.4456L13.0521 71.4052L13.0269 71.8335L13.7137 71.8739ZM13.3955 71.7694H18.9385V71.0814H13.3955V71.7694ZM18.5947 71.4386L18.6115 71.8753L19.299 71.8489L19.2822 71.4122L18.5947 71.4386ZM31.3094 81.1172L30.9857 81.234L30.9888 81.2419L31.3094 81.1172ZM31.6201 81.5203L31.461 81.8253L31.4663 81.828L31.6201 81.5203ZM32.25 81.6967L32.1902 82.0354L32.1925 82.0358L32.25 81.6967ZM33.1318 81.915L33.4756 81.928L33.4852 81.6737L33.2449 81.5901L33.1318 81.915ZM33.115 82.3601V82.7041H33.4463L33.4588 82.3731L33.115 82.3601ZM27.5301 82.3601H27.1861V82.7041H27.5301V82.3601ZM27.5301 81.9234L27.3894 81.6095L27.1861 81.7006V81.9234H27.5301ZM27.9668 81.7722L28.0399 82.1086L28.0502 82.106L27.9668 81.7722ZM28.4707 81.6715L28.4252 81.3303L28.4142 81.3321L28.4707 81.6715ZM29.025 81.5287L29.1847 81.8336L29.1957 81.8274L29.025 81.5287ZM29.2938 81.092L28.9642 80.9931L28.9621 81.0008L29.2938 81.092ZM28.9662 72.2736L28.8123 72.5813L28.8178 72.5839L28.9662 72.2736ZM28.4119 72.1308L28.3553 72.4703L28.3654 72.4717L28.4119 72.1308ZM27.908 72.0301L27.8212 72.3629L27.8246 72.3638L27.908 72.0301ZM27.4965 71.8537L27.1528 71.8402L27.1446 72.0478L27.3246 72.1517L27.4965 71.8537ZM27.5133 71.4254V71.0814H27.1825L27.1695 71.4119L27.5133 71.4254ZM33.0814 71.4254L33.4252 71.4122L33.4125 71.0814H33.0814V71.4254ZM33.0982 71.8621L33.2207 72.1836L33.4515 72.0956L33.442 71.8489L33.0982 71.8621ZM32.5943 72.0049L32.517 71.6696L32.5095 71.6715L32.5943 72.0049ZM31.385 72.6096L31.112 72.4002L31.1109 72.4016L31.385 72.6096ZM30.8562 80.1765C30.8562 80.6106 30.8919 80.9739 30.9858 81.234L31.6329 81.0003C31.5813 80.8573 31.5442 80.5935 31.5442 80.1765H30.8562ZM30.9888 81.2419C31.083 81.4842 31.2295 81.7045 31.461 81.8253L31.7792 81.2153C31.7532 81.2017 31.6925 81.1533 31.63 80.9925L30.9888 81.2419ZM31.4663 81.828C31.6464 81.9181 31.8964 81.9836 32.1902 82.0354L32.3098 81.3579C32.0325 81.309 31.8626 81.2569 31.774 81.2126L31.4663 81.828ZM32.1925 82.0358C32.5081 82.0893 32.7829 82.1579 33.0188 82.2399L33.2449 81.5901C32.9657 81.493 32.6526 81.416 32.3075 81.3575L32.1925 82.0358ZM32.7881 81.902L32.7713 82.3472L33.4588 82.3731L33.4756 81.928L32.7881 81.902ZM33.115 82.0161H27.5301V82.7041H33.115V82.0161ZM27.8741 82.3601V81.9234H27.1861V82.3601H27.8741ZM27.6708 82.2373C27.8185 82.1711 27.9408 82.1299 28.0399 82.1084L27.8937 81.4361C27.7352 81.4706 27.5664 81.5301 27.3894 81.6095L27.6708 82.2373ZM28.0502 82.106C28.1726 82.0754 28.3309 82.0435 28.5273 82.0108L28.4142 81.3321C28.2074 81.3666 28.0297 81.4019 27.8834 81.4385L28.0502 82.106ZM28.5162 82.0124C28.7784 81.9775 29.0121 81.9238 29.1846 81.8334L28.8654 81.224C28.8027 81.2568 28.6669 81.2983 28.4252 81.3305L28.5162 82.0124ZM29.1957 81.8274C29.4327 81.6919 29.5558 81.4363 29.6254 81.1832L28.9621 81.0008C28.937 81.0918 28.9103 81.1517 28.8874 81.1888C28.8651 81.2252 28.8516 81.2316 28.8543 81.23L29.1957 81.8274ZM29.6232 81.1908C29.7057 80.9159 29.7385 80.5179 29.7385 80.0254H29.0505C29.0505 80.5071 29.0162 80.8201 28.9643 80.9931L29.6232 81.1908ZM29.7385 80.0254V73.7097H29.0505V80.0254H29.7385ZM29.7385 73.7097C29.7385 73.242 29.7 72.8539 29.6007 72.5773L28.9532 72.8098C29.0107 72.9699 29.0505 73.2593 29.0505 73.7097H29.7385ZM29.6007 72.5773C29.51 72.3246 29.3636 72.0823 29.1146 71.9633L28.8178 72.5839C28.8264 72.5881 28.8871 72.6258 28.9532 72.8098L29.6007 72.5773ZM29.1201 71.9659C28.9462 71.879 28.7171 71.8253 28.4584 71.79L28.3654 72.4717C28.5994 72.5036 28.7398 72.545 28.8124 72.5813L29.1201 71.9659ZM28.4685 71.7915C28.2721 71.7588 28.1138 71.7269 27.9914 71.6963L27.8246 72.3638C27.9709 72.4004 28.1486 72.4357 28.3554 72.4702L28.4685 71.7915ZM27.9948 71.6972C27.9025 71.6731 27.7939 71.6282 27.6684 71.5557L27.3246 72.1517C27.4902 72.2472 27.656 72.3198 27.8212 72.3629L27.9948 71.6972ZM27.8402 71.8672L27.857 71.4389L27.1695 71.4119L27.1528 71.8402L27.8402 71.8672ZM27.5133 71.7694H33.0814V71.0814H27.5133V71.7694ZM32.7377 71.4386L32.7545 71.8753L33.442 71.8489L33.4252 71.4122L32.7377 71.4386ZM32.9758 71.5406C32.88 71.5771 32.7299 71.6205 32.517 71.6697L32.6717 72.3401C32.8955 72.2884 33.0813 72.2367 33.2207 72.1836L32.9758 71.5406ZM32.5095 71.6715C32.1932 71.752 31.9282 71.8354 31.7209 71.9233L31.9896 72.5567C32.1519 72.4879 32.3796 72.4145 32.6792 72.3382L32.5095 71.6715ZM31.7209 71.9233C31.4784 72.0262 31.2749 72.1878 31.112 72.4003L31.658 72.8189C31.7526 72.6954 31.8626 72.6106 31.9896 72.5567L31.7209 71.9233ZM31.1109 72.4016C30.9273 72.6437 30.8562 72.9502 30.8562 73.2814H31.5442C31.5442 73.0415 31.5963 72.9002 31.659 72.8175L31.1109 72.4016ZM30.8562 73.2814V80.1765H31.5442V73.2814H30.8562ZM44.4109 74.4572L44.1677 74.7005L44.2746 74.8073L44.4256 74.8009L44.4109 74.4572ZM44.1758 74.1549L43.884 74.3372L43.8876 74.3428L44.1758 74.1549ZM43.9322 73.7433L44.2325 73.5752L44.2272 73.5664L43.9322 73.7433ZM42.1686 72.1392L42.0388 72.4578L42.0401 72.4584L42.1686 72.1392ZM38.6916 72.4332L38.8682 72.7284L38.869 72.7279L38.6916 72.4332ZM37.1799 74.0793L36.8756 73.9189L36.8746 73.9207L37.1799 74.0793ZM37.1631 79.3115L36.8527 79.4599L36.854 79.4626L37.1631 79.3115ZM38.7252 81.0668L38.5446 81.3596L38.5475 81.3613L38.7252 81.0668ZM43.1092 81.2096L43.2711 81.5131L43.2721 81.5125L43.1092 81.2096ZM44.4865 79.807L44.5352 79.4665L44.2953 79.4322L44.1822 79.6466L44.4865 79.807ZM44.898 79.8658L45.2417 79.8822L45.2565 79.5695L44.9467 79.5253L44.898 79.8658ZM44.8225 81.4531L44.9905 81.7533L45.157 81.6601L45.1661 81.4695L44.8225 81.4531ZM42.7061 82.2762L42.7906 82.6096L42.7922 82.6092L42.7061 82.2762ZM44.4613 71.9041L44.8022 71.8578L44.7749 71.6569L44.5859 71.5834L44.4613 71.9041ZM44.8057 74.4404L44.8203 74.7841L45.1973 74.7681L45.1465 74.3941L44.8057 74.4404ZM44.6542 74.214C44.6043 74.1641 44.5406 74.0845 44.4639 73.9669L43.8876 74.3428C43.9789 74.4828 44.072 74.6048 44.1677 74.7005L44.6542 74.214ZM44.4675 73.9725C44.3865 73.8429 44.3081 73.7105 44.2324 73.5753L43.6321 73.9114C43.7131 74.0561 43.7971 74.1981 43.8841 74.3372L44.4675 73.9725ZM44.2272 73.5664C44.2111 73.5396 44.1671 73.4652 44.094 73.3416L43.5017 73.6916C43.5742 73.8143 43.6197 73.8911 43.6373 73.9203L44.2272 73.5664ZM44.094 73.3416C44.0184 73.2136 43.9469 73.1003 43.8798 73.0026L43.3128 73.3923C43.3688 73.4738 43.4317 73.5732 43.5017 73.6916L44.094 73.3416ZM43.8798 73.0026C43.8103 72.9016 43.7383 72.811 43.6632 72.7358L43.1767 73.2223C43.2135 73.2591 43.2591 73.3142 43.3128 73.3923L43.8798 73.0026ZM43.6632 72.7358C43.2577 72.3303 42.8021 72.0234 42.297 71.8201L42.0401 72.4584C42.4532 72.6246 42.8319 72.8776 43.1767 73.2223L43.6632 72.7358ZM42.2983 71.8207C41.8024 71.6186 41.2795 71.5181 40.7324 71.5181V72.2061C41.1931 72.2061 41.6277 72.2903 42.0388 72.4578L42.2983 71.8207ZM40.7324 71.5181C39.9411 71.5181 39.1996 71.726 38.5142 72.1384L38.869 72.7279C39.4489 72.3789 40.068 72.2061 40.7324 72.2061V71.5181ZM38.515 72.138C37.8276 72.5492 37.2822 73.1475 36.8756 73.9189L37.4842 74.2397C37.8391 73.5665 38.3014 73.0675 38.8682 72.7284L38.515 72.138ZM36.8746 73.9207C36.4691 74.7015 36.2732 75.6149 36.2732 76.6492H36.9612C36.9612 75.7015 37.1404 74.9016 37.4852 74.2378L36.8746 73.9207ZM36.2732 76.6492C36.2732 77.7038 36.4626 78.6437 36.8527 79.4598L37.4735 79.1632C37.1357 78.4564 36.9612 77.6214 36.9612 76.6492H36.2732ZM36.854 79.4626C37.2502 80.2729 37.8137 80.9088 38.5446 81.3596L38.9058 80.774C38.2929 80.3961 37.8151 79.8619 37.4721 79.1604L36.854 79.4626ZM38.5475 81.3613C39.2854 81.8065 40.1352 82.0239 41.0852 82.0239V81.3359C40.2435 81.3359 39.5199 81.1445 38.9029 80.7722L38.5475 81.3613ZM41.0852 82.0239C41.8949 82.0239 42.6266 81.8568 43.2711 81.5131L42.9473 80.906C42.416 81.1894 41.7983 81.3359 41.0852 81.3359V82.0239ZM43.2721 81.5125C43.9279 81.1599 44.4353 80.6417 44.7908 79.9675L44.1822 79.6466C43.8883 80.2041 43.4774 80.621 42.9463 80.9066L43.2721 81.5125ZM44.4379 80.1476L44.8494 80.2063L44.9467 79.5253L44.5352 79.4665L44.4379 80.1476ZM44.5544 79.8494L44.4789 81.4367L45.1661 81.4695L45.2417 79.8822L44.5544 79.8494ZM44.6545 81.1529C44.0741 81.4777 43.397 81.742 42.6199 81.9431L42.7922 82.6092C43.6164 82.3959 44.3502 82.1116 44.9905 81.7533L44.6545 81.1529ZM42.6215 81.9427C41.849 82.1385 41.1358 82.2345 40.4805 82.2345V82.9225C41.2025 82.9225 41.973 82.8169 42.7906 82.6096L42.6215 81.9427ZM40.4805 82.2345C39.4319 82.2345 38.4955 82.0182 37.6644 81.5921L37.3505 82.2043C38.2886 82.6853 39.3343 82.9225 40.4805 82.9225V82.2345ZM37.6644 81.5921C36.8363 81.1676 36.1871 80.5624 35.7108 79.7722L35.1216 80.1273C35.6644 81.028 36.4093 81.7218 37.3505 82.2043L37.6644 81.5921ZM35.7108 79.7722C35.2381 78.9878 34.996 78.0628 34.996 76.9851H34.308C34.308 78.1694 34.5753 79.2209 35.1216 80.1273L35.7108 79.7722ZM34.996 76.9851C34.996 75.9744 35.2412 75.0612 35.729 74.2378L35.137 73.8872C34.5834 74.8218 34.308 75.8571 34.308 76.9851H34.996ZM35.729 74.2378C36.2155 73.4164 36.9065 72.7651 37.8118 72.2833L37.4886 71.676C36.479 72.2132 35.6919 72.9504 35.137 73.8872L35.729 74.2378ZM37.8118 72.2833C38.7122 71.8042 39.7609 71.5594 40.9676 71.5594V70.8714C39.6659 70.8714 38.503 71.1361 37.4886 71.676L37.8118 72.2833ZM40.9676 71.5594C42.0685 71.5594 43.1909 71.7794 44.3367 72.2247L44.5859 71.5834C43.369 71.1105 42.1622 70.8714 40.9676 70.8714V71.5594ZM44.1205 71.9504L44.4648 74.4867L45.1465 74.3941L44.8022 71.8578L44.1205 71.9504ZM44.791 74.0967L44.3963 74.1135L44.4256 74.8009L44.8203 74.7841L44.791 74.0967ZM50.7014 76.2629V76.6069H50.843L50.9435 76.5072L50.7014 76.2629ZM54.5311 72.4668L54.7732 72.7111L54.8315 72.6534L54.8574 72.5756L54.5311 72.4668ZM53.75 71.8537L53.7149 72.1959L53.7151 72.1959L53.75 71.8537ZM53.2629 71.7697L53.1541 72.0961L53.1593 72.0977L53.2629 71.7697ZM53.1537 71.4254V71.0814H52.9058L52.8274 71.3166L53.1537 71.4254ZM57.8904 71.4254L58.2262 71.3507L58.1664 71.0814H57.8904V71.4254ZM57.924 71.5765H58.268V71.5388L58.2598 71.5019L57.924 71.5765ZM56.7314 72.0217L56.6601 71.6851L56.6579 71.6856L56.7314 72.0217ZM55.5389 72.5172L55.3198 72.252L55.3055 72.2638L55.2926 72.277L55.5389 72.5172ZM52.2803 75.8597L52.034 75.6196L51.8315 75.8273L52.002 76.062L52.2803 75.8597ZM56.2107 81.2683L55.9325 81.4706L55.9446 81.4873L55.9587 81.5024L56.2107 81.2683ZM56.5803 81.4951L56.4471 81.8126L56.4595 81.8172L56.5803 81.4951ZM57.2941 81.7387L57.1891 82.0663L57.1942 82.0678L57.2941 81.7387ZM58.008 81.9906L57.8673 82.3045L57.8712 82.3062L58.008 81.9906ZM58.2264 82.3601V82.7041H58.426L58.525 82.5308L58.2264 82.3601ZM52.4818 82.3601L52.1695 82.5043L52.2617 82.7041H52.4818V82.3601ZM52.5826 82.041L52.6915 82.3675L52.7015 82.3638L52.5826 82.041ZM53.0781 81.9318L53.0285 81.5914L53.0271 81.5916L53.0781 81.9318ZM53.6828 81.7974L53.8036 82.1196L53.8106 82.1168L53.6828 81.7974ZM53.75 81.2347L53.4659 81.4287L53.4716 81.4371L53.4778 81.4451L53.75 81.2347ZM50.735 76.8172L51.0191 76.6232L50.9167 76.4732H50.735V76.8172ZM49.9791 76.8172V76.4732H49.6351V76.8172H49.9791ZM50.1471 81.7135L49.9322 81.9821L49.9395 81.9879L49.9471 81.9934L50.1471 81.7135ZM50.567 81.8814L50.5085 82.2206L50.52 82.2222L50.567 81.8814ZM51.1885 81.9318L51.2095 81.5884L51.2038 81.5882L51.1885 81.9318ZM51.7848 82.0074L51.6943 82.3393L51.7014 82.3412L51.7085 82.3428L51.7848 82.0074ZM51.9275 82.3601V82.7041H52.1849L52.2576 82.4572L51.9275 82.3601ZM46.3006 82.3601L45.9742 82.4689L46.0527 82.7041H46.3006V82.3601ZM46.4518 82.0242L46.5423 82.3561L46.5492 82.3542L46.5561 82.352L46.4518 82.0242ZM47.0145 81.9234L47.0525 82.2654L47.0609 82.2643L47.0145 81.9234ZM46.9893 71.8873L46.9303 72.2263L46.9385 72.2275L46.9893 71.8873ZM46.4266 71.7613L46.3129 72.086L46.3178 72.0877L46.4266 71.7613ZM46.3006 71.4254V71.0814H46.0527L45.9742 71.3166L46.3006 71.4254ZM51.8939 71.4254L52.2227 71.3242L52.148 71.0814H51.8939V71.4254ZM51.1633 71.8873L51.1126 71.547L51.1104 71.5474L51.1633 71.8873ZM49.9791 76.2629H49.6351V76.6069H49.9791V76.2629ZM50.9435 76.5072L54.7732 72.7111L54.2889 72.2225L50.4592 76.0186L50.9435 76.5072ZM54.8574 72.5756C54.8885 72.4822 54.9087 72.3833 54.9087 72.282H54.2207C54.2207 72.2927 54.2184 72.317 54.2047 72.358L54.8574 72.5756ZM54.9087 72.282C54.9087 72.155 54.8812 72.0203 54.8029 71.8995C54.7229 71.7763 54.6084 71.6959 54.4839 71.6492L54.2423 72.2934C54.2484 72.2957 54.2473 72.2961 54.2425 72.2924C54.2372 72.2884 54.2309 72.282 54.2257 72.274C54.2232 72.2702 54.2215 72.2669 54.2204 72.2643C54.2193 72.2617 54.219 72.2603 54.219 72.2604C54.219 72.2606 54.2207 72.2671 54.2207 72.282H54.9087ZM54.4839 71.6492C54.307 71.5828 54.0669 71.5402 53.7849 71.5115L53.7151 72.1959C53.9818 72.2231 54.1504 72.2589 54.2423 72.2934L54.4839 71.6492ZM53.7851 71.5115C53.5722 71.4897 53.4383 71.4644 53.3665 71.4417L53.1593 72.0977C53.3002 72.1422 53.4911 72.1729 53.7149 72.1959L53.7851 71.5115ZM53.3717 71.4434C53.3664 71.4416 53.3932 71.4494 53.4204 71.4842C53.4501 71.5221 53.4557 71.5604 53.4557 71.5765H52.7677C52.7677 71.6878 52.7985 71.8059 52.8786 71.9082C52.9563 72.0074 53.0586 72.0642 53.1541 72.0961L53.3717 71.4434ZM53.4557 71.5765C53.4557 71.5871 53.4552 71.5956 53.4547 71.6016C53.4542 71.6076 53.4536 71.6126 53.4531 71.616C53.4522 71.6226 53.4513 71.6269 53.4511 71.6278C53.4508 71.6295 53.4513 71.6269 53.4537 71.6182C53.4584 71.6012 53.4668 71.5738 53.4801 71.5342L52.8274 71.3166C52.8126 71.3609 52.8 71.4008 52.7908 71.4341C52.7863 71.4501 52.7677 71.513 52.7677 71.5765H53.4557ZM53.1537 71.7694H57.8904V71.0814H53.1537V71.7694ZM57.5546 71.5L57.5882 71.6512L58.2598 71.5019L58.2262 71.3507L57.5546 71.5ZM57.58 71.5765C57.58 71.5059 57.607 71.4546 57.6263 71.4282C57.6437 71.4045 57.657 71.397 57.65 71.4018C57.6443 71.4057 57.6296 71.4146 57.6017 71.4273C57.5745 71.4398 57.5389 71.4539 57.4935 71.4694L57.7162 72.1204C57.8337 72.0802 57.9475 72.0319 58.0385 71.9696C58.1147 71.9175 58.268 71.7914 58.268 71.5765H57.58ZM57.4935 71.4694C57.2997 71.5357 57.0238 71.608 56.6601 71.6851L56.8028 72.3582C57.1781 72.2786 57.4846 72.1996 57.7162 72.1204L57.4935 71.4694ZM56.6579 71.6856C56.0975 71.8082 55.6384 71.9888 55.3198 72.252L55.758 72.7824C55.9544 72.6201 56.2904 72.4703 56.805 72.3577L56.6579 71.6856ZM55.2926 72.277L52.034 75.6196L52.5266 76.0999L55.7852 72.7573L55.2926 72.277ZM52.002 76.062L55.9325 81.4706L56.489 81.0661L52.5586 75.6575L52.002 76.062ZM55.9587 81.5024C56.0811 81.6343 56.2577 81.7329 56.4472 81.8123L56.7133 81.1779C56.5557 81.1118 56.486 81.0592 56.4628 81.0343L55.9587 81.5024ZM56.4595 81.8172C56.646 81.8872 56.8899 81.9702 57.1891 82.0662L57.3992 81.4111C57.1049 81.3167 56.8728 81.2374 56.7011 81.173L56.4595 81.8172ZM57.1942 82.0678C57.5033 82.1617 57.7249 82.2407 57.8673 82.3045L58.1487 81.6767C57.9664 81.595 57.712 81.506 57.3941 81.4095L57.1942 82.0678ZM57.8712 82.3062C57.9041 82.3205 57.9285 82.3329 57.9461 82.3431C57.9548 82.3481 57.9612 82.3521 57.9655 82.3552C57.97 82.3583 57.9718 82.3598 57.9717 82.3597C57.9716 82.3597 57.9688 82.3573 57.9644 82.3522C57.96 82.3471 57.9533 82.3386 57.9463 82.3263C57.9313 82.3004 57.916 82.2599 57.916 82.209H58.604C58.604 82.03 58.4998 81.907 58.4223 81.8398C58.3422 81.7704 58.243 81.7175 58.1448 81.675L57.8712 82.3062ZM57.916 82.209C57.916 82.2193 57.915 82.2218 57.9158 82.2183C57.9166 82.2146 57.9195 82.2038 57.9277 82.1895L58.525 82.5308C58.586 82.4241 58.604 82.3095 58.604 82.209H57.916ZM58.2264 82.0161H52.4818V82.7041H58.2264V82.0161ZM52.7942 82.216C52.7871 82.2007 52.7815 82.1879 52.7771 82.1774C52.7727 82.1668 52.7699 82.1596 52.7684 82.1554C52.7677 82.1533 52.7675 82.1525 52.7676 82.1528C52.7676 82.153 52.7682 82.1551 52.7691 82.1586C52.7699 82.162 52.7713 82.1684 52.7726 82.1771C52.7738 82.1855 52.7754 82.1995 52.7754 82.2174H52.0874C52.0874 82.2923 52.1104 82.3582 52.1197 82.3843C52.133 82.4223 52.1505 82.4631 52.1695 82.5043L52.7942 82.216ZM52.7754 82.2174C52.7754 82.2311 52.7733 82.2509 52.7653 82.2736C52.7571 82.2967 52.7448 82.3174 52.7304 82.3342C52.7027 82.3666 52.679 82.3715 52.6914 82.3673L52.4738 81.7147C52.3854 81.7441 52.2862 81.7952 52.2081 81.8864C52.1247 81.9836 52.0874 82.1007 52.0874 82.2174H52.7754ZM52.7015 82.3638C52.7737 82.3372 52.9103 82.3048 53.1292 82.272L53.0271 81.5916C52.7981 81.626 52.6043 81.6664 52.4637 81.7182L52.7015 82.3638ZM53.1278 82.2722C53.4034 82.232 53.6341 82.1831 53.8036 82.1195L53.562 81.4753C53.4627 81.5126 53.2904 81.5532 53.0285 81.5914L53.1278 82.2722ZM53.8106 82.1168C53.9263 82.0705 54.0384 81.9965 54.1202 81.8819C54.2034 81.7655 54.2368 81.6332 54.2368 81.5035H53.5488C53.5488 81.5098 53.548 81.5091 53.5496 81.5035C53.5514 81.4976 53.5549 81.4897 53.5604 81.482C53.5657 81.4745 53.5704 81.4708 53.5712 81.4702C53.5717 81.4698 53.5673 81.4732 53.5551 81.478L53.8106 82.1168ZM54.2368 81.5035C54.2368 81.3902 54.1929 81.2932 54.1609 81.2329C54.1245 81.1644 54.0761 81.0942 54.0222 81.0244L53.4778 81.4451C53.5191 81.4985 53.5421 81.5346 53.5533 81.5557C53.5587 81.5659 53.5587 81.5676 53.5569 81.5621C53.5554 81.5576 53.5488 81.5364 53.5488 81.5035H54.2368ZM54.0341 81.0408L51.0191 76.6232L50.4508 77.0111L53.4659 81.4287L54.0341 81.0408ZM50.735 76.4732H49.9791V77.1612H50.735V76.4732ZM49.6351 76.8172V81.3187H50.3231V76.8172H49.6351ZM49.6351 81.3187C49.6351 81.5724 49.7213 81.8134 49.9322 81.9821L50.362 81.4448C50.3489 81.4344 50.3231 81.4122 50.3231 81.3187H49.6351ZM49.9471 81.9934C50.1124 82.1114 50.3023 82.1849 50.5085 82.2204L50.6254 81.5424C50.5069 81.522 50.4169 81.4835 50.347 81.4335L49.9471 81.9934ZM50.52 82.2222C50.6969 82.2466 50.9156 82.264 51.1732 82.2755L51.2038 81.5882C50.9574 81.5772 50.7618 81.561 50.614 81.5407L50.52 82.2222ZM51.1675 82.2752C51.4388 82.2918 51.6075 82.3156 51.6943 82.3393L51.8753 81.6755C51.7157 81.632 51.4869 81.6054 51.2095 81.5885L51.1675 82.2752ZM51.7085 82.3428C51.7307 82.3479 51.7063 82.3474 51.6748 82.3145C51.6582 82.2972 51.6445 82.2756 51.6357 82.252C51.6271 82.2291 51.6255 82.2106 51.6255 82.2006H52.3135C52.3135 82.0742 52.2721 81.9437 52.1719 81.8389C52.0788 81.7416 51.9621 81.6949 51.861 81.672L51.7085 82.3428ZM51.6255 82.2006C51.6255 82.1849 51.6267 82.1727 51.6273 82.1668C51.628 82.16 51.6288 82.1549 51.6293 82.152C51.6298 82.1489 51.6302 82.1466 51.6304 82.1455C51.6305 82.1449 51.6306 82.1445 51.6307 82.1442C51.6307 82.144 51.6307 82.1439 51.6307 82.1439C51.6308 82.1438 51.6308 82.1438 51.6308 82.1438C51.6308 82.1438 51.6307 82.1439 51.6307 82.1441C51.6306 82.1443 51.6306 82.1447 51.6305 82.1451C51.6303 82.146 51.63 82.1472 51.6296 82.1487C51.6288 82.1519 51.6278 82.156 51.6264 82.1613C51.6206 82.1832 51.6112 82.2166 51.5975 82.2631L52.2576 82.4572C52.2719 82.4085 52.2835 82.3678 52.2917 82.3364C52.2958 82.321 52.2998 82.3049 52.3031 82.2899C52.3036 82.2876 52.3135 82.2463 52.3135 82.2006H51.6255ZM51.9275 82.0161H46.3006V82.7041H51.9275V82.0161ZM46.6269 82.2514C46.6177 82.2237 46.6127 82.2056 46.6102 82.1953C46.6091 82.1903 46.609 82.1893 46.6094 82.1916C46.6096 82.1933 46.611 82.2027 46.611 82.2174H45.923C45.923 82.3079 45.9527 82.4043 45.9742 82.4689L46.6269 82.2514ZM46.611 82.2174C46.611 82.2312 46.6087 82.2518 46.5995 82.2756C46.5901 82.2998 46.5764 82.3201 46.5618 82.3355C46.5346 82.3639 46.5163 82.3632 46.5423 82.3561L46.3612 81.6923C46.2641 81.7188 46.1534 81.7671 46.0646 81.8599C45.9681 81.9608 45.923 82.0878 45.923 82.2174H46.611ZM46.5561 82.352C46.6458 82.3234 46.8059 82.2927 47.0524 82.2653L46.9765 81.5815C46.7191 81.6101 46.504 81.6466 46.3475 81.6964L46.5561 82.352ZM47.0609 82.2643C47.3118 82.2301 47.5211 82.195 47.6854 82.1584L47.5361 81.4868C47.3981 81.5175 47.2098 81.5496 46.968 81.5826L47.0609 82.2643ZM47.6854 82.1584C47.8836 82.1144 48.0642 82.0315 48.2204 81.9065L47.7906 81.3693C47.7228 81.4235 47.6402 81.4637 47.5361 81.4868L47.6854 82.1584ZM48.2204 81.9065C48.4223 81.745 48.5174 81.5185 48.5174 81.2683H47.8294C47.8294 81.3317 47.8126 81.3516 47.7906 81.3693L48.2204 81.9065ZM48.5174 81.2683V72.5676H47.8294V81.2683H48.5174ZM48.5174 72.5676C48.5174 72.4023 48.4775 72.2395 48.3812 72.0963C48.2854 71.9539 48.1501 71.8551 47.9992 71.7899L47.7262 72.4214C47.7825 72.4457 47.8026 72.4688 47.8103 72.4803C47.8176 72.4911 47.8294 72.5144 47.8294 72.5676H48.5174ZM47.9992 71.7899C47.7524 71.6832 47.4276 71.6049 47.04 71.5471L46.9385 72.2275C47.3012 72.2817 47.5587 72.349 47.7262 72.4214L47.9992 71.7899ZM47.0482 71.5484C46.7933 71.504 46.6271 71.4655 46.5353 71.435L46.3178 72.0877C46.4612 72.1355 46.6701 72.1809 46.9303 72.2262L47.0482 71.5484ZM46.5402 71.4366C46.5166 71.4284 46.5318 71.4286 46.5551 71.4543C46.5679 71.4683 46.5809 71.4876 46.5902 71.5118C46.5995 71.536 46.6026 71.5586 46.6026 71.5765H45.9146C45.9146 71.7033 45.9599 71.8224 46.0461 71.9171C46.1254 72.0044 46.2245 72.0551 46.3129 72.086L46.5402 71.4366ZM46.6026 71.5765C46.6026 71.5871 46.6021 71.5956 46.6016 71.6016C46.6011 71.6076 46.6005 71.6126 46.6 71.616C46.5991 71.6226 46.5982 71.6269 46.598 71.6278C46.5976 71.6295 46.5981 71.6269 46.6005 71.6182C46.6053 71.6012 46.6137 71.5738 46.6269 71.5342L45.9742 71.3166C45.9595 71.3609 45.9469 71.4008 45.9376 71.4341C45.9332 71.4501 45.9146 71.513 45.9146 71.5765H46.6026ZM46.3006 71.7694H51.8939V71.0814H46.3006V71.7694ZM51.5652 71.5265C51.5752 71.5591 51.5812 71.5811 51.5843 71.5944C51.5858 71.601 51.5861 71.6028 51.5858 71.601C51.5856 71.5999 51.5851 71.5968 51.5846 71.592C51.5842 71.5874 51.5835 71.5791 51.5835 71.5681H52.2715C52.2715 71.5142 52.2603 71.4635 52.254 71.4369C52.2459 71.4026 52.2351 71.3644 52.2227 71.3242L51.5652 71.5265ZM51.5835 71.5681C51.5835 71.5543 51.5859 71.5345 51.5944 71.5123C51.6029 71.4898 51.6152 71.4712 51.6278 71.4575C51.651 71.4321 51.6655 71.4333 51.6385 71.4419L51.8471 72.0975C51.9433 72.0669 52.0501 72.015 52.1349 71.9224C52.2267 71.8223 52.2715 71.6976 52.2715 71.5681H51.5835ZM51.6385 71.4419C51.5429 71.4723 51.3724 71.5083 51.1126 71.547L51.214 72.2275C51.4805 72.1878 51.6963 72.1455 51.8471 72.0975L51.6385 71.4419ZM51.1104 71.5474C50.8533 71.5874 50.6376 71.6284 50.4668 71.6711L50.6336 72.3386C50.7763 72.3029 50.9694 72.2656 51.2162 72.2272L51.1104 71.5474ZM50.4668 71.6711C50.2681 71.7208 50.0874 71.8052 49.9322 71.9294L50.362 72.4666C50.4307 72.4117 50.5187 72.3673 50.6336 72.3386L50.4668 71.6711ZM49.9322 71.9294C49.7303 72.0909 49.6351 72.3174 49.6351 72.5676H50.3231C50.3231 72.5042 50.3399 72.4843 50.362 72.4666L49.9322 71.9294ZM49.6351 72.5676V76.2629H50.3231V72.5676H49.6351ZM49.9791 76.6069H50.7014V75.9189H49.9791V76.6069ZM69.8918 73.3654L70.2139 73.4861L70.2603 73.3624L70.2119 73.2395L69.8918 73.3654ZM69.6902 72.8531L70.0104 72.7272L70.0096 72.7253L69.6902 72.8531ZM69.4803 72.3492L69.794 72.208L69.7614 72.1357L69.7005 72.0849L69.4803 72.3492ZM68.7916 72.0385L68.6638 72.3579L68.6678 72.3594L68.7916 72.0385ZM67.9854 71.4254V71.0814H67.7728L67.6777 71.2715L67.9854 71.4254ZM73.3772 71.4254L73.7035 71.3166L73.6251 71.0814H73.3772V71.4254ZM73.4024 71.5094L73.0716 71.6039L73.0776 71.6248L73.0862 71.6449L73.4024 71.5094ZM73.2428 71.8453L73.1385 71.5175L73.134 71.5189L73.2428 71.8453ZM72.6801 71.9377L72.707 72.2806L72.7099 72.2804L72.6801 71.9377ZM72.0334 72.0553L72.146 72.3805L72.1569 72.3763L72.0334 72.0553ZM72.7557 75.5322L72.4277 75.636L72.428 75.6368L72.7557 75.5322ZM74.007 79.3787L73.682 79.4912L74.0151 80.4537L74.3338 79.4863L74.007 79.3787ZM74.2422 78.6648L73.916 78.5556L73.9155 78.5572L74.2422 78.6648ZM75.9555 72.0301L75.8186 72.3458L75.8277 72.3495L75.9555 72.0301ZM75.2164 71.8537L75.2634 71.5129L75.2591 71.5123L75.2164 71.8537ZM74.5193 71.6857L74.2173 71.8504L74.2663 71.9402L74.3562 71.9886L74.5193 71.6857ZM74.4689 71.5933L74.1395 71.4945L74.0982 71.632L74.167 71.7581L74.4689 71.5933ZM74.5193 71.4254V71.0814H74.2634L74.1898 71.3265L74.5193 71.4254ZM78.9453 71.459L78.7545 71.7452L78.7723 71.7571L78.7915 71.7666L78.9453 71.459ZM79.0125 71.5178H79.3565V71.4365L79.3202 71.3639L79.0125 71.5178ZM78.8193 71.7193L78.9324 72.0445L78.9447 72.0397L78.8193 71.7193ZM78.1979 71.8789L78.2696 72.2153L78.2704 72.2152L78.1979 71.8789ZM77.1984 72.1728L77.3287 72.4913L77.3348 72.4886L77.1984 72.1728ZM76.7113 72.6431L76.3885 72.5242L76.3871 72.5281L76.7113 72.6431ZM76.5182 73.2478L76.8477 73.3467L76.8483 73.3445L76.5182 73.2478ZM76.3754 73.7265L76.0451 73.6294L76.0417 73.6431L76.3754 73.7265ZM76.2914 74.0289L75.9649 73.9201L75.9621 73.9295L76.2914 74.0289ZM73.7803 82.3517L73.4509 82.2524L73.4508 82.2529L73.7803 82.3517ZM73.2008 82.4861L73.073 82.8057L73.0832 82.8094L73.2008 82.4861ZM73.0664 82.3517L73.3741 82.1979L73.3724 82.1946L73.0664 82.3517ZM72.7473 81.4363L73.0799 81.3485L73.0778 81.3406L73.0753 81.3327L72.7473 81.4363ZM72.5961 80.9576L72.9242 80.854L72.9214 80.8459L72.5961 80.9576ZM70.2109 74.0121L70.5363 73.9004L70.2129 72.9588L69.886 73.8991L70.2109 74.0121ZM68.0357 80.2689L68.3594 80.3855L68.3607 80.3819L68.0357 80.2689ZM67.8258 80.9492L68.1552 81.0485L68.1565 81.0437L67.8258 80.9492ZM67.3135 82.3517L67.0056 82.1978L67.0011 82.2076L67.3135 82.3517ZM67.1791 82.4945L67.0513 82.1751L67.0381 82.1804L67.0253 82.1868L67.1791 82.4945ZM66.1797 81.2767L65.8513 81.3793L65.8519 81.381L66.1797 81.2767ZM66.0957 81.008L66.424 80.9054L66.4213 80.8965L66.418 80.8877L66.0957 81.008ZM64.9451 77.9258L64.6222 78.0444L64.6228 78.0461L64.9451 77.9258ZM63.0555 72.8867L63.3768 72.7638L63.3759 72.7616L63.0555 72.8867ZM62.6607 72.3744L62.4633 72.6564L62.4743 72.6635L62.6607 72.3744ZM61.9805 72.0385L62.1006 71.7161L62.0994 71.7157L61.9805 72.0385ZM61.1826 71.6101L60.8548 71.5058L60.7913 71.7053L60.9394 71.8534L61.1826 71.6101ZM61.2414 71.4254V71.0814H60.9899L60.9136 71.3211L61.2414 71.4254ZM66.6416 71.4254L66.968 71.3166L66.8895 71.0814H66.6416V71.4254ZM66.6668 71.5094L66.336 71.6039L66.3381 71.611L66.3405 71.6181L66.6668 71.5094ZM66.5156 71.8285L66.6346 72.1514L66.6434 72.1479L66.5156 71.8285ZM66.0285 71.9293L66.0712 72.2706L66.0723 72.2705L66.0285 71.9293ZM65.407 72.0805L65.5456 72.3954L65.5512 72.3928L65.407 72.0805ZM66.0957 75.1039L65.7712 75.2181L65.7716 75.219L66.0957 75.1039ZM67.6326 79.3955L67.3092 79.5127L67.6272 80.3904L67.9548 79.5162L67.6326 79.3955ZM70.2119 73.2395L70.0104 72.7272L69.3701 72.9791L69.5717 73.4914L70.2119 73.2395ZM70.0096 72.7253C69.9196 72.5003 69.8475 72.3269 69.794 72.208L69.1666 72.4904C69.2139 72.5955 69.2817 72.758 69.3708 72.9809L70.0096 72.7253ZM69.7005 72.0849C69.6253 72.0222 69.5078 71.965 69.3992 71.916C69.276 71.8604 69.114 71.7941 68.9154 71.7175L68.6678 72.3594C68.8612 72.434 69.0098 72.4951 69.1162 72.5431C69.2372 72.5977 69.2681 72.6202 69.2601 72.6135L69.7005 72.0849ZM68.9194 71.7191C68.6119 71.5961 68.3975 71.5064 68.2715 71.4486L67.9848 72.074C68.1275 72.1394 68.3555 72.2345 68.6638 72.3579L68.9194 71.7191ZM68.2715 71.4486C68.2456 71.4367 68.2266 71.4268 68.2133 71.419C68.1995 71.411 68.1954 71.4073 68.1972 71.4089C68.1981 71.4096 68.2134 71.4221 68.23 71.4485C68.2477 71.4766 68.2706 71.5265 68.2706 71.5933H67.5826C67.5826 71.7754 67.6998 71.89 67.7567 71.9374C67.8243 71.9937 67.9062 72.038 67.9848 72.074L68.2715 71.4486ZM68.2706 71.5933C68.2706 71.6121 68.2689 71.6268 68.2678 71.6348C68.2666 71.6435 68.2653 71.6501 68.2645 71.6539C68.263 71.661 68.2618 71.6646 68.2624 71.6628C68.2634 71.6593 68.2667 71.6492 68.2739 71.6301L67.6297 71.3886C67.62 71.4143 67.6107 71.4406 67.6034 71.4651C67.6002 71.4757 67.5826 71.5307 67.5826 71.5933H68.2706ZM68.2739 71.6301C68.2818 71.6089 68.2879 71.5933 68.2922 71.5825C68.2943 71.5772 68.2956 71.574 68.2963 71.5724C68.2973 71.5701 68.296 71.5733 68.293 71.5792L67.6777 71.2715C67.6622 71.3024 67.6443 71.3496 67.6297 71.3886L68.2739 71.6301ZM67.9854 71.7694H73.3772V71.0814H67.9854V71.7694ZM73.0508 71.5342C73.0538 71.5432 73.0605 71.5649 73.0716 71.6039L73.7331 71.4149C73.7218 71.3754 73.7117 71.3411 73.7035 71.3166L73.0508 71.5342ZM73.0862 71.6449C73.0915 71.6574 73.0926 71.6613 73.0918 71.6586C73.0913 71.657 73.0896 71.6512 73.0879 71.642C73.0863 71.6336 73.0835 71.6164 73.0835 71.5933H73.7715C73.7715 71.4974 73.7337 71.4093 73.7185 71.3738L73.0862 71.6449ZM73.0835 71.5933C73.0835 71.6021 73.0821 71.5792 73.104 71.5495C73.1257 71.5198 73.1476 71.5146 73.1385 71.5175L73.3471 72.1731C73.4611 72.1368 73.5754 72.07 73.6588 71.9563C73.7422 71.8426 73.7715 71.7133 73.7715 71.5933H73.0835ZM73.134 71.5189C73.057 71.5446 72.9034 71.573 72.6503 71.595L72.7099 72.2804C72.9719 72.2576 73.1934 72.2244 73.3516 72.1716L73.134 71.5189ZM72.6532 71.5947C72.3573 71.6179 72.1023 71.6602 71.9099 71.7342L72.1569 72.3763C72.2557 72.3383 72.4318 72.3022 72.707 72.2806L72.6532 71.5947ZM71.9209 71.7302C71.7899 71.7755 71.6684 71.8566 71.5834 71.9841C71.5001 72.1091 71.471 72.2498 71.471 72.3828H72.159C72.159 72.3654 72.161 72.3569 72.1614 72.3552C72.1617 72.354 72.1606 72.3586 72.1559 72.3657C72.1536 72.3691 72.151 72.3724 72.1481 72.3754C72.1453 72.3783 72.1427 72.3804 72.1408 72.3818C72.137 72.3846 72.1375 72.3833 72.1459 72.3803L71.9209 71.7302ZM71.471 72.3828C71.471 72.442 71.4858 72.5087 71.494 72.5456C71.5054 72.5963 71.5215 72.66 71.5416 72.735C71.582 72.8855 71.6419 73.0933 71.7206 73.3568C71.8782 73.8844 72.114 74.6445 72.4277 75.636L73.0836 75.4284C72.7703 74.4379 72.5358 73.6821 72.3798 73.1599C72.3017 72.8985 72.244 72.6979 72.2061 72.5565C72.187 72.4856 72.1737 72.4325 72.1655 72.3955C72.1541 72.3448 72.159 72.353 72.159 72.3828H71.471ZM72.428 75.6368C73.0603 77.6178 73.4788 78.9042 73.682 79.4912L74.3321 79.2662C74.1322 78.6886 73.7164 77.4106 73.0834 75.4276L72.428 75.6368ZM74.3338 79.4863L74.5689 78.7725L73.9155 78.5572L73.6803 79.2711L74.3338 79.4863ZM74.5684 78.774C75.2237 76.8166 75.7158 75.3128 76.0444 74.264C76.2086 73.7399 76.3327 73.3269 76.4161 73.0265C76.4577 72.8766 76.49 72.7516 76.5123 72.6533C76.5318 72.5668 76.5514 72.4688 76.5514 72.3912H75.8634C75.8634 72.3808 75.8626 72.4069 75.8412 72.5015C75.8225 72.5843 75.7934 72.6974 75.7531 72.8425C75.6727 73.1321 75.5512 73.5368 75.3878 74.0583C75.0613 75.1007 74.5709 76.5994 73.916 78.5556L74.5684 78.774ZM76.5514 72.3912C76.5514 72.2472 76.5158 72.1018 76.4266 71.9739C76.3381 71.8471 76.215 71.7634 76.0832 71.7107L75.8277 72.3495C75.8639 72.3639 75.8668 72.374 75.8623 72.3676C75.8607 72.3652 75.8604 72.3638 75.8609 72.3655C75.8615 72.3677 75.8634 72.3755 75.8634 72.3912H76.5514ZM76.0923 71.7144C75.8815 71.6231 75.5988 71.5592 75.2634 71.5129L75.1694 72.1945C75.4835 72.2378 75.6935 72.2914 75.8187 72.3457L76.0923 71.7144ZM75.2591 71.5123C75.1346 71.4968 75.0132 71.4761 74.8948 71.4504L74.7486 72.1227C74.8877 72.1529 75.0294 72.177 75.1737 72.195L75.2591 71.5123ZM74.8948 71.4504C74.7811 71.4257 74.7153 71.4005 74.6824 71.3828L74.3562 71.9886C74.469 72.0493 74.6047 72.0914 74.7486 72.1227L74.8948 71.4504ZM74.8213 71.521L74.771 71.4286L74.167 71.7581L74.2173 71.8504L74.8213 71.521ZM74.7984 71.6922L74.8488 71.5242L74.1898 71.3265L74.1395 71.4945L74.7984 71.6922ZM74.5193 71.7694H78.8613V71.0814H74.5193V71.7694ZM78.8613 71.7694C78.8165 71.7694 78.7848 71.7585 78.7714 71.7532C78.7573 71.7475 78.7513 71.7431 78.7545 71.7452L79.1361 71.1727C79.0854 71.1389 78.9871 71.0814 78.8613 71.0814V71.7694ZM78.7915 71.7666C78.7901 71.766 78.7399 71.7417 78.7048 71.6716L79.3202 71.3639C79.2628 71.2491 79.1677 71.1855 79.0992 71.1513L78.7915 71.7666ZM78.6685 71.5178C78.6685 71.4935 78.6734 71.4675 78.6839 71.4428C78.6942 71.4187 78.707 71.4024 78.7159 71.3931C78.7308 71.3775 78.7325 71.3839 78.694 71.399L78.9447 72.0397C79.11 71.975 79.3565 71.8236 79.3565 71.5178H78.6685ZM78.7063 71.3944C78.5987 71.4318 78.409 71.4814 78.1253 71.5426L78.2704 72.2152C78.5578 72.1532 78.7824 72.0964 78.9324 72.0442L78.7063 71.3944ZM78.1261 71.5425C77.6955 71.6343 77.3378 71.738 77.0621 71.857L77.3348 72.4886C77.5518 72.3949 77.8604 72.3026 78.2696 72.2153L78.1261 71.5425ZM77.0682 71.8544C76.7495 71.9848 76.5061 72.205 76.3885 72.5242L77.0341 72.7621C77.0733 72.6557 77.1547 72.5624 77.3287 72.4912L77.0682 71.8544ZM76.3871 72.5281C76.3229 72.7092 76.2565 72.9172 76.188 73.1512L76.8483 73.3445C76.9142 73.1194 76.9766 72.9242 77.0355 72.7582L76.3871 72.5281ZM76.1887 73.149C76.1215 73.373 76.0737 73.5333 76.0454 73.6295L76.7054 73.8236C76.7331 73.7294 76.7805 73.5706 76.8477 73.3467L76.1887 73.149ZM76.0417 73.6431C76.0086 73.7754 75.9832 73.8658 75.9651 73.9201L76.6178 74.1377C76.6444 74.0576 76.675 73.9465 76.7091 73.81L76.0417 73.6431ZM75.9621 73.9295L73.4509 82.2524L74.1096 82.4511L76.6208 74.1283L75.9621 73.9295ZM73.4508 82.2529C73.4565 82.234 73.4674 82.2132 73.4836 82.1951C73.4993 82.1777 73.5137 82.1697 73.519 82.1671C73.5235 82.165 73.5199 82.1675 73.5035 82.1704C73.4873 82.1732 73.4626 82.1757 73.4275 82.1757V82.8637C73.5542 82.8637 73.6914 82.847 73.8148 82.7883C73.9502 82.7238 74.0617 82.6108 74.1098 82.4506L73.4508 82.2529ZM73.4275 82.1757C73.3643 82.1757 73.3312 82.1675 73.3183 82.1628L73.0832 82.8094C73.1935 82.8495 73.3116 82.8637 73.4275 82.8637V82.1757ZM73.3285 82.1667C73.346 82.1737 73.3596 82.1836 73.3684 82.1925C73.3765 82.2006 73.3773 82.2044 73.3741 82.1979L72.7587 82.5056C72.8204 82.6289 72.9209 82.7447 73.073 82.8055L73.3285 82.1667ZM73.3724 82.1946C73.283 82.0204 73.1841 81.7433 73.0799 81.3485L72.4147 81.5241C72.5232 81.9356 72.6371 82.2688 72.7604 82.5089L73.3724 82.1946ZM73.0753 81.3327L72.9241 80.854L72.2681 81.0612L72.4192 81.5399L73.0753 81.3327ZM72.9214 80.8459L70.5363 73.9004L69.8856 74.1238L72.2708 81.0693L72.9214 80.8459ZM69.886 73.8991L67.7108 80.156L68.3607 80.3819L70.5359 74.1251L69.886 73.8991ZM67.7121 80.1524C67.6575 80.304 67.5848 80.5403 67.495 80.8547L68.1565 81.0437C68.2459 80.731 68.3132 80.5138 68.3594 80.3854L67.7121 80.1524ZM67.4964 80.8499C67.3908 81.2002 67.3032 81.4707 67.2335 81.6638L67.8806 81.8975C67.9564 81.6875 68.048 81.4036 68.1551 81.0485L67.4964 80.8499ZM67.2335 81.6638C67.1649 81.8536 67.089 82.0315 67.0058 82.1979L67.6212 82.5056C67.7172 82.3136 67.8036 82.1108 67.8806 81.8975L67.2335 81.6638ZM67.0011 82.2076C66.9965 82.2177 66.9962 82.2148 67.0042 82.2063C67.0132 82.1967 67.029 82.184 67.0513 82.1751L67.3069 82.8139C67.4685 82.7493 67.5678 82.6216 67.6258 82.4959L67.0011 82.2076ZM67.0253 82.1868C67.03 82.1845 67.0286 82.1861 67.0176 82.1882C67.0065 82.1903 66.9881 82.1925 66.9607 82.1925V82.8805C67.0823 82.8805 67.2131 82.8621 67.3329 82.8022L67.0253 82.1868ZM66.9607 82.1925C66.9599 82.1925 66.9599 82.1924 66.9605 82.1925C66.961 82.1926 66.9613 82.1928 66.9612 82.1927C66.9611 82.1927 66.9599 82.1922 66.9576 82.1908C66.9552 82.1894 66.9514 82.1869 66.9464 82.1828C66.9243 82.1646 66.8858 82.1213 66.8401 82.0299L66.2247 82.3376C66.3645 82.6171 66.5977 82.8805 66.9607 82.8805V82.1925ZM66.8401 82.0299C66.7333 81.8163 66.6219 81.5321 66.5075 81.1724L65.8519 81.381C65.9726 81.7604 66.0964 82.0809 66.2247 82.3376L66.8401 82.0299ZM66.508 81.1741L66.424 80.9054L65.7674 81.1106L65.8513 81.3793L66.508 81.1741ZM66.418 80.8877L65.2674 77.8055L64.6228 78.0461L65.7734 81.1283L66.418 80.8877ZM65.268 77.8071C64.646 76.1148 64.0156 74.4337 63.3768 72.7638L62.7342 73.0096C63.3719 74.6767 64.0013 76.355 64.6222 78.0444L65.268 77.8071ZM63.3759 72.7616C63.2653 72.478 63.0926 72.2436 62.8472 72.0853L62.4743 72.6635C62.576 72.7291 62.6665 72.8363 62.735 73.0118L63.3759 72.7616ZM62.858 72.0926C62.6576 71.9523 62.4016 71.8282 62.1006 71.7161L61.8604 72.3608C62.1305 72.4614 62.3279 72.5613 62.4635 72.6562L62.858 72.0926ZM62.0994 71.7157C61.8907 71.6388 61.7422 71.5767 61.6472 71.5292L61.3395 72.1446C61.4685 72.2091 61.6448 72.2814 61.8615 72.3612L62.0994 71.7157ZM61.6472 71.5292C61.5707 71.491 61.4969 71.4379 61.4259 71.3669L60.9394 71.8534C61.0587 71.9727 61.1921 72.0709 61.3395 72.1446L61.6472 71.5292ZM61.5104 71.7144L61.5692 71.5297L60.9136 71.3211L60.8548 71.5058L61.5104 71.7144ZM61.2414 71.7694H66.6416V71.0814H61.2414V71.7694ZM66.3153 71.5342C66.3183 71.5432 66.3249 71.5649 66.336 71.6039L66.9976 71.4149C66.9863 71.3754 66.9761 71.3411 66.968 71.3166L66.3153 71.5342ZM66.3405 71.6181C66.3426 71.6245 66.3426 71.6258 66.3421 71.623C66.3416 71.6205 66.3396 71.61 66.3396 71.5933H67.0276C67.0276 71.5189 67.0101 71.4513 66.9931 71.4006L66.3405 71.6181ZM66.3396 71.5933C66.3396 71.5926 66.3397 71.5854 66.3431 71.574C66.3466 71.562 66.3527 71.5488 66.3617 71.5362C66.3805 71.5098 66.3981 71.505 66.3879 71.5091L66.6434 72.1479C66.7451 72.1072 66.8467 72.0408 66.9215 71.9361C66.9977 71.8294 67.0276 71.709 67.0276 71.5933H66.3396ZM66.3967 71.5057C66.3278 71.5311 66.1967 71.5609 65.9848 71.5881L66.0723 72.2705C66.2971 72.2417 66.4907 72.2043 66.6346 72.1513L66.3967 71.5057ZM65.9859 71.5879C65.7026 71.6233 65.4552 71.6793 65.2629 71.7681L65.5512 72.3928C65.65 72.3472 65.8169 72.3024 66.0712 72.2706L65.9859 71.5879ZM65.2685 71.7656C65.141 71.8217 65.0298 71.9114 64.954 72.0389C64.8798 72.1634 64.8531 72.3009 64.8531 72.4332H65.5411C65.5411 72.3919 65.5493 72.3838 65.5452 72.3908C65.5432 72.394 65.5406 72.397 65.5385 72.3988C65.5366 72.4004 65.538 72.3987 65.5456 72.3953L65.2685 71.7656ZM64.8531 72.4332C64.8531 72.4769 64.8613 72.5156 64.8638 72.5275C64.8679 72.5474 64.8732 72.5685 64.8787 72.5891C64.8898 72.6308 64.9054 72.6836 64.9246 72.7458C64.9633 72.871 65.0205 73.046 65.0957 73.2694C65.2462 73.7168 65.4715 74.3667 65.7712 75.2181L66.4202 74.9897C66.1208 74.139 65.8968 73.4928 65.7478 73.0499C65.6732 72.8282 65.6181 72.6596 65.5819 72.5426C65.5637 72.4837 65.5512 72.4409 65.5435 72.4122C65.5397 72.3976 65.5379 72.3899 65.5374 72.3873C65.5352 72.3767 65.5411 72.3993 65.5411 72.4332H64.8531ZM65.7716 75.219C66.3764 76.9215 66.8889 78.3528 67.3092 79.5127L67.956 79.2783C67.5365 78.1202 67.0244 76.6904 66.4199 74.9887L65.7716 75.219ZM67.9548 79.5162L70.2139 73.4861L69.5697 73.2447L67.3105 79.2748L67.9548 79.5162ZM80.8098 77.8922V77.5482H80.576L80.4899 77.7656L80.8098 77.8922ZM80.6502 78.2953L80.3303 78.1687L80.3291 78.1718L80.6502 78.2953ZM80.0539 79.9162L80.3789 80.0289L80.3794 80.0275L80.0539 79.9162ZM80.0539 81.3859L79.8259 81.6436L79.8308 81.6478L80.0539 81.3859ZM80.5662 81.6715L80.4603 81.9988L80.4631 81.9996L80.5662 81.6715ZM81.2801 81.8478L81.351 81.5112L81.3475 81.5105L81.2801 81.8478ZM81.4397 81.8814H81.7837V81.6023L81.5105 81.5448L81.4397 81.8814ZM81.4397 82.3601V82.7041H81.7837V82.3601H81.4397ZM77.4756 82.3601H77.1316V82.7041H77.4756V82.3601ZM77.4756 81.9234L77.2631 81.6529L77.1316 81.7562V81.9234H77.4756ZM77.7107 81.7722L77.8646 82.08L77.8726 82.0758L77.7107 81.7722ZM78.0215 81.6295L77.8937 81.3101L77.8912 81.3111L78.0215 81.6295ZM78.4918 81.3859L78.298 81.1016L78.2919 81.106L78.4918 81.3859ZM78.8193 80.9912L79.1232 81.1526L79.127 81.145L78.8193 80.9912ZM78.9873 80.6133L78.6704 80.4792L78.6679 80.4855L78.9873 80.6133ZM79.1049 80.3277L78.7841 80.2035L78.7828 80.2069L79.1049 80.3277ZM79.2057 80.0674L78.8852 79.9423L78.8849 79.9432L79.2057 80.0674ZM82.3467 72.0217L82.6672 72.1468L82.67 72.1392L82.3467 72.0217ZM82.3971 71.7025L82.7402 71.7279L82.7406 71.7197L82.3971 71.7025ZM82.4223 71.4338L82.0871 71.3564L82.0847 71.3668L82.0829 71.3772L82.4223 71.4338ZM82.5062 71.2406V70.8966H82.3271L82.2244 71.0433L82.5062 71.2406ZM83.2117 71.3246L83.1172 71.6554L83.1197 71.656L83.2117 71.3246ZM83.8164 71.6353L84.1339 71.503L84.0978 71.4164L84.0228 71.3601L83.8164 71.6353ZM87.6713 80.882L87.3538 81.0144L87.3541 81.015L87.6713 80.882ZM87.9232 81.3019L87.6668 81.5314L87.6731 81.5381L87.9232 81.3019ZM88.2172 81.5371L88.0501 81.8378L88.0599 81.8432L88.0699 81.848L88.2172 81.5371ZM88.6455 81.7219L88.516 82.0406L88.5263 82.0447L88.5367 82.0482L88.6455 81.7219ZM89.1242 81.9234L89.468 81.9366L89.4765 81.715L89.2781 81.6157L89.1242 81.9234ZM89.1074 82.3601V82.7041H89.4384L89.4512 82.3734L89.1074 82.3601ZM84.2195 82.3601L83.8758 82.3734L83.8885 82.7041H84.2195V82.3601ZM84.2027 81.9234L84.1045 81.5937L83.8487 81.6699L83.859 81.9366L84.2027 81.9234ZM84.8746 81.6883L84.7436 81.3702L84.7403 81.3716L84.8746 81.6883ZM84.7738 78.3541L85.0944 78.2293L85.0932 78.2263L84.7738 78.3541ZM84.673 78.1105L84.3491 78.2262L84.3527 78.2363L84.3569 78.246L84.673 78.1105ZM84.5975 77.8922L84.9238 77.7834L84.8454 77.5482H84.5975V77.8922ZM82.6322 73.0211L82.9516 72.8932L82.6204 72.0661L82.3098 72.9012L82.6322 73.0211ZM81.0953 77.1531L80.7729 77.0332L80.6003 77.4971H81.0953V77.1531ZM84.2867 77.1531V77.4971H84.795L84.6061 77.0252L84.2867 77.1531ZM80.4899 77.7656L80.3303 78.1687L80.97 78.4219L81.1296 78.0188L80.4899 77.7656ZM80.3291 78.1718C80.0764 78.8289 79.8759 79.3737 79.7284 79.8048L80.3794 80.0275C80.523 79.6077 80.7201 79.0718 80.9713 78.4188L80.3291 78.1718ZM79.7289 79.8035C79.5802 80.2324 79.4915 80.6015 79.4915 80.8904H80.1796C80.1796 80.7202 80.2365 80.4399 80.3789 80.0289L79.7289 79.8035ZM79.4915 80.8904C79.4915 81.1864 79.6035 81.4468 79.826 81.6436L80.2818 81.1283C80.2131 81.0675 80.1796 80.9976 80.1796 80.8904H79.4915ZM79.8308 81.6478C80.0167 81.8061 80.2273 81.9234 80.4603 81.9988L80.6721 81.3442C80.5244 81.2964 80.3935 81.2233 80.277 81.1241L79.8308 81.6478ZM80.4631 81.9996C80.6743 82.066 80.9249 82.1276 81.2126 82.1852L81.3475 81.5105C81.0754 81.4561 80.8501 81.4001 80.6693 81.3433L80.4631 81.9996ZM81.2092 82.1845L81.3688 82.218L81.5105 81.5448L81.3509 81.5112L81.2092 82.1845ZM81.0956 81.8814V82.3601H81.7837V81.8814H81.0956ZM81.4397 82.0161H77.4756V82.7041H81.4397V82.0161ZM77.8196 82.3601V81.9234H77.1316V82.3601H77.8196ZM77.6881 82.1939C77.7507 82.1448 77.8096 82.1074 77.8646 82.0799L77.5569 81.4646C77.4551 81.5154 77.3573 81.5789 77.2631 81.6529L77.6881 82.1939ZM77.8726 82.0758C77.9432 82.0381 78.0355 81.9954 78.1517 81.9479L77.8912 81.3111C77.7612 81.3643 77.6463 81.4168 77.5489 81.4687L77.8726 82.0758ZM78.1492 81.9489C78.3602 81.8645 78.5441 81.7713 78.6917 81.6658L78.2919 81.106C78.2044 81.1685 78.0747 81.2377 77.8937 81.3101L78.1492 81.9489ZM78.6856 81.6701C78.8684 81.5455 79.0108 81.3641 79.1231 81.1526L78.5155 80.8298C78.4375 80.9766 78.3615 81.0584 78.298 81.1017L78.6856 81.6701ZM79.127 81.145C79.188 81.023 79.2479 80.8881 79.3067 80.741L78.6679 80.4855C78.6148 80.6183 78.5626 80.7354 78.5117 80.8374L79.127 81.145ZM79.3041 80.7473C79.365 80.6033 79.4072 80.5012 79.427 80.4485L78.7828 80.2069C78.769 80.2438 78.7327 80.3321 78.6705 80.4792L79.3041 80.7473ZM79.4257 80.4519L79.5265 80.1915L78.8849 79.9432L78.7841 80.2035L79.4257 80.4519ZM79.5261 80.1925L82.6671 72.1468L82.0262 71.8966L78.8852 79.9423L79.5261 80.1925ZM82.67 72.1392C82.7101 72.0289 82.7288 71.8803 82.7401 71.7279L82.054 71.6771C82.0489 71.7467 82.0427 71.8011 82.0363 71.842C82.0331 71.8623 82.03 71.8777 82.0274 71.8889C82.0247 71.9004 82.0231 71.9049 82.0234 71.9041L82.67 72.1392ZM82.7406 71.7197C82.7459 71.6137 82.7535 71.5389 82.7616 71.4903L82.0829 71.3772C82.0686 71.463 82.0594 71.5674 82.0535 71.6853L82.7406 71.7197ZM82.7575 71.5111C82.7653 71.4773 82.7765 71.4545 82.7881 71.4379L82.2244 71.0433C82.1577 71.1387 82.1129 71.2446 82.0871 71.3564L82.7575 71.5111ZM82.5062 71.5846C82.7589 71.5846 82.9605 71.6106 83.1172 71.6554L83.3062 70.9938C83.071 70.9266 82.8023 70.8966 82.5062 70.8966V71.5846ZM83.1197 71.656C83.2724 71.6985 83.4359 71.7799 83.61 71.9105L84.0228 71.3601C83.7938 71.1884 83.5541 71.0627 83.3038 70.9931L83.1197 71.656ZM83.4989 71.7677L87.3538 81.0144L87.9888 80.7496L84.1339 71.503L83.4989 71.7677ZM87.3541 81.015C87.4372 81.2133 87.5395 81.389 87.6669 81.5313L88.1796 81.0726C88.1166 81.0021 88.051 80.8978 87.9885 80.749L87.3541 81.015ZM87.6731 81.5381C87.7878 81.6595 87.913 81.7616 88.0501 81.8378L88.3843 81.2364C88.3198 81.2006 88.249 81.1459 88.1733 81.0657L87.6731 81.5381ZM88.0699 81.848C88.1847 81.9023 88.3341 81.9667 88.516 82.0406L88.775 81.4032C88.5985 81.3315 88.4625 81.2726 88.3644 81.2262L88.0699 81.848ZM88.5367 82.0482C88.67 82.0926 88.8145 82.1532 88.9704 82.2311L89.2781 81.6157C89.098 81.5257 88.9233 81.4519 88.7543 81.3955L88.5367 82.0482ZM88.7805 81.9102L88.7637 82.3469L89.4512 82.3734L89.468 81.9366L88.7805 81.9102ZM89.1074 82.0161H84.2195V82.7041H89.1074V82.0161ZM84.5633 82.3469L84.5465 81.9102L83.859 81.9366L83.8758 82.3734L84.5633 82.3469ZM84.3009 82.2531C84.5723 82.1723 84.809 82.0898 85.009 82.0049L84.7403 81.3716C84.5707 81.4435 84.3595 81.5178 84.1045 81.5937L84.3009 82.2531ZM85.0056 82.0064C85.2339 81.9124 85.4394 81.7809 85.6206 81.6131L85.1532 81.1083C85.0321 81.2205 84.8961 81.3074 84.7436 81.3702L85.0056 82.0064ZM85.6206 81.6131C85.8404 81.4097 85.9577 81.1482 85.9577 80.8484H85.2697C85.2697 80.9518 85.2358 81.0318 85.1532 81.1083L85.6206 81.6131ZM85.9577 80.8484C85.9577 80.7427 85.9285 80.6096 85.8937 80.4783C85.856 80.3362 85.8009 80.1584 85.7297 79.9471C85.5873 79.524 85.3751 78.9507 85.0944 78.2293L84.4532 78.4788C84.7325 79.1964 84.9402 79.7583 85.0777 80.1666C85.1465 80.3711 85.1964 80.5331 85.2287 80.6547C85.2448 80.7156 85.2557 80.7632 85.2624 80.7989C85.2695 80.8375 85.2697 80.8512 85.2697 80.8484H85.9577ZM85.0932 78.2263C85.0587 78.1399 85.024 78.0561 84.9892 77.975L84.3569 78.246C84.3893 78.3217 84.4218 78.4003 84.4544 78.4818L85.0932 78.2263ZM84.997 77.9948C84.9697 77.9184 84.9453 77.8479 84.9238 77.7834L84.2711 78.001C84.2944 78.0708 84.3204 78.1459 84.3491 78.2262L84.997 77.9948ZM84.5975 77.5482H80.8098V78.2362H84.5975V77.5482ZM82.3098 72.9012L80.7729 77.0332L81.4177 77.273L82.9547 73.141L82.3098 72.9012ZM81.0953 77.4971H84.2867V76.8091H81.0953V77.4971ZM84.6061 77.0252L82.9516 72.8932L82.3129 73.1489L83.9674 77.281L84.6061 77.0252ZM91.4422 72.6851L91.1167 72.7965L91.1176 72.7992L91.4422 72.6851ZM90.4428 72.0553L90.3687 72.3913L90.3765 72.3928L90.4428 72.0553ZM89.6197 71.8537L89.276 71.8402L89.2655 72.1066L89.5209 72.1832L89.6197 71.8537ZM89.6365 71.4254V71.0814H89.3058L89.2928 71.4119L89.6365 71.4254ZM95.3139 71.4254H95.6579V71.0814H95.3139V71.4254ZM95.3139 71.8621L95.4454 72.18L95.6579 72.092V71.8621H95.3139ZM94.8772 72.0133L94.9502 72.3494L94.9571 72.3479L94.964 72.3461L94.8772 72.0133ZM94.3648 72.114L94.4214 72.4534L94.4272 72.4524L94.3648 72.114ZM93.7686 72.282L93.9171 72.5925L93.9277 72.587L93.7686 72.282ZM93.4662 72.6767L93.1426 72.5599L93.1399 72.568L93.4662 72.6767ZM93.5586 81.1508L93.2495 81.302L93.2536 81.3099L93.5586 81.1508ZM97.8586 81.5035L97.9789 81.8258L97.9812 81.8249L97.8586 81.5035ZM98.8748 80.5377L99.1797 80.6972L99.1825 80.6915L98.8748 80.5377ZM99.0008 80.2857L99.3085 80.4396L99.3103 80.4358L99.0008 80.2857ZM99.2443 79.8238L99.5406 79.9988L99.5438 79.9931L99.2443 79.8238ZM99.4963 79.4711L99.5078 79.1273L99.3471 79.1219L99.2399 79.2417L99.4963 79.4711ZM100 79.4879L100.339 79.5483L100.409 79.1573L100.012 79.1441L100 79.4879ZM99.4711 82.4525L99.443 82.7954L99.7548 82.821L99.8097 82.513L99.4711 82.4525ZM89.6281 82.3601L89.2844 82.3729L89.2966 82.7041H89.6281V82.3601ZM89.6113 81.9066L89.5025 81.5803L89.258 81.6618L89.2676 81.9194L89.6113 81.9066ZM90.1488 81.7471L90.0613 81.4143L90.0543 81.4163L90.1488 81.7471ZM90.9047 81.5035L91.0391 81.8203L91.047 81.8167L90.9047 81.5035ZM91.3666 81.1088L91.6501 81.3037L91.6528 81.2996L91.3666 81.1088ZM91.8954 73.6762C91.8954 73.2161 91.8599 72.8364 91.7667 72.5711L91.1176 72.7992C91.17 72.9482 91.2074 73.2292 91.2074 73.6762H91.8954ZM91.7677 72.5738C91.6785 72.313 91.5282 72.0798 91.2818 71.9516L90.9643 72.562C90.9979 72.5795 91.0604 72.6318 91.1167 72.7965L91.7677 72.5738ZM91.2818 71.9516C91.0961 71.8551 90.8289 71.7805 90.5091 71.7177L90.3765 72.3928C90.6837 72.4532 90.8701 72.513 90.9643 72.562L91.2818 71.9516ZM90.5169 71.7193C90.1369 71.6355 89.8734 71.5706 89.7186 71.5242L89.5209 72.1832C89.702 72.2375 89.9871 72.307 90.3687 72.3912L90.5169 71.7193ZM89.9635 71.8672L89.9803 71.4389L89.2928 71.4119L89.276 71.8402L89.9635 71.8672ZM89.6365 71.7694H95.3139V71.0814H89.6365V71.7694ZM94.9699 71.4254V71.8621H95.6579V71.4254H94.9699ZM95.1823 71.5442C95.0302 71.6072 94.8999 71.6518 94.7903 71.6804L94.964 72.3461C95.1119 72.3075 95.2728 72.2514 95.4454 72.18L95.1823 71.5442ZM94.8041 71.6771C94.6804 71.704 94.5136 71.7368 94.3025 71.7757L94.4272 72.4524C94.6416 72.4129 94.8164 72.3785 94.9502 72.3494L94.8041 71.6771ZM94.3083 71.7747C94.0293 71.8212 93.7873 71.8842 93.6094 71.977L93.9277 72.587C94.0074 72.5454 94.1629 72.4965 94.4214 72.4534L94.3083 71.7747ZM93.6201 71.9717C93.3769 72.088 93.231 72.3153 93.1427 72.5599L93.7898 72.7936C93.847 72.635 93.9027 72.5992 93.917 72.5923L93.6201 71.9717ZM93.1399 72.568C93.0543 72.8247 93.0214 73.1876 93.0214 73.6258H93.7094C93.7094 73.2017 93.7438 72.9319 93.7926 72.7855L93.1399 72.568ZM93.0214 73.6258V79.7398H93.7094V73.6258H93.0214ZM93.0214 79.7398C93.0214 80.4182 93.0826 80.9607 93.2496 81.302L93.8676 80.9996C93.777 80.8145 93.7094 80.4164 93.7094 79.7398H93.0214ZM93.2536 81.3099C93.45 81.6862 93.8068 81.8955 94.2436 81.9762L94.3685 81.2996C94.0775 81.2459 93.936 81.1304 93.8636 80.9916L93.2536 81.3099ZM94.2436 81.9762C94.6425 82.0498 95.3384 82.0827 96.3049 82.0827V81.3947C95.3342 81.3947 94.6975 81.3603 94.3685 81.2996L94.2436 81.9762ZM96.3049 82.0827C96.9476 82.0827 97.5091 82.0012 97.9789 81.8258L97.7383 81.1812C97.3683 81.3194 96.894 81.3947 96.3049 81.3947V82.0827ZM97.9812 81.8249C98.4998 81.627 98.8966 81.2379 99.1796 80.6972L98.57 80.3782C98.3491 80.8004 98.0684 81.0552 97.736 81.1821L97.9812 81.8249ZM99.1825 80.6915L99.3085 80.4396L98.6931 80.1319L98.5671 80.3838L99.1825 80.6915ZM99.3103 80.4358C99.3974 80.2562 99.4741 80.1112 99.5405 79.9988L98.9482 79.6488C98.869 79.7828 98.7833 79.9457 98.6912 80.1356L99.3103 80.4358ZM99.5438 79.9931C99.6049 79.885 99.6746 79.7877 99.7527 79.7005L99.2399 79.2417C99.1277 79.3672 99.0294 79.505 98.9449 79.6545L99.5438 79.9931ZM99.4848 79.8149L99.9887 79.8317L100.012 79.1441L99.5078 79.1273L99.4848 79.8149ZM99.6616 79.4274L99.1324 82.3921L99.8097 82.513L100.339 79.5483L99.6616 79.4274ZM99.4992 82.1097C98.7443 82.0477 98.1209 82.0161 97.6318 82.0161V82.7041C98.0946 82.7041 98.6974 82.7342 99.443 82.7954L99.4992 82.1097ZM97.6318 82.0161H89.6281V82.7041H97.6318V82.0161ZM89.9719 82.3474L89.9551 81.8939L89.2676 81.9194L89.2844 82.3729L89.9719 82.3474ZM89.7201 82.233C89.7957 82.2078 89.9674 82.1567 90.2433 82.0778L90.0543 81.4163C89.7816 81.4942 89.5949 81.5495 89.5025 81.5803L89.7201 82.233ZM90.2364 82.0797C90.5627 81.9938 90.8326 81.9078 91.039 81.8202L90.7703 81.1868C90.6073 81.256 90.3732 81.3323 90.0613 81.4144L90.2364 82.0797ZM91.047 81.8167C91.2928 81.705 91.4941 81.5305 91.6501 81.3037L91.0831 80.9139C90.9928 81.0453 90.8861 81.1341 90.7623 81.1903L91.047 81.8167ZM91.6528 81.2996C91.8274 81.0378 91.8954 80.7074 91.8954 80.3445H91.2074C91.2074 80.6311 91.1522 80.8102 91.0804 80.918L91.6528 81.2996ZM91.8954 80.3445V73.6762H91.2074V80.3445H91.8954ZM104.938 76.2629V76.6069H105.08L105.181 76.5072L104.938 76.2629ZM108.768 72.4668L109.01 72.7111L109.069 72.6534L109.095 72.5756L108.768 72.4668ZM107.987 71.8537L107.952 72.1959L107.952 72.1959L107.987 71.8537ZM107.5 71.7697L107.391 72.0961L107.396 72.0977L107.5 71.7697ZM107.391 71.4254V71.0814H107.143L107.064 71.3166L107.391 71.4254ZM112.128 71.4254L112.463 71.3507L112.403 71.0814H112.128V71.4254ZM112.161 71.5765H112.505V71.5388L112.497 71.5019L112.161 71.5765ZM110.969 72.0217L110.897 71.6851L110.895 71.6856L110.969 72.0217ZM109.776 72.5172L109.557 72.252L109.543 72.2638L109.53 72.277L109.776 72.5172ZM106.517 75.8597L106.271 75.6196L106.069 75.8273L106.239 76.062L106.517 75.8597ZM110.448 81.2683L110.17 81.4706L110.182 81.4873L110.196 81.5024L110.448 81.2683ZM110.817 81.4951L110.684 81.8126L110.697 81.8172L110.817 81.4951ZM111.531 81.7387L111.426 82.0663L111.431 82.0678L111.531 81.7387ZM112.245 81.9906L112.104 82.3045L112.108 82.3062L112.245 81.9906ZM112.463 82.3601V82.7041H112.663L112.762 82.5308L112.463 82.3601ZM106.719 82.3601L106.407 82.5043L106.499 82.7041H106.719V82.3601ZM106.82 82.041L106.929 82.3675L106.939 82.3638L106.82 82.041ZM107.315 81.9318L107.266 81.5914L107.264 81.5916L107.315 81.9318ZM107.92 81.7974L108.041 82.1196L108.048 82.1168L107.92 81.7974ZM107.987 81.2347L107.703 81.4287L107.709 81.4371L107.715 81.4451L107.987 81.2347ZM104.972 76.8172L105.256 76.6232L105.154 76.4732H104.972V76.8172ZM104.216 76.8172V76.4732H103.872V76.8172H104.216ZM104.384 81.7135L104.169 81.9821L104.177 81.9879L104.184 81.9934L104.384 81.7135ZM104.804 81.8814L104.746 82.2206L104.757 82.2222L104.804 81.8814ZM105.426 81.9318L105.447 81.5884L105.441 81.5882L105.426 81.9318ZM106.022 82.0074L105.931 82.3393L105.938 82.3412L105.946 82.3428L106.022 82.0074ZM106.165 82.3601V82.7041H106.422L106.495 82.4572L106.165 82.3601ZM100.538 82.3601L100.211 82.4689L100.29 82.7041H100.538V82.3601ZM100.689 82.0242L100.779 82.3561L100.786 82.3542L100.793 82.352L100.689 82.0242ZM101.252 81.9234L101.29 82.2654L101.298 82.2643L101.252 81.9234ZM101.226 71.8873L101.167 72.2263L101.176 72.2275L101.226 71.8873ZM100.664 71.7613L100.55 72.086L100.555 72.0877L100.664 71.7613ZM100.538 71.4254V71.0814H100.29L100.211 71.3166L100.538 71.4254ZM106.131 71.4254L106.46 71.3242L106.385 71.0814H106.131V71.4254ZM105.4 71.8873L105.35 71.547L105.348 71.5474L105.4 71.8873ZM104.216 76.2629H103.872V76.6069H104.216V76.2629ZM105.181 76.5072L109.01 72.7111L108.526 72.2225L104.696 76.0186L105.181 76.5072ZM109.095 72.5756C109.126 72.4822 109.146 72.3833 109.146 72.282H108.458C108.458 72.2927 108.455 72.317 108.442 72.358L109.095 72.5756ZM109.146 72.282C109.146 72.155 109.118 72.0203 109.04 71.8995C108.96 71.7763 108.845 71.6959 108.721 71.6492L108.479 72.2934C108.486 72.2957 108.484 72.2961 108.48 72.2924C108.474 72.2884 108.468 72.282 108.463 72.274C108.46 72.2702 108.459 72.2669 108.458 72.2643C108.456 72.2617 108.456 72.2603 108.456 72.2604C108.456 72.2606 108.458 72.2671 108.458 72.282H109.146ZM108.721 71.6492C108.544 71.5828 108.304 71.5402 108.022 71.5115L107.952 72.1959C108.219 72.2231 108.388 72.2589 108.479 72.2934L108.721 71.6492ZM108.022 71.5115C107.809 71.4897 107.675 71.4644 107.604 71.4417L107.396 72.0977C107.537 72.1422 107.728 72.1729 107.952 72.1959L108.022 71.5115ZM107.609 71.4434C107.604 71.4416 107.63 71.4494 107.658 71.4842C107.687 71.5221 107.693 71.5604 107.693 71.5765H107.005C107.005 71.6878 107.036 71.8059 107.116 71.9082C107.193 72.0074 107.296 72.0642 107.391 72.0961L107.609 71.4434ZM107.693 71.5765C107.693 71.5871 107.692 71.5956 107.692 71.6016C107.691 71.6076 107.691 71.6126 107.69 71.616C107.689 71.6226 107.688 71.6269 107.688 71.6278C107.688 71.6295 107.688 71.6269 107.691 71.6182C107.696 71.6012 107.704 71.5738 107.717 71.5342L107.064 71.3166C107.05 71.3609 107.037 71.4008 107.028 71.4341C107.023 71.4501 107.005 71.513 107.005 71.5765H107.693ZM107.391 71.7694H112.128V71.0814H107.391V71.7694ZM111.792 71.5L111.825 71.6512L112.497 71.5019L112.463 71.3507L111.792 71.5ZM111.817 71.5765C111.817 71.5059 111.844 71.4546 111.863 71.4282C111.881 71.4045 111.894 71.397 111.887 71.4018C111.881 71.4057 111.867 71.4146 111.839 71.4273C111.812 71.4398 111.776 71.4539 111.731 71.4694L111.953 72.1204C112.071 72.0802 112.185 72.0319 112.276 71.9696C112.352 71.9175 112.505 71.7914 112.505 71.5765H111.817ZM111.731 71.4694C111.537 71.5357 111.261 71.608 110.897 71.6851L111.04 72.3582C111.415 72.2786 111.722 72.1996 111.953 72.1204L111.731 71.4694ZM110.895 71.6856C110.335 71.8082 109.876 71.9888 109.557 72.252L109.995 72.7824C110.192 72.6201 110.527 72.4703 111.042 72.3577L110.895 71.6856ZM109.53 72.277L106.271 75.6196L106.764 76.0999L110.022 72.7573L109.53 72.277ZM106.239 76.062L110.17 81.4706L110.726 81.0661L106.796 75.6575L106.239 76.062ZM110.196 81.5024C110.318 81.6343 110.495 81.7329 110.684 81.8123L110.95 81.1779C110.793 81.1118 110.723 81.0592 110.7 81.0343L110.196 81.5024ZM110.697 81.8172C110.883 81.8872 111.127 81.9702 111.426 82.0662L111.636 81.4111C111.342 81.3167 111.11 81.2374 110.938 81.173L110.697 81.8172ZM111.431 82.0678C111.74 82.1617 111.962 82.2407 112.104 82.3045L112.386 81.6767C112.203 81.595 111.949 81.506 111.631 81.4095L111.431 82.0678ZM112.108 82.3062C112.141 82.3205 112.166 82.3329 112.183 82.3431C112.192 82.3481 112.198 82.3521 112.203 82.3552C112.207 82.3583 112.209 82.3598 112.209 82.3597C112.209 82.3597 112.206 82.3573 112.202 82.3522C112.197 82.3471 112.19 82.3386 112.183 82.3263C112.168 82.3004 112.153 82.2599 112.153 82.209H112.841C112.841 82.03 112.737 81.907 112.659 81.8398C112.579 81.7704 112.48 81.7175 112.382 81.675L112.108 82.3062ZM112.153 82.209C112.153 82.2193 112.152 82.2218 112.153 82.2183C112.154 82.2146 112.157 82.2038 112.165 82.1895L112.762 82.5308C112.823 82.4241 112.841 82.3095 112.841 82.209H112.153ZM112.463 82.0161H106.719V82.7041H112.463V82.0161ZM107.031 82.216C107.024 82.2007 107.019 82.1879 107.014 82.1774C107.01 82.1668 107.007 82.1596 107.006 82.1554C107.005 82.1533 107.005 82.1525 107.005 82.1528C107.005 82.153 107.005 82.1551 107.006 82.1586C107.007 82.162 107.008 82.1684 107.01 82.1771C107.011 82.1855 107.013 82.1995 107.013 82.2174H106.325C106.325 82.2923 106.348 82.3582 106.357 82.3843C106.37 82.4223 106.388 82.4631 106.407 82.5043L107.031 82.216ZM107.013 82.2174C107.013 82.2311 107.01 82.2509 107.002 82.2736C106.994 82.2967 106.982 82.3174 106.968 82.3342C106.94 82.3666 106.916 82.3715 106.929 82.3673L106.711 81.7147C106.623 81.7441 106.523 81.7952 106.445 81.8864C106.362 81.9836 106.325 82.1007 106.325 82.2174H107.013ZM106.939 82.3638C107.011 82.3372 107.147 82.3048 107.366 82.272L107.264 81.5916C107.035 81.626 106.841 81.6664 106.701 81.7182L106.939 82.3638ZM107.365 82.2722C107.64 82.232 107.871 82.1831 108.041 82.1195L107.799 81.4753C107.7 81.5126 107.527 81.5532 107.266 81.5914L107.365 82.2722ZM108.048 82.1168C108.163 82.0705 108.275 81.9965 108.357 81.8819C108.44 81.7655 108.474 81.6332 108.474 81.5035H107.786C107.786 81.5098 107.785 81.5091 107.787 81.5035C107.789 81.4976 107.792 81.4897 107.797 81.482C107.803 81.4745 107.808 81.4708 107.808 81.4702C107.809 81.4698 107.804 81.4732 107.792 81.478L108.048 82.1168ZM108.474 81.5035C108.474 81.3902 108.43 81.2932 108.398 81.2329C108.362 81.1644 108.313 81.0942 108.259 81.0244L107.715 81.4451C107.756 81.4985 107.779 81.5346 107.79 81.5557C107.796 81.5659 107.796 81.5676 107.794 81.5621C107.793 81.5576 107.786 81.5364 107.786 81.5035H108.474ZM108.271 81.0408L105.256 76.6232L104.688 77.0111L107.703 81.4287L108.271 81.0408ZM104.972 76.4732H104.216V77.1612H104.972V76.4732ZM103.872 76.8172V81.3187H104.56V76.8172H103.872ZM103.872 81.3187C103.872 81.5724 103.958 81.8134 104.169 81.9821L104.599 81.4448C104.586 81.4344 104.56 81.4122 104.56 81.3187H103.872ZM104.184 81.9934C104.349 82.1114 104.539 82.1849 104.746 82.2204L104.863 81.5424C104.744 81.522 104.654 81.4835 104.584 81.4335L104.184 81.9934ZM104.757 82.2222C104.934 82.2466 105.153 82.264 105.41 82.2755L105.441 81.5882C105.195 81.5772 104.999 81.561 104.851 81.5407L104.757 82.2222ZM105.405 82.2752C105.676 82.2918 105.845 82.3156 105.931 82.3393L106.112 81.6755C105.953 81.632 105.724 81.6054 105.447 81.5885L105.405 82.2752ZM105.946 82.3428C105.968 82.3479 105.943 82.3474 105.912 82.3145C105.895 82.2972 105.882 82.2756 105.873 82.252C105.864 82.2291 105.863 82.2106 105.863 82.2006H106.551C106.551 82.0742 106.509 81.9437 106.409 81.8389C106.316 81.7416 106.199 81.6949 106.098 81.672L105.946 82.3428ZM105.863 82.2006C105.863 82.1849 105.864 82.1727 105.864 82.1668C105.865 82.16 105.866 82.1549 105.866 82.152C105.867 82.1489 105.867 82.1466 105.868 82.1455C105.868 82.1449 105.868 82.1445 105.868 82.1442C105.868 82.144 105.868 82.1439 105.868 82.1439C105.868 82.1438 105.868 82.1438 105.868 82.1438C105.868 82.1438 105.868 82.1439 105.868 82.1441C105.868 82.1443 105.868 82.1447 105.868 82.1451C105.867 82.146 105.867 82.1472 105.867 82.1487C105.866 82.1519 105.865 82.156 105.863 82.1613C105.858 82.1832 105.848 82.2166 105.835 82.2631L106.495 82.4572C106.509 82.4085 106.521 82.3678 106.529 82.3364C106.533 82.321 106.537 82.3049 106.54 82.2899C106.541 82.2876 106.551 82.2463 106.551 82.2006H105.863ZM106.165 82.0161H100.538V82.7041H106.165V82.0161ZM100.864 82.2514C100.855 82.2237 100.85 82.2056 100.847 82.1953C100.846 82.1903 100.846 82.1893 100.846 82.1916C100.847 82.1933 100.848 82.2027 100.848 82.2174H100.16C100.16 82.3079 100.19 82.4043 100.211 82.4689L100.864 82.2514ZM100.848 82.2174C100.848 82.2312 100.846 82.2518 100.837 82.2756C100.827 82.2998 100.814 82.3201 100.799 82.3355C100.772 82.3639 100.753 82.3632 100.779 82.3561L100.598 81.6923C100.501 81.7188 100.39 81.7671 100.302 81.8599C100.205 81.9608 100.16 82.0878 100.16 82.2174H100.848ZM100.793 82.352C100.883 82.3234 101.043 82.2927 101.29 82.2653L101.214 81.5815C100.956 81.6101 100.741 81.6466 100.585 81.6964L100.793 82.352ZM101.298 82.2643C101.549 82.2301 101.758 82.195 101.922 82.1584L101.773 81.4868C101.635 81.5175 101.447 81.5496 101.205 81.5826L101.298 82.2643ZM101.922 82.1584C102.121 82.1144 102.301 82.0315 102.457 81.9065L102.028 81.3693C101.96 81.4235 101.877 81.4637 101.773 81.4868L101.922 82.1584ZM102.457 81.9065C102.659 81.745 102.755 81.5185 102.755 81.2683H102.067C102.067 81.3317 102.05 81.3516 102.028 81.3693L102.457 81.9065ZM102.755 81.2683V72.5676H102.067V81.2683H102.755ZM102.755 72.5676C102.755 72.4023 102.715 72.2395 102.618 72.0963C102.522 71.9539 102.387 71.8551 102.236 71.7899L101.963 72.4214C102.02 72.4457 102.04 72.4688 102.047 72.4803C102.055 72.4911 102.067 72.5144 102.067 72.5676H102.755ZM102.236 71.7899C101.989 71.6832 101.665 71.6049 101.277 71.5471L101.176 72.2275C101.538 72.2817 101.796 72.349 101.963 72.4214L102.236 71.7899ZM101.285 71.5484C101.03 71.504 100.864 71.4655 100.772 71.435L100.555 72.0877C100.698 72.1355 100.907 72.1809 101.167 72.2262L101.285 71.5484ZM100.777 71.4366C100.754 71.4284 100.769 71.4286 100.792 71.4543C100.805 71.4683 100.818 71.4876 100.827 71.5118C100.837 71.536 100.84 71.5586 100.84 71.5765H100.152C100.152 71.7033 100.197 71.8224 100.283 71.9171C100.363 72.0044 100.462 72.0551 100.55 72.086L100.777 71.4366ZM100.84 71.5765C100.84 71.5871 100.839 71.5956 100.839 71.6016C100.838 71.6076 100.838 71.6126 100.837 71.616C100.836 71.6226 100.835 71.6269 100.835 71.6278C100.835 71.6295 100.835 71.6269 100.838 71.6182C100.842 71.6012 100.851 71.5738 100.864 71.5342L100.211 71.3166C100.197 71.3609 100.184 71.4008 100.175 71.4341C100.17 71.4501 100.152 71.513 100.152 71.5765H100.84ZM100.538 71.7694H106.131V71.0814H100.538V71.7694ZM105.802 71.5265C105.812 71.5591 105.818 71.5811 105.821 71.5944C105.823 71.601 105.823 71.6028 105.823 71.601C105.823 71.5999 105.822 71.5968 105.822 71.592C105.821 71.5874 105.821 71.5791 105.821 71.5681H106.509C106.509 71.5142 106.497 71.4635 106.491 71.4369C106.483 71.4026 106.472 71.3644 106.46 71.3242L105.802 71.5265ZM105.821 71.5681C105.821 71.5543 105.823 71.5345 105.831 71.5123C105.84 71.4898 105.852 71.4712 105.865 71.4575C105.888 71.4321 105.903 71.4333 105.876 71.4419L106.084 72.0975C106.18 72.0669 106.287 72.015 106.372 71.9224C106.464 71.8223 106.509 71.6976 106.509 71.5681H105.821ZM105.876 71.4419C105.78 71.4723 105.61 71.5083 105.35 71.547L105.451 72.2275C105.718 72.1878 105.933 72.1455 106.084 72.0975L105.876 71.4419ZM105.348 71.5474C105.09 71.5874 104.875 71.6284 104.704 71.6711L104.871 72.3386C105.013 72.3029 105.206 72.2656 105.453 72.2272L105.348 71.5474ZM104.704 71.6711C104.505 71.7208 104.325 71.8052 104.169 71.9294L104.599 72.4666C104.668 72.4117 104.756 72.3673 104.871 72.3386L104.704 71.6711ZM104.169 71.9294C103.967 72.0909 103.872 72.3174 103.872 72.5676H104.56C104.56 72.5042 104.577 72.4843 104.599 72.4666L104.169 71.9294ZM103.872 72.5676V76.2629H104.56V72.5676H103.872ZM104.216 76.6069H104.938V75.9189H104.216V76.6069Z" fill="#FAB91C"/>
</svg>
