<svg width="150" height="150" viewBox="0 0 150 150" fill="none" xmlns="http://www.w3.org/2000/svg">
<circle cx="4" cy="4" r="4" fill="#0E4E94" fill-opacity="0.04"/>
<circle cx="4" cy="67" r="4" fill="#0E4E94" fill-opacity="0.04"/>
<circle cx="4" cy="35" r="4" fill="#0E4E94" fill-opacity="0.04"/>
<circle cx="4" cy="99" r="4" fill="#0E4E94" fill-opacity="0.04"/>
<circle cx="4" cy="131" r="4" fill="#0E4E94" fill-opacity="0.04"/>
<circle cx="4" cy="19" r="4" fill="#0E4E94" fill-opacity="0.04"/>
<circle cx="4" cy="83" r="4" fill="#0E4E94" fill-opacity="0.04"/>
<circle cx="4" cy="51" r="4" fill="#0E4E94" fill-opacity="0.04"/>
<circle cx="4" cy="115" r="4" fill="#0E4E94" fill-opacity="0.04"/>
<circle cx="4" cy="146" r="4" fill="#0E4E94" fill-opacity="0.04"/>
<circle cx="19" cy="4" r="4" fill="#0E4E94" fill-opacity="0.04"/>
<circle cx="19" cy="67" r="4" fill="#0E4E94" fill-opacity="0.04"/>
<circle cx="19" cy="35" r="4" fill="#0E4E94" fill-opacity="0.04"/>
<circle cx="19" cy="99" r="4" fill="#0E4E94" fill-opacity="0.04"/>
<circle cx="19" cy="131" r="4" fill="#0E4E94" fill-opacity="0.04"/>
<circle cx="19" cy="19" r="4" fill="#0E4E94" fill-opacity="0.04"/>
<circle cx="19" cy="83" r="4" fill="#0E4E94" fill-opacity="0.04"/>
<circle cx="19" cy="51" r="4" fill="#0E4E94" fill-opacity="0.04"/>
<circle cx="19" cy="115" r="4" fill="#0E4E94" fill-opacity="0.04"/>
<circle cx="19" cy="146" r="4" fill="#0E4E94" fill-opacity="0.04"/>
<circle cx="35" cy="4" r="4" fill="#0E4E94" fill-opacity="0.04"/>
<circle cx="35" cy="67" r="4" fill="#0E4E94" fill-opacity="0.04"/>
<circle cx="35" cy="35" r="4" fill="#0E4E94" fill-opacity="0.04"/>
<circle cx="35" cy="99" r="4" fill="#0E4E94" fill-opacity="0.04"/>
<circle cx="35" cy="131" r="4" fill="#0E4E94" fill-opacity="0.04"/>
<circle cx="35" cy="19" r="4" fill="#0E4E94" fill-opacity="0.04"/>
<circle cx="35" cy="83" r="4" fill="#0E4E94" fill-opacity="0.04"/>
<circle cx="35" cy="51" r="4" fill="#0E4E94" fill-opacity="0.04"/>
<circle cx="35" cy="115" r="4" fill="#0E4E94" fill-opacity="0.04"/>
<circle cx="35" cy="146" r="4" fill="#0E4E94" fill-opacity="0.04"/>
<circle cx="51" cy="4" r="4" fill="#0E4E94" fill-opacity="0.04"/>
<circle cx="51" cy="67" r="4" fill="#0E4E94" fill-opacity="0.04"/>
<circle cx="51" cy="35" r="4" fill="#0E4E94" fill-opacity="0.04"/>
<circle cx="51" cy="99" r="4" fill="#0E4E94" fill-opacity="0.04"/>
<circle cx="51" cy="131" r="4" fill="#0E4E94" fill-opacity="0.04"/>
<circle cx="51" cy="19" r="4" fill="#0E4E94" fill-opacity="0.04"/>
<circle cx="51" cy="83" r="4" fill="#0E4E94" fill-opacity="0.04"/>
<circle cx="51" cy="51" r="4" fill="#0E4E94" fill-opacity="0.04"/>
<circle cx="51" cy="115" r="4" fill="#0E4E94" fill-opacity="0.04"/>
<circle cx="51" cy="146" r="4" fill="#0E4E94" fill-opacity="0.04"/>
<circle cx="67" cy="4" r="4" fill="#0E4E94" fill-opacity="0.04"/>
<circle cx="67" cy="67" r="4" fill="#0E4E94" fill-opacity="0.04"/>
<circle cx="67" cy="35" r="4" fill="#0E4E94" fill-opacity="0.04"/>
<circle cx="67" cy="99" r="4" fill="#0E4E94" fill-opacity="0.04"/>
<circle cx="67" cy="131" r="4" fill="#0E4E94" fill-opacity="0.04"/>
<circle cx="67" cy="19" r="4" fill="#0E4E94" fill-opacity="0.04"/>
<circle cx="67" cy="83" r="4" fill="#0E4E94" fill-opacity="0.04"/>
<circle cx="67" cy="51" r="4" fill="#0E4E94" fill-opacity="0.04"/>
<circle cx="67" cy="115" r="4" fill="#0E4E94" fill-opacity="0.04"/>
<circle cx="67" cy="146" r="4" fill="#0E4E94" fill-opacity="0.04"/>
<circle cx="83" cy="4" r="4" fill="#0E4E94" fill-opacity="0.04"/>
<circle cx="83" cy="67" r="4" fill="#0E4E94" fill-opacity="0.04"/>
<circle cx="83" cy="35" r="4" fill="#0E4E94" fill-opacity="0.04"/>
<circle cx="83" cy="19" r="4" fill="#0E4E94" fill-opacity="0.04"/>
<circle cx="83" cy="83" r="4" fill="#0E4E94" fill-opacity="0.04"/>
<circle cx="83" cy="51" r="4" fill="#0E4E94" fill-opacity="0.04"/>
<circle cx="83" cy="115" r="4" fill="#0E4E94" fill-opacity="0.04"/>
<circle cx="83" cy="146" r="4" fill="#0E4E94" fill-opacity="0.04"/>
<circle cx="99" cy="4" r="4" fill="#0E4E94" fill-opacity="0.04"/>
<circle cx="99" cy="67" r="4" fill="#0E4E94" fill-opacity="0.04"/>
<circle cx="99" cy="35" r="4" fill="#0E4E94" fill-opacity="0.04"/>
<circle cx="99" cy="99" r="4" fill="#0E4E94" fill-opacity="0.04"/>
<circle cx="99" cy="131" r="4" fill="#0E4E94" fill-opacity="0.04"/>
<circle cx="83" cy="99" r="4" fill="#0E4E94" fill-opacity="0.04"/>
<circle cx="83" cy="131" r="4" fill="#0E4E94" fill-opacity="0.04"/>
<circle cx="99" cy="19" r="4" fill="#0E4E94" fill-opacity="0.04"/>
<circle cx="99" cy="83" r="4" fill="#0E4E94" fill-opacity="0.04"/>
<circle cx="99" cy="51" r="4" fill="#0E4E94" fill-opacity="0.04"/>
<circle cx="99" cy="115" r="4" fill="#0E4E94" fill-opacity="0.04"/>
<circle cx="99" cy="146" r="4" fill="#0E4E94" fill-opacity="0.04"/>
<circle cx="115" cy="4" r="4" fill="#0E4E94" fill-opacity="0.04"/>
<circle cx="115" cy="67" r="4" fill="#0E4E94" fill-opacity="0.04"/>
<circle cx="115" cy="35" r="4" fill="#0E4E94" fill-opacity="0.04"/>
<circle cx="115" cy="99" r="4" fill="#0E4E94" fill-opacity="0.04"/>
<circle cx="115" cy="131" r="4" fill="#0E4E94" fill-opacity="0.04"/>
<circle cx="115" cy="19" r="4" fill="#0E4E94" fill-opacity="0.04"/>
<circle cx="115" cy="83" r="4" fill="#0E4E94" fill-opacity="0.04"/>
<circle cx="115" cy="51" r="4" fill="#0E4E94" fill-opacity="0.04"/>
<circle cx="115" cy="115" r="4" fill="#0E4E94" fill-opacity="0.04"/>
<circle cx="115" cy="146" r="4" fill="#0E4E94" fill-opacity="0.04"/>
<circle cx="131" cy="4" r="4" fill="#0E4E94" fill-opacity="0.04"/>
<circle cx="131" cy="67" r="4" fill="#0E4E94" fill-opacity="0.04"/>
<circle cx="131" cy="35" r="4" fill="#0E4E94" fill-opacity="0.04"/>
<circle cx="131" cy="99" r="4" fill="#0E4E94" fill-opacity="0.04"/>
<circle cx="131" cy="131" r="4" fill="#0E4E94" fill-opacity="0.04"/>
<circle cx="131" cy="19" r="4" fill="#0E4E94" fill-opacity="0.04"/>
<circle cx="131" cy="83" r="4" fill="#0E4E94" fill-opacity="0.04"/>
<circle cx="131" cy="51" r="4" fill="#0E4E94" fill-opacity="0.04"/>
<circle cx="131" cy="115" r="4" fill="#0E4E94" fill-opacity="0.04"/>
<circle cx="131" cy="146" r="4" fill="#0E4E94" fill-opacity="0.04"/>
<circle cx="146" cy="4" r="4" fill="#0E4E94" fill-opacity="0.04"/>
<circle cx="146" cy="67" r="4" fill="#0E4E94" fill-opacity="0.04"/>
<circle cx="146" cy="35" r="4" fill="#0E4E94" fill-opacity="0.04"/>
<circle cx="146" cy="99" r="4" fill="#0E4E94" fill-opacity="0.04"/>
<circle cx="146" cy="131" r="4" fill="#0E4E94" fill-opacity="0.04"/>
<circle cx="146" cy="19" r="4" fill="#0E4E94" fill-opacity="0.04"/>
<circle cx="146" cy="83" r="4" fill="#0E4E94" fill-opacity="0.04"/>
<circle cx="146" cy="51" r="4" fill="#0E4E94" fill-opacity="0.04"/>
<circle cx="146" cy="115" r="4" fill="#0E4E94" fill-opacity="0.04"/>
<circle cx="146" cy="146" r="4" fill="#0E4E94" fill-opacity="0.04"/>
</svg>
